# Blender v3.1.2 OBJ File: 'Scene.blend'
# www.blender.org
o BeerBottle_C.002_BeerBottle.002
v -0.000000 0.235463 -0.011377
v -0.010552 0.226969 -0.010552
v 0.008045 0.235463 -0.008045
v -0.014923 0.226969 0.000000
v 0.011377 0.235463 0.000000
v -0.010552 0.226969 0.010552
v 0.008045 0.235463 0.008045
v -0.000000 0.226969 0.014923
v -0.000000 0.235463 0.011377
v 0.010552 0.226969 0.010552
v -0.008045 0.235463 0.008045
v 0.014922 0.226969 0.000000
v -0.011377 0.235463 0.000000
v 0.010552 0.226969 -0.010552
v -0.008045 0.235463 -0.008045
v -0.000000 0.226969 -0.014923
v -0.000000 0.225094 -0.012232
v 0.008650 0.225094 -0.008650
v 0.012232 0.225094 0.000000
v 0.008650 0.225094 0.008650
v -0.000000 0.225094 0.012232
v -0.008650 0.225094 0.008650
v -0.012232 0.225094 0.000000
v -0.008650 0.225094 -0.008650
v -0.012836 0.150712 -0.012836
v -0.018153 0.150712 0.000000
v -0.012836 0.150712 0.012836
v -0.000000 0.150712 0.018153
v 0.012836 0.150712 0.012836
v 0.018152 0.150712 0.000000
v 0.012836 0.150712 -0.012836
v -0.000000 0.150712 -0.018153
v -0.000000 0.143231 -0.025078
v -0.000000 0.129811 -0.030496
v 0.021564 0.129811 -0.021564
v 0.017732 0.143231 -0.017733
v 0.030496 0.129811 0.000000
v 0.025077 0.143231 0.000000
v 0.021564 0.129811 0.021564
v 0.017732 0.143231 0.017733
v -0.000000 0.129811 0.030496
v -0.000000 0.143231 0.025078
v -0.021565 0.129811 0.021564
v -0.017733 0.143231 0.017733
v -0.030497 0.129811 0.000000
v -0.025078 0.143231 0.000000
v -0.021565 0.129811 -0.021564
v -0.017733 0.143231 -0.017733
v -0.000000 0.000000 -0.018664
v -0.000000 0.010473 -0.030496
v -0.000000 0.003068 -0.027031
v 0.021564 0.010473 -0.021564
v 0.013197 0.000000 -0.013197
v 0.019113 0.003068 -0.019114
v 0.030496 0.010473 0.000000
v 0.018664 0.000000 0.000000
v 0.027030 0.003068 0.000000
v 0.021564 0.010473 0.021564
v 0.013197 0.000000 0.013197
v 0.019113 0.003068 0.019114
v -0.000000 0.010473 0.030496
v -0.000000 0.000000 0.018664
v -0.000000 0.003068 0.027031
v -0.021565 0.010473 0.021564
v -0.013198 0.000000 0.013197
v -0.019114 0.003068 0.019114
v -0.030497 0.010473 0.000000
v -0.018664 0.000000 0.000000
v -0.027031 0.003068 0.000000
v -0.021565 0.010473 -0.021564
v -0.013198 0.000000 -0.013197
v -0.019114 0.003068 -0.019114
v -0.000000 0.198210 -0.008580
v 0.006067 0.198210 -0.006067
v 0.008580 0.198210 0.000000
v 0.006067 0.198210 0.006067
v -0.000000 0.198210 0.008580
v -0.006067 0.198210 0.006067
v -0.008580 0.198210 0.000000
v -0.006067 0.198210 -0.006067
v -0.006067 0.235463 -0.006067
v -0.008580 0.235463 0.000000
v -0.006067 0.235463 0.006067
v -0.000000 0.235463 0.008580
v 0.006067 0.235463 0.006067
v 0.008580 0.235463 0.000000
v 0.006067 0.235463 -0.006067
v -0.000000 0.235463 -0.008580
vt 0.273051 0.967195
vt 0.327281 0.967195
vt 0.327281 0.973693
vt 0.273051 0.973693
vt 0.435741 0.514385
vt 0.435741 0.733317
vt 0.381511 0.733317
vt 0.381511 0.514385
vt 0.164590 0.799111
vt 0.218821 0.799111
vt 0.218821 0.819313
vt 0.164590 0.819313
vt 0.327281 0.799111
vt 0.381511 0.799111
vt 0.381511 0.819313
vt 0.327281 0.819313
vt 0.273051 0.799111
vt 0.273051 0.819313
vt 0.001900 0.799111
vt 0.056130 0.799111
vt 0.056130 0.819313
vt 0.001900 0.819313
vt 0.110360 0.799111
vt 0.110360 0.819313
vt 0.381511 0.967195
vt 0.218821 0.967195
vt 0.164590 0.967195
vt 0.110360 0.967195
vt 0.056130 0.967195
vt 0.001900 0.967195
vt 0.435741 0.819313
vt 0.435741 0.967195
vt 0.273051 0.514385
vt 0.273051 0.733317
vt 0.218821 0.733317
vt 0.218821 0.514385
vt 0.110360 0.514385
vt 0.110360 0.733317
vt 0.056130 0.733317
vt 0.056130 0.514385
vt 0.454942 0.856603
vt 0.477646 0.856603
vt 0.493700 0.872657
vt 0.493700 0.895361
vt 0.477646 0.911415
vt 0.454942 0.911415
vt 0.438888 0.895361
vt 0.438888 0.872657
vt 0.164590 0.733317
vt 0.164590 0.514385
vt 0.001900 0.733317
vt 0.001900 0.514385
vt 0.218821 0.973693
vt 0.164590 0.973693
vt 0.327281 0.514385
vt 0.327281 0.733317
vt 0.435741 0.799111
vt 0.327281 0.505994
vt 0.381511 0.505994
vt 0.327281 0.500051
vt 0.381511 0.500051
vt 0.273051 0.505994
vt 0.273051 0.500051
vt 0.218821 0.505994
vt 0.218821 0.500051
vt 0.164590 0.505994
vt 0.164590 0.500051
vt 0.110360 0.505994
vt 0.110360 0.500051
vt 0.056130 0.505994
vt 0.056130 0.500051
vt 0.001900 0.505994
vt 0.001900 0.500051
vt 0.435741 0.505994
vt 0.435741 0.500051
vt 0.110360 0.973693
vt 0.056130 0.973693
vt 0.435741 0.973693
vt 0.381511 0.973693
vt 0.001900 0.973693
vt 0.381511 0.991936
vt 0.327281 0.991936
vt 0.273051 0.991936
vt 0.435741 0.991936
vt 0.056130 0.991936
vt 0.001900 0.991936
vt 0.110360 0.991936
vt 0.164590 0.991936
vt 0.218821 0.991936
vt 0.446268 0.854035
vt 0.438888 0.846655
vt 0.438888 0.836218
vt 0.446268 0.828838
vt 0.456705 0.828838
vt 0.464086 0.836218
vt 0.464086 0.846655
vt 0.456705 0.854035
vt 0.438888 0.945298
vt 0.438888 0.934861
vt 0.498098 0.934861
vt 0.498098 0.945299
vt 0.438888 0.955736
vt 0.498098 0.955736
vt 0.438888 0.997484
vt 0.438888 0.987047
vt 0.498098 0.987047
vt 0.498098 0.997484
vt 0.438888 0.924424
vt 0.498098 0.924424
vt 0.438888 0.976610
vt 0.498098 0.976610
vt 0.438888 0.966173
vt 0.498098 0.966173
vt 0.438888 0.913987
vt 0.498098 0.913987
vt 0.110360 0.997480
vt 0.056130 0.997480
vt 0.218820 0.997480
vt 0.164590 0.997480
vt 0.381511 0.997480
vt 0.327281 0.997480
vt 0.435741 0.997480
vt 0.273051 0.997480
vt 0.001900 0.997480
vn 0.5717 -0.8205 -0.0000
vn 0.4042 -0.8205 -0.4042
vn 0.7052 0.0734 -0.7052
vn 0.9973 0.0734 -0.0001
vn -0.7069 -0.0259 -0.7069
vn -0.7066 0.0375 -0.7066
vn -0.0000 0.0375 -0.9993
vn -0.0000 -0.0259 -0.9997
vn 0.0000 0.4897 0.8719
vn 0.6165 0.4897 0.6165
vn 0.6953 0.1824 0.6952
vn -0.0000 0.1824 0.9832
vn 0.6165 0.4897 -0.6165
vn -0.0000 0.4897 -0.8719
vn -0.0000 0.1824 -0.9832
vn 0.6952 0.1824 -0.6952
vn 0.8719 0.4897 -0.0000
vn 0.9832 0.1824 -0.0000
vn -0.6165 0.4897 -0.6165
vn -0.8719 0.4897 0.0000
vn -0.9832 0.1824 0.0000
vn -0.6952 0.1824 -0.6952
vn -0.6165 0.4897 0.6165
vn -0.6952 0.1824 0.6952
vn 0.0000 0.0793 -0.9968
vn 0.7049 0.0793 -0.7049
vn 0.9968 0.0793 -0.0000
vn 0.7049 0.0793 0.7049
vn 0.0000 0.0793 0.9968
vn -0.7049 0.0793 0.7049
vn -0.9968 0.0793 -0.0000
vn -0.7049 0.0793 -0.7049
vn 0.9997 -0.0259 0.0000
vn 0.9993 0.0375 0.0000
vn 0.7066 0.0375 0.7066
vn 0.7069 -0.0259 0.7069
vn -0.7069 -0.0259 0.7069
vn -0.7066 0.0375 0.7066
vn -0.9993 0.0375 0.0000
vn -0.9997 -0.0259 0.0000
vn -0.0000 -0.9969 -0.0787
vn 0.0556 -0.9969 -0.0556
vn 0.0787 -0.9969 -0.0000
vn 0.0556 -0.9969 0.0556
vn 0.0000 -0.9969 0.0787
vn -0.0556 -0.9969 0.0556
vn -0.0787 -0.9969 0.0000
vn -0.0556 -0.9969 -0.0556
vn -0.0000 0.0375 0.9993
vn 0.0000 -0.0259 0.9997
vn 0.0000 -0.8205 0.5717
vn 0.4042 -0.8205 0.4042
vn 0.7052 0.0734 0.7052
vn -0.0000 0.0734 0.9973
vn 0.7069 -0.0259 -0.7069
vn 0.7066 0.0375 -0.7066
vn 0.4932 -0.7166 -0.4932
vn -0.0000 -0.7166 -0.6975
vn 0.6975 -0.7166 -0.0000
vn 0.4932 -0.7166 0.4932
vn 0.0000 -0.7166 0.6975
vn -0.4932 -0.7166 0.4932
vn -0.6975 -0.7166 0.0000
vn -0.4932 -0.7166 -0.4932
vn -0.5716 -0.8205 -0.0000
vn -0.4042 -0.8205 0.4042
vn -0.7052 0.0734 0.7052
vn -0.9973 0.0734 -0.0002
vn 0.0000 -0.8205 -0.5717
vn -0.4042 -0.8205 -0.4042
vn -0.7052 0.0734 -0.7052
vn 0.0000 0.0734 -0.9973
vn -0.0000 0.5550 -0.8318
vn 0.5882 0.5550 -0.5882
vn 0.8318 0.5550 -0.0000
vn -0.5882 0.5551 -0.5882
vn -0.8318 0.5551 0.0000
vn -0.5882 0.5551 0.5882
vn 0.0000 0.5550 0.8318
vn 0.5882 0.5550 0.5882
vn 0.0000 1.0000 0.0000
vn -0.9962 0.0870 0.0000
vn -0.7044 0.0870 0.7044
vn -0.7071 0.0000 0.7071
vn -1.0000 0.0000 0.0000
vn -0.7044 0.0870 -0.7044
vn -0.7071 0.0000 -0.7071
vn 0.7044 0.0870 0.7044
vn 0.9962 0.0870 0.0000
vn 1.0000 0.0000 0.0000
vn 0.7071 0.0000 0.7071
vn 0.0000 0.0870 0.9962
vn 0.0000 0.0000 1.0000
vn 0.7044 0.0870 -0.7044
vn 0.7071 0.0000 -0.7071
vn 0.0000 0.0870 -0.9962
vn 0.0000 0.0000 -1.0000
s 1
f 19/1/1 18/2/2 14/3/3 12/4/4
f 70/5/5 47/6/6 34/7/7 50/8/8
f 42/9/9 40/10/10 29/11/11 28/12/12
f 36/13/13 33/14/14 32/15/15 31/16/16
f 40/10/10 38/17/17 30/18/18 29/11/11
f 48/19/19 46/20/20 26/21/21 25/22/22
f 46/20/20 44/23/23 27/24/24 26/21/21
f 44/23/23 42/9/9 28/12/12 27/24/24
f 31/16/16 32/15/15 17/25/25 18/2/26
f 29/11/11 30/18/18 19/1/27 20/26/28
f 27/24/24 28/12/12 21/27/29 22/28/30
f 25/22/22 26/21/21 23/29/31 24/30/32
f 30/18/18 31/16/16 18/2/26 19/1/27
f 28/12/12 29/11/11 20/26/28 21/27/29
f 26/21/21 27/24/24 22/28/30 23/29/31
f 32/15/15 25/31/22 24/32/32 17/25/25
f 55/33/33 37/34/34 39/35/35 58/36/36
f 64/37/37 43/38/38 45/39/39 67/40/40
f 38/17/17 36/13/13 31/16/16 30/18/18
f 49/41/41 53/42/42 56/43/43 59/44/44 62/45/45 65/46/46 68/47/47 71/48/48
f 58/36/36 39/35/35 41/49/49 61/50/50
f 67/40/40 45/39/39 47/51/6 70/52/5
f 61/50/50 41/49/49 43/38/38 64/37/37
f 21/27/51 20/26/52 10/53/53 8/54/54
f 52/55/55 35/56/56 37/34/34 55/33/33
f 34/7/7 47/6/6 48/57/19 33/14/14
f 47/51/6 45/39/39 46/20/20 48/19/19
f 45/39/39 43/38/38 44/23/23 46/20/20
f 43/38/38 41/49/49 42/9/9 44/23/23
f 41/49/49 39/35/35 40/10/10 42/9/9
f 39/35/35 37/34/34 38/17/17 40/10/10
f 37/34/34 35/56/56 36/13/13 38/17/17
f 35/56/56 34/7/7 33/14/14 36/13/13
f 33/14/14 48/57/19 25/31/22 32/15/15
f 50/8/8 52/55/55 54/58/57 51/59/58
f 51/59/58 54/58/57 53/60/42 49/61/41
f 52/55/55 55/33/33 57/62/59 54/58/57
f 54/58/57 57/62/59 56/63/43 53/60/42
f 55/33/33 58/36/36 60/64/60 57/62/59
f 57/62/59 60/64/60 59/65/44 56/63/43
f 58/36/36 61/50/50 63/66/61 60/64/60
f 60/64/60 63/66/61 62/67/45 59/65/44
f 61/50/50 64/37/37 66/68/62 63/66/61
f 63/66/61 66/68/62 65/69/46 62/67/45
f 64/37/37 67/40/40 69/70/63 66/68/62
f 66/68/62 69/70/63 68/71/47 65/69/46
f 67/40/40 70/52/5 72/72/64 69/70/63
f 69/70/63 72/72/64 71/73/48 68/71/47
f 70/5/5 50/8/8 51/59/58 72/74/64
f 72/74/64 51/59/58 49/61/41 71/75/48
f 50/8/8 34/7/7 35/56/56 52/55/55
f 23/29/65 22/28/66 6/76/67 4/77/68
f 17/25/69 24/32/70 2/78/71 16/79/72
f 18/2/2 17/25/69 16/79/72 14/3/3
f 20/26/52 19/1/1 12/4/4 10/53/53
f 22/28/66 21/27/51 8/54/54 6/76/67
f 24/30/70 23/29/65 4/77/68 2/80/71
f 14/3/3 16/79/72 1/81/73 3/82/74
f 12/4/4 14/3/3 3/82/74 5/83/75
f 16/79/72 2/78/71 15/84/76 1/81/73
f 2/80/71 4/77/68 13/85/77 15/86/76
f 4/77/68 6/76/67 11/87/78 13/85/77
f 6/76/67 8/54/54 9/88/79 11/87/78
f 8/54/54 10/53/53 7/89/80 9/88/79
f 10/53/53 12/4/4 5/83/75 7/89/80
f 75/90/81 74/91/81 73/92/81 80/93/81 79/94/81 78/95/81 77/96/81 76/97/81
f 86/98/82 87/99/83 74/100/84 75/101/85
f 85/102/86 86/98/82 75/101/85 76/103/87
f 81/104/88 82/105/89 79/106/90 80/107/91
f 87/99/83 88/108/92 73/109/93 74/100/84
f 82/105/89 83/110/94 78/111/95 79/106/90
f 83/110/94 84/112/96 77/113/97 78/111/95
f 88/108/92 81/114/88 80/115/91 73/109/93
f 84/112/96 85/102/86 76/103/87 77/113/97
f 13/85/77 11/87/78 83/116/94 82/117/89
f 9/88/79 7/89/80 85/118/86 84/119/96
f 3/82/74 1/81/73 88/120/92 87/121/83
f 11/87/78 9/88/79 84/119/96 83/116/94
f 1/81/73 15/84/76 81/122/88 88/120/92
f 7/89/80 5/83/75 86/123/82 85/118/86
f 5/83/75 3/82/74 87/121/83 86/123/82
f 15/86/76 13/85/77 82/117/89 81/124/88
