# Blender v3.1.2 OBJ File: 'Scene.blend'
# www.blender.org
o Beet_Rahmen_C_Cube.075
v -1.046453 0.500000 8.056616
v -1.046453 0.500000 -26.076811
v 1.046453 0.500000 8.056616
v 1.046453 0.500000 -26.076811
v -0.911286 0.500000 7.907768
v -0.911286 0.500000 -25.927963
v 0.911286 0.500000 7.907768
v 0.911286 0.500000 -25.927963
v -1.046453 -0.500000 8.056616
v -1.046453 -0.500000 -26.076811
v 1.046453 -0.500000 8.056616
v 1.046453 -0.500000 -26.076811
v -0.911286 -0.500000 7.907768
v -0.911286 -0.500000 -25.927963
v 0.911286 -0.500000 7.907768
v 0.911286 -0.500000 -25.927963
vt 0.000000 0.000000
vt 0.000000 0.000000
vt 0.000000 0.000000
vt 0.000000 0.000000
vt 0.000000 0.000000
vt 0.000000 0.000000
vt 0.000000 0.000000
vt 0.000000 0.000000
vt 0.000000 0.000000
vt 0.000000 0.000000
vt 0.000000 0.000000
vt 0.000000 0.000000
vt 0.000000 0.000000
vt 0.000000 0.000000
vt 0.000000 0.000000
vt 0.000000 0.000000
vn 0.0000 1.0000 0.0000
vn 0.0000 -1.0000 0.0000
vn 0.0000 0.0000 -1.0000
vn 0.0000 0.0000 1.0000
vn -1.0000 0.0000 0.0000
vn 1.0000 0.0000 0.0000
s off
f 3/1/1 7/2/1 5/3/1 1/4/1
f 2/5/1 6/6/1 8/7/1 4/8/1
f 4/8/1 8/7/1 7/2/1 3/1/1
f 1/4/1 5/3/1 6/6/1 2/5/1
f 11/9/2 9/10/2 13/11/2 15/12/2
f 10/13/2 12/14/2 16/15/2 14/16/2
f 12/14/2 11/9/2 15/12/2 16/15/2
f 9/10/2 10/13/2 14/16/2 13/11/2
f 5/3/3 7/2/3 15/12/3 13/11/3
f 8/7/4 6/6/4 14/16/4 16/15/4
f 3/1/4 1/4/4 9/10/4 11/9/4
f 2/5/3 4/8/3 12/14/3 10/13/3
f 7/2/5 8/7/5 16/15/5 15/12/5
f 6/6/6 5/3/6 13/11/6 14/16/6
f 4/8/6 3/1/6 11/9/6 12/14/6
f 1/4/5 2/5/5 10/13/5 9/10/5
