# Blender v3.1.2 OBJ File: 'Scene.blend'
# www.blender.org
o ChairDining_A.001_ChairDining.007
v 0.174920 0.049878 -0.173201
v 0.200037 0.049878 -0.173201
v 0.174920 0.074132 -0.173201
v 0.200037 0.074132 -0.173201
v 0.174920 0.049878 0.173201
v 0.200037 0.049878 0.173201
v 0.174920 0.074132 0.173201
v 0.200037 0.074132 0.173201
v 0.022246 0.000000 -0.209723
v 0.022246 0.440673 -0.209723
v 0.022246 0.000000 -0.165231
v 0.022246 0.440673 -0.165231
v -0.022246 0.000000 -0.209723
v -0.022246 0.440673 -0.209723
v -0.022246 0.000000 -0.165231
v -0.022246 0.440673 -0.165231
v 0.352711 0.000000 -0.209723
v 0.352711 0.440673 -0.209723
v 0.352711 0.000000 -0.165231
v 0.352711 0.440673 -0.165231
v 0.397202 0.000000 -0.209723
v 0.397202 0.440673 -0.209723
v 0.397202 0.000000 -0.165231
v 0.397202 0.440673 -0.165231
v 0.022246 0.000000 0.209723
v 0.022246 0.000000 0.165231
v -0.022246 0.000000 0.209723
v -0.022246 0.440673 0.209723
v -0.022246 0.000000 0.165231
v -0.022246 0.440673 0.165231
v 0.352711 0.000000 0.209723
v 0.352711 0.440673 0.209723
v 0.352711 0.000000 0.165231
v 0.352711 0.440673 0.165231
v 0.397202 0.000000 0.209723
v 0.397202 0.440673 0.209723
v 0.397202 0.000000 0.165231
v 0.397202 0.440673 0.165231
v -0.039974 1.040766 -0.211609
v -0.039974 1.040766 -0.163345
v -0.087363 1.035701 -0.211608
v -0.087363 1.035701 -0.163346
v 0.022246 0.440674 0.209723
v -0.039974 1.040766 0.211609
v 0.022246 0.440674 0.165231
v -0.039974 1.040766 0.163345
v -0.087363 1.035701 0.211608
v -0.087363 1.035701 0.163346
v 0.022246 0.040828 -0.205737
v 0.022246 0.040828 -0.173201
v 0.022246 0.083182 -0.205737
v 0.022246 0.083182 -0.173201
v 0.021953 0.362077 -0.205402
v 0.021953 0.362077 -0.180285
v 0.021953 0.440674 -0.205402
v 0.021953 0.440674 -0.180285
v -0.013613 0.362077 -0.165231
v 0.011504 0.362077 -0.165231
v -0.013613 0.440674 -0.165231
v 0.011504 0.440674 -0.165231
v 0.352710 0.040828 -0.205737
v 0.352710 0.040828 -0.173201
v 0.352710 0.083182 -0.205737
v 0.352710 0.083182 -0.173201
v 0.353004 0.362077 -0.205402
v 0.353004 0.362077 -0.180285
v 0.353004 0.440674 -0.205402
v 0.353004 0.440674 -0.180285
v 0.388570 0.362077 -0.165231
v 0.363453 0.362077 -0.165231
v 0.388570 0.440674 -0.165231
v 0.363453 0.440674 -0.165231
v 0.022246 0.040828 0.205737
v 0.022246 0.040828 0.173201
v 0.022246 0.083182 0.205737
v 0.022246 0.083182 0.173201
v 0.021953 0.362077 0.205402
v 0.021953 0.362077 0.180285
v 0.021953 0.440674 0.205402
v 0.021953 0.440674 0.180285
v -0.013613 0.362077 0.165231
v 0.011504 0.362077 0.165231
v -0.013613 0.440674 0.165231
v 0.011504 0.440674 0.165231
v 0.352711 0.040828 0.205736
v 0.352711 0.040828 0.173201
v 0.352711 0.083182 0.205736
v 0.352711 0.083182 0.173201
v 0.353004 0.362077 0.205402
v 0.353004 0.362077 0.180285
v 0.353004 0.440674 0.205402
v 0.353004 0.440674 0.180285
v 0.388570 0.362077 0.165231
v 0.363453 0.362077 0.165231
v 0.388570 0.440674 0.165231
v 0.363453 0.440674 0.165231
v -0.034670 0.636051 -0.165961
v -0.009703 0.638792 -0.165961
v -0.048184 0.748045 -0.165961
v -0.023217 0.750785 -0.165961
v -0.063974 0.917051 -0.165961
v -0.039007 0.919791 -0.165961
v -0.077487 1.029044 -0.165961
v -0.052520 1.031784 -0.165961
v -0.053578 0.636051 0.000000
v -0.034670 0.636051 0.165961
v -0.028611 0.638792 -0.000000
v -0.009703 0.638792 0.165961
v -0.067091 0.748045 0.000000
v -0.048184 0.748045 0.165961
v -0.042124 0.750785 0.000000
v -0.023217 0.750785 0.165961
v -0.082881 0.917050 0.000000
v -0.063974 0.917051 0.165961
v -0.057914 0.919791 0.000000
v -0.039006 0.919791 0.165961
v -0.096395 1.029044 0.000000
v -0.077487 1.029044 0.165961
v -0.071428 1.031784 0.000000
v -0.052520 1.031784 0.165961
vt 0.659875 0.577540
vt 0.486674 0.577540
vt 0.486674 0.589667
vt 0.659875 0.589667
vt 0.594814 0.479324
vt 0.594814 0.306123
vt 0.607372 0.306123
vt 0.607372 0.479324
vt 0.659875 0.589667
vt 0.486674 0.589667
vt 0.486674 0.577540
vt 0.659875 0.577540
vt 0.669800 0.481683
vt 0.669800 0.465415
vt 0.504568 0.465415
vt 0.504568 0.481683
vt 0.713627 0.397211
vt 0.493290 0.397211
vt 0.493290 0.419457
vt 0.713627 0.419457
vt 0.713627 0.556871
vt 0.493290 0.556871
vt 0.493290 0.579117
vt 0.713627 0.579117
vt 0.713627 0.419457
vt 0.493290 0.419457
vt 0.493290 0.397211
vt 0.713627 0.397211
vt 0.713627 0.579117
vt 0.493290 0.579117
vt 0.493290 0.556871
vt 0.713627 0.556871
vt 0.713627 0.397211
vt 0.713627 0.419457
vt 0.493290 0.419457
vt 0.493290 0.397211
vt 0.713627 0.391638
vt 0.713627 0.369393
vt 0.493290 0.369393
vt 0.493290 0.391638
vt 0.713627 0.419457
vt 0.713627 0.397211
vt 0.493290 0.397211
vt 0.493290 0.419457
vt 0.713627 0.369393
vt 0.713627 0.391638
vt 0.493290 0.391638
vt 0.493290 0.369393
vt 0.713627 0.606934
vt 0.713627 0.584688
vt 0.493290 0.584688
vt 0.493290 0.606934
vt 0.713627 0.556871
vt 0.713627 0.579117
vt 0.493290 0.579117
vt 0.493290 0.556871
vt 0.713627 0.584688
vt 0.713627 0.606934
vt 0.493290 0.606934
vt 0.493290 0.584688
vt 0.713627 0.579117
vt 0.713627 0.556871
vt 0.493290 0.556871
vt 0.493290 0.579117
vt 0.713627 0.606934
vt 0.493290 0.606934
vt 0.493290 0.584688
vt 0.713627 0.584688
vt 0.713627 0.391638
vt 0.493290 0.391638
vt 0.493290 0.369393
vt 0.713627 0.369393
vt 0.713627 0.584688
vt 0.493290 0.584688
vt 0.493290 0.606934
vt 0.713627 0.606934
vt 0.713627 0.369393
vt 0.493290 0.369393
vt 0.493290 0.391638
vt 0.713627 0.391638
vt 0.193244 0.396268
vt 0.193244 0.420400
vt 0.495296 0.583841
vt 0.193642 0.583465
vt 0.193687 0.607294
vt 0.492974 0.605966
vt 0.195776 0.420400
vt 0.195776 0.396269
vt 0.492974 0.605966
vt 0.193687 0.607294
vt 0.193642 0.583465
vt 0.495296 0.583841
vt 0.597548 0.587981
vt 0.597548 0.611675
vt 0.573417 0.611675
vt 0.573416 0.587981
vt 0.193244 0.583745
vt 0.193244 0.607877
vt 0.495296 0.583841
vt 0.492974 0.605966
vt 0.193687 0.607294
vt 0.193642 0.583465
vt 0.195776 0.607877
vt 0.195776 0.583746
vt 0.492974 0.605966
vt 0.495296 0.583841
vt 0.193642 0.583465
vt 0.193687 0.607294
vt 0.385939 0.587981
vt 0.410071 0.587981
vt 0.410071 0.611675
vt 0.385939 0.611675
vt 0.574359 0.556871
vt 0.574359 0.579117
vt 0.596605 0.579117
vt 0.596605 0.556871
vt 0.409128 0.556871
vt 0.386882 0.556871
vt 0.386882 0.579117
vt 0.409128 0.579117
vt 0.574359 0.391638
vt 0.596605 0.391638
vt 0.596605 0.369393
vt 0.574359 0.369393
vt 0.409128 0.391638
vt 0.409128 0.369393
vt 0.386882 0.369393
vt 0.386882 0.391638
vt 0.669800 0.580284
vt 0.669800 0.559107
vt 0.504568 0.559107
vt 0.504568 0.580284
vt 0.669800 0.465415
vt 0.669800 0.481683
vt 0.504568 0.481683
vt 0.504568 0.465415
vt 0.669800 0.559107
vt 0.669800 0.580284
vt 0.504568 0.580284
vt 0.504568 0.559107
vt 0.594445 0.391492
vt 0.581886 0.391492
vt 0.581886 0.557017
vt 0.594445 0.557017
vt 0.532588 0.391492
vt 0.493290 0.391492
vt 0.493290 0.557017
vt 0.532588 0.557017
vt 0.493290 0.391492
vt 0.532588 0.391492
vt 0.532588 0.557017
vt 0.493290 0.557017
vt 0.574359 0.562242
vt 0.409128 0.562242
vt 0.409128 0.574800
vt 0.574359 0.574800
vt 0.493290 0.419457
vt 0.493290 0.584688
vt 0.532588 0.584688
vt 0.532588 0.419457
vt 0.532588 0.419457
vt 0.532588 0.584688
vt 0.493290 0.584688
vt 0.493290 0.419457
vt 0.574359 0.373709
vt 0.409128 0.373709
vt 0.409128 0.386267
vt 0.574359 0.386267
vt 0.532588 0.419457
vt 0.532588 0.584688
vt 0.493290 0.584688
vt 0.493290 0.419457
vt 0.493290 0.419457
vt 0.493290 0.584688
vt 0.532588 0.584688
vt 0.532588 0.419457
vt 0.669800 0.275946
vt 0.504568 0.275946
vt 0.504568 0.292214
vt 0.669800 0.292214
vt 0.669800 0.580284
vt 0.504568 0.580284
vt 0.504568 0.559107
vt 0.669800 0.559107
vt 0.669800 0.292214
vt 0.504568 0.292214
vt 0.504568 0.275946
vt 0.669800 0.275946
vt 0.669800 0.559107
vt 0.504568 0.559107
vt 0.504568 0.580284
vt 0.669800 0.580284
vt 0.389043 0.391492
vt 0.389043 0.557017
vt 0.401601 0.557017
vt 0.401601 0.391492
vt 0.532588 0.391492
vt 0.532588 0.557017
vt 0.493290 0.557017
vt 0.493290 0.391492
vt 0.493290 0.391492
vt 0.493290 0.557017
vt 0.532588 0.557017
vt 0.532588 0.391492
vt 0.607372 0.479324
vt 0.607372 0.306123
vt 0.594814 0.306123
vt 0.594814 0.479324
vt 0.574724 0.592086
vt 0.491744 0.601539
vt 0.491744 0.589056
vt 0.574724 0.579602
vt 0.491744 0.594783
vt 0.574724 0.585329
vt 0.574724 0.572845
vt 0.491744 0.582299
vt 0.394231 0.502073
vt 0.394231 0.419092
vt 0.338234 0.419092
vt 0.338234 0.502073
vt 0.339604 0.502073
vt 0.339604 0.419092
vt 0.395601 0.419092
vt 0.395601 0.502073
vt 0.574724 0.606737
vt 0.491744 0.616191
vt 0.491744 0.603708
vt 0.574724 0.594254
vt 0.491744 0.609434
vt 0.574724 0.599981
vt 0.574724 0.587497
vt 0.491744 0.596951
vt 0.253731 0.502073
vt 0.253731 0.419092
vt 0.197734 0.419092
vt 0.197734 0.502073
vt 0.199105 0.502073
vt 0.199105 0.419092
vt 0.255101 0.419092
vt 0.255101 0.502073
vt 0.408763 0.592086
vt 0.408763 0.579602
vt 0.408763 0.572845
vt 0.408763 0.585329
vt 0.338234 0.585053
vt 0.394231 0.585053
vt 0.395601 0.585053
vt 0.339604 0.585053
vt 0.408763 0.606737
vt 0.408763 0.594254
vt 0.408763 0.587497
vt 0.408763 0.599981
vt 0.197734 0.585053
vt 0.253731 0.585053
vt 0.255101 0.585053
vt 0.199105 0.585053
vn 1.0000 0.0000 -0.0000
vn -0.0000 1.0000 -0.0000
vn -1.0000 0.0000 0.0000
vn 0.0000 -1.0000 0.0000
vn 0.0000 0.0000 1.0000
vn 0.0000 0.0000 -1.0000
vn 0.9947 0.1031 -0.0000
vn 0.0002 -0.0031 1.0000
vn -0.9941 -0.1088 0.0000
vn 0.0002 -0.0031 -1.0000
vn -0.1063 0.9943 0.0000
vn -0.1091 0.9940 -0.0124
vn -0.1091 0.9940 0.0000
vn 0.1091 -0.9940 0.0000
vn 0.1091 -0.9940 0.0124
vn 0.9928 0.1198 -0.0000
vn 0.9865 0.1190 0.1124
vn -0.9928 -0.1198 0.0000
vn -0.9865 -0.1190 -0.1124
vn -0.1091 0.9940 0.0124
vn 0.1091 -0.9940 -0.0124
vn 0.9865 0.1190 -0.1124
vn -0.9865 -0.1190 0.1124
s 1
f 4/1/1 8/2/1 6/3/1 2/4/1
f 3/5/2 7/6/2 8/7/2 4/8/2
f 1/9/3 5/10/3 7/11/3 3/12/3
f 61/13/4 62/14/4 50/15/4 49/16/4
f 9/17/1 10/18/1 12/19/1 11/20/1
f 11/21/5 12/22/5 16/23/5 15/24/5
f 15/25/3 16/26/3 14/27/3 13/28/3
f 13/29/6 14/30/6 10/31/6 9/32/6
f 17/33/3 19/34/3 20/35/3 18/36/3
f 19/37/5 23/38/5 24/39/5 20/40/5
f 23/41/1 21/42/1 22/43/1 24/44/1
f 21/45/6 17/46/6 18/47/6 22/48/6
f 25/49/1 26/50/1 45/51/1 43/52/1
f 26/53/6 29/54/6 30/55/6 45/56/6
f 29/57/3 27/58/3 28/59/3 30/60/3
f 27/61/5 25/62/5 43/63/5 28/64/5
f 31/65/3 32/66/3 34/67/3 33/68/3
f 33/69/6 34/70/6 38/71/6 37/72/6
f 37/73/1 38/74/1 36/75/1 35/76/1
f 35/77/5 36/78/5 32/79/5 31/80/5
f 10/18/7 39/81/7 40/82/7 12/19/7
f 12/83/8 40/84/8 42/85/8 16/86/8
f 16/26/9 42/87/9 41/88/9 14/27/9
f 14/89/10 41/90/10 39/91/10 10/92/10
f 39/93/11 41/94/11 42/95/11 40/96/11
f 43/52/7 45/51/7 46/97/7 44/98/7
f 45/99/10 30/100/10 48/101/10 46/102/10
f 30/60/9 28/59/9 47/103/9 48/104/9
f 28/105/8 43/106/8 44/107/8 47/108/8
f 44/109/11 46/110/11 48/111/11 47/112/11
f 11/113/4 15/114/4 13/115/4 9/116/4
f 26/117/4 25/118/4 27/119/4 29/120/4
f 19/121/4 17/122/4 21/123/4 23/124/4
f 33/125/4 37/126/4 35/127/4 31/128/4
f 62/129/5 64/130/5 52/131/5 50/132/5
f 64/133/2 63/134/2 51/135/2 52/136/2
f 63/137/6 61/138/6 49/139/6 51/140/6
f 65/141/4 66/142/4 54/143/4 53/144/4
f 66/145/5 68/146/5 56/147/5 54/148/5
f 67/149/6 65/150/6 53/151/6 55/152/6
f 58/153/4 82/154/4 81/155/4 57/156/4
f 60/157/1 84/158/1 82/159/1 58/160/1
f 57/161/3 81/162/3 83/163/3 59/164/3
f 69/165/4 93/166/4 94/167/4 70/168/4
f 70/169/3 94/170/3 96/171/3 72/172/3
f 71/173/1 95/174/1 93/175/1 69/176/1
f 85/177/4 73/178/4 74/179/4 86/180/4
f 86/181/6 74/182/6 76/183/6 88/184/6
f 88/185/2 76/186/2 75/187/2 87/188/2
f 87/189/5 75/190/5 73/191/5 85/192/5
f 89/193/4 77/194/4 78/195/4 90/196/4
f 90/197/6 78/198/6 80/199/6 92/200/6
f 91/201/5 79/202/5 77/203/5 89/204/5
f 2/205/4 6/206/4 5/207/4 1/208/4
f 99/209/12 109/210/13 111/211/13 100/212/12
f 105/213/14 97/214/15 98/215/15 107/216/14
f 107/217/16 98/218/17 100/219/17 111/220/16
f 109/221/18 99/222/19 97/223/19 105/224/18
f 103/225/12 117/226/13 119/227/13 104/228/12
f 113/229/14 101/230/15 102/231/15 115/232/14
f 115/233/16 102/234/17 104/235/17 119/236/16
f 117/237/18 103/238/19 101/239/19 113/240/18
f 110/241/20 112/242/20 111/211/13 109/210/13
f 105/213/14 107/216/14 108/243/21 106/244/21
f 107/217/16 111/220/16 112/245/22 108/246/22
f 109/221/18 105/224/18 106/247/23 110/248/23
f 118/249/20 120/250/20 119/227/13 117/226/13
f 113/229/14 115/232/14 116/251/21 114/252/21
f 115/233/16 119/236/16 120/253/22 116/254/22
f 117/237/18 113/240/18 114/255/23 118/256/23
