# Blender v3.1.2 OBJ File: 'Scene.blend'
# www.blender.org
o DoorRoom_E_DoorRoom.009
v -0.068332 0.012209 -0.058463
v -0.068332 2.032000 -0.058463
v -0.671608 0.012209 0.637346
v -0.671608 2.032000 0.637346
v -0.004669 0.012209 -0.003267
v -0.004669 2.032000 -0.003267
v -0.607945 0.012209 0.692542
v -0.607945 2.032000 0.692542
v -0.651812 0.995364 0.596909
v -0.684520 0.995364 0.586012
v -0.699943 0.995364 0.555179
v -0.645700 1.017886 0.589861
v -0.675878 1.027216 0.576044
v -0.693832 1.017886 0.548130
v -0.630946 1.027216 0.572844
v -0.655012 1.040409 0.551978
v -0.679078 1.027215 0.531113
v -0.616192 1.017886 0.555827
v -0.634147 1.027216 0.527912
v -0.664324 1.017886 0.514096
v -0.689046 0.995364 0.522470
v -0.610081 0.995364 0.548778
v -0.625504 0.995364 0.517944
v -0.658213 0.995364 0.507047
v -0.616192 0.972842 0.555827
v -0.634147 0.963512 0.527913
v -0.664324 0.972842 0.514096
v -0.630946 0.963512 0.572844
v -0.655012 0.950319 0.551978
v -0.679078 0.963512 0.531113
v -0.645700 0.972842 0.589861
v -0.675878 0.963512 0.576044
v -0.693832 0.972842 0.548130
v -0.570723 0.995364 0.667214
v -0.555300 0.995364 0.698048
v -0.522592 0.995364 0.708945
v -0.564612 1.017887 0.660166
v -0.546657 1.027216 0.688080
v -0.516480 1.017887 0.701896
v -0.549858 1.027216 0.643149
v -0.525792 1.040409 0.664014
v -0.501726 1.027216 0.684879
v -0.535104 1.017887 0.626132
v -0.504927 1.027216 0.639948
v -0.486972 1.017887 0.667862
v -0.491758 0.995364 0.693522
v -0.528992 0.995364 0.619083
v -0.496284 0.995364 0.629980
v -0.480861 0.995364 0.660814
v -0.535104 0.972842 0.626132
v -0.504927 0.963512 0.639948
v -0.486972 0.972842 0.667862
v -0.549858 0.963512 0.643149
v -0.525792 0.950319 0.664014
v -0.501726 0.963512 0.684879
v -0.564612 0.972842 0.660166
v -0.546657 0.963512 0.688080
v -0.516480 0.972842 0.701896
v -0.008882 0.216232 0.010244
v -0.008882 0.336709 0.010244
v -0.010244 0.216232 -0.008882
v -0.010244 0.336709 -0.008882
v 0.008882 0.216232 -0.010244
v 0.008882 0.336709 -0.010244
v 0.010244 0.216232 0.008882
v 0.010244 0.336709 0.008882
v -0.008882 0.964394 0.010244
v -0.008882 1.084871 0.010244
v -0.010244 0.964394 -0.008882
v -0.010244 1.084871 -0.008882
v 0.008882 0.964394 -0.010244
v 0.008882 1.084871 -0.010244
v 0.010244 0.964394 0.008882
v 0.010244 1.084871 0.008882
v -0.008882 1.712556 0.010244
v -0.008882 1.833033 0.010244
v -0.010244 1.712556 -0.008882
v -0.010244 1.833033 -0.008882
v 0.008882 1.712556 -0.010244
v 0.008882 1.833033 -0.010244
v 0.010244 1.712556 0.008882
v 0.010244 1.833033 0.008882
v -0.649281 1.121573 0.593991
v -0.643911 1.141363 0.587797
v -0.630946 1.149561 0.572844
v -0.617982 1.141363 0.557891
v -0.612612 1.121573 0.551697
v -0.617982 1.101782 0.557891
v -0.630946 1.093584 0.572844
v -0.643911 1.101782 0.587797
v -0.568192 1.121573 0.664295
v -0.562822 1.141364 0.658102
v -0.549858 1.149561 0.643149
v -0.536893 1.141364 0.628196
v -0.531523 1.121573 0.622002
v -0.536893 1.101782 0.628196
v -0.549858 1.093584 0.643149
v -0.562822 1.101782 0.658102
v -0.643027 1.147879 0.597188
v -0.650165 1.121573 0.605421
v -0.625794 1.158776 0.577311
v -0.608561 1.147879 0.557435
v -0.601422 1.121573 0.549202
v -0.608561 1.095266 0.557435
v -0.625794 1.084369 0.577311
v -0.643027 1.095266 0.597188
v -0.572244 1.147880 0.658558
v -0.579382 1.121573 0.666791
v -0.555011 1.158776 0.638681
v -0.537777 1.147880 0.618805
v -0.530639 1.121573 0.610572
v -0.537777 1.095266 0.618805
v -0.555011 1.084369 0.638681
v -0.572244 1.095266 0.658558
v -0.380180 1.667041 0.291399
v -0.378618 1.672797 0.289598
v -0.374848 1.675181 0.285249
v -0.371078 1.672797 0.280901
v -0.369516 1.667041 0.279100
v -0.371078 1.661286 0.280901
v -0.374848 1.658902 0.285249
v -0.378618 1.661286 0.289598
v -0.306591 1.667041 0.355202
v -0.305029 1.672797 0.353401
v -0.301259 1.675181 0.349052
v -0.297489 1.672797 0.344703
v -0.295927 1.667041 0.342902
v -0.297489 1.661286 0.344703
v -0.301259 1.658902 0.349052
v -0.305029 1.661286 0.353401
v -0.378560 1.674692 0.292156
v -0.380636 1.667041 0.294550
v -0.373549 1.677860 0.286376
v -0.368537 1.674692 0.280595
v -0.366461 1.667041 0.278201
v -0.368537 1.659391 0.280595
v -0.373549 1.656222 0.286376
v -0.378560 1.659391 0.292156
v -0.307777 1.674692 0.353526
v -0.309853 1.667041 0.355920
v -0.302766 1.677860 0.347746
v -0.297754 1.674692 0.341965
v -0.295678 1.667041 0.339571
v -0.297754 1.659391 0.341965
v -0.302766 1.656222 0.347746
v -0.307777 1.659391 0.353526
vt 0.467735 0.994753
vt 0.914469 0.994753
vt 0.914469 0.009039
vt 0.467735 0.009039
vt 0.994711 0.994331
vt 0.962135 0.994331
vt 0.962136 0.208745
vt 0.994711 0.208745
vt 0.955155 0.011446
vt 0.955155 0.367480
vt 0.922579 0.367480
vt 0.922579 0.011446
vt 0.955121 0.208745
vt 0.955121 0.994330
vt 0.922546 0.994330
vt 0.922546 0.208745
vt 0.008877 0.994753
vt 0.008877 0.009039
vt 0.455611 0.009039
vt 0.455611 0.994753
vt 0.961855 0.011446
vt 0.994430 0.011446
vt 0.994430 0.367480
vt 0.961855 0.367480
vt 0.348548 0.399130
vt 0.572707 0.397305
vt 0.571896 0.446192
vt 0.349153 0.448536
vt 0.763856 0.536091
vt 0.703189 0.548799
vt 0.711972 0.502179
vt 0.630546 0.640894
vt 0.573011 0.641515
vt 0.570245 0.593092
vt 0.631115 0.592941
vt 0.687174 0.639532
vt 0.688237 0.593655
vt 0.751148 0.475424
vt 0.572231 0.544438
vt 0.630241 0.544691
vt 0.690325 0.546274
vt 0.350802 0.497711
vt 0.569897 0.495478
vt 0.347936 0.546570
vt 0.797769 0.484207
vt 0.631590 0.495865
vt 0.693520 0.496876
vt 0.349225 0.691245
vt 0.571577 0.690086
vt 0.569621 0.739973
vt 0.350379 0.740410
vt 0.824524 0.523383
vt 0.632874 0.446342
vt 0.690711 0.447704
vt 0.632587 0.395088
vt 0.694124 0.400485
vt 0.348916 0.594352
vt 0.815741 0.570004
vt 0.633124 0.334827
vt 0.701600 0.351486
vt 0.776564 0.596759
vt 0.570327 0.349525
vt 0.698161 0.727910
vt 0.638914 0.749393
vt 0.633593 0.690226
vt 0.689270 0.684242
vt 0.351095 0.349412
vt 0.729943 0.587976
vt 0.349176 0.642507
vt 0.171497 0.542693
vt 0.195217 0.599959
vt 0.147776 0.599959
vt 0.289645 0.640980
vt 0.290949 0.593609
vt 0.234161 0.638501
vt 0.234720 0.593434
vt 0.228763 0.566413
vt 0.291393 0.546414
vt 0.233669 0.547815
vt 0.228763 0.518973
vt 0.289169 0.498510
vt 0.230957 0.501046
vt 0.195217 0.485427
vt 0.288431 0.449082
vt 0.227654 0.452888
vt 0.222973 0.403470
vt 0.287461 0.396858
vt 0.147776 0.485427
vt 0.214617 0.352199
vt 0.286294 0.334203
vt 0.114231 0.518973
vt 0.221414 0.726863
vt 0.231054 0.683196
vt 0.286454 0.690237
vt 0.280506 0.749393
vt 0.114231 0.566413
vt 0.354306 0.124388
vt 0.578265 0.124388
vt 0.578265 0.160032
vt 0.354306 0.160032
vt 0.578265 0.195675
vt 0.354306 0.195675
vt 0.613908 0.160032
vt 0.613908 0.195675
vt 0.578265 0.231318
vt 0.354306 0.231318
vt 0.354306 0.088745
vt 0.578265 0.088745
vt 0.318663 0.160032
vt 0.318663 0.195675
vt 0.354306 0.124388
vt 0.578265 0.124388
vt 0.578265 0.160032
vt 0.354306 0.160032
vt 0.578265 0.195675
vt 0.354306 0.195675
vt 0.613908 0.160032
vt 0.613908 0.195675
vt 0.578265 0.231318
vt 0.354306 0.231318
vt 0.354306 0.088745
vt 0.578265 0.088745
vt 0.318663 0.160032
vt 0.318663 0.195675
vt 0.354306 0.124388
vt 0.578265 0.124388
vt 0.578265 0.160032
vt 0.354306 0.160032
vt 0.578265 0.195675
vt 0.354306 0.195675
vt 0.613908 0.160032
vt 0.613908 0.195675
vt 0.578265 0.231318
vt 0.354306 0.231318
vt 0.354306 0.088745
vt 0.578265 0.088745
vt 0.318663 0.160032
vt 0.318663 0.195675
vt 0.276466 0.255870
vt 0.276465 0.081719
vt 0.329397 0.081719
vt 0.329398 0.255869
vt 0.382330 0.255869
vt 0.382330 0.081719
vt 0.435262 0.081719
vt 0.435262 0.255870
vt 0.594057 0.255869
vt 0.594057 0.081719
vt 0.646989 0.081719
vt 0.646989 0.255869
vt 0.488193 0.081719
vt 0.488193 0.255870
vt 0.223534 0.255870
vt 0.223533 0.081719
vt 0.541125 0.255869
vt 0.541125 0.081719
vt 0.151862 0.150516
vt 0.113139 0.165638
vt 0.075496 0.148112
vt 0.060821 0.109068
vt 0.077407 0.070927
vt 0.116187 0.056194
vt 0.154173 0.073090
vt 0.168648 0.112269
vt 0.075828 0.149261
vt 0.060711 0.110756
vt 0.077764 0.072947
vt 0.116463 0.056870
vt 0.154774 0.073831
vt 0.170094 0.112592
vt 0.153281 0.150575
vt 0.114232 0.164998
vt 0.192713 0.112365
vt 0.168729 0.168129
vt 0.112402 0.189036
vt 0.058598 0.164616
vt 0.037074 0.109098
vt 0.060506 0.054257
vt 0.116162 0.032395
vt 0.171062 0.056242
vt 0.059186 0.165591
vt 0.036989 0.110857
vt 0.113839 0.189226
vt 0.170214 0.167482
vt 0.193937 0.112342
vt 0.171442 0.056889
vt 0.116750 0.033362
vt 0.060841 0.055489
vt 0.544303 0.221272
vt 0.370153 0.221272
vt 0.370153 0.205879
vt 0.544303 0.205879
vt 0.544303 0.190486
vt 0.370153 0.190485
vt 0.370153 0.175092
vt 0.544303 0.175092
vt 0.544303 0.128912
vt 0.370153 0.128912
vt 0.370153 0.113519
vt 0.544303 0.113519
vt 0.370153 0.159699
vt 0.544303 0.159699
vt 0.544303 0.236666
vt 0.370153 0.236666
vt 0.544303 0.144305
vt 0.370153 0.144305
vt 0.755729 0.333389
vt 0.744105 0.333490
vt 0.735769 0.325410
vt 0.735707 0.313842
vt 0.743730 0.305553
vt 0.755288 0.305533
vt 0.763670 0.313520
vt 0.763835 0.325091
vt 0.794876 0.314140
vt 0.803049 0.305932
vt 0.814631 0.306166
vt 0.822665 0.314544
vt 0.822698 0.326134
vt 0.814475 0.334237
vt 0.802932 0.334113
vt 0.794910 0.325748
vt 0.532256 0.322377
vt 0.540103 0.314344
vt 0.545817 0.316474
vt 0.534694 0.328093
vt 0.521003 0.322474
vt 0.518611 0.328093
vt 0.512934 0.314653
vt 0.507317 0.316886
vt 0.512873 0.303454
vt 0.507360 0.301101
vt 0.520640 0.295430
vt 0.518331 0.290000
vt 0.531829 0.295410
vt 0.533938 0.289800
vt 0.539944 0.303142
vt 0.545416 0.300593
vt 0.579949 0.295921
vt 0.572119 0.303784
vt 0.566085 0.301302
vt 0.577580 0.290051
vt 0.572151 0.314905
vt 0.566275 0.317458
vt 0.579837 0.322919
vt 0.577512 0.328781
vt 0.590896 0.323038
vt 0.593214 0.328781
vt 0.598774 0.315275
vt 0.604516 0.317880
vt 0.598743 0.304171
vt 0.604744 0.301930
vt 0.591045 0.296144
vt 0.593664 0.290169
vn 0.7556 0.0000 0.6551
vn -0.6551 0.0000 0.7556
vn 0.0000 -1.0000 0.0000
vn 0.6551 0.0000 -0.7556
vn -0.7556 0.0000 -0.6551
vn 0.0000 1.0000 -0.0000
vn 0.4632 -0.7071 -0.5343
vn -0.9913 -0.0000 0.1313
vn -0.8477 0.5294 -0.0344
vn -0.3161 -0.0000 0.9487
vn -0.1388 0.6533 0.7443
vn -0.4632 0.7071 0.5343
vn -0.5009 0.7486 -0.4343
vn 0.2891 0.9239 0.2507
vn 0.4632 0.7071 -0.5343
vn -0.1542 0.5294 -0.8343
vn 0.7171 0.6533 -0.2429
vn -0.4632 -0.7071 0.5343
vn -0.0105 -0.0000 -0.9999
vn 0.8944 -0.0000 -0.4474
vn -0.1542 -0.5294 -0.8343
vn 0.7171 -0.6533 -0.2429
vn -0.5009 -0.7486 -0.4343
vn 0.2891 -0.9239 0.2507
vn -0.8477 -0.5294 -0.0344
vn -0.1388 -0.6533 0.7443
vn 0.1542 0.5294 0.8343
vn 0.0105 0.0000 0.9999
vn -0.7171 0.6533 0.2429
vn -0.8944 -0.0000 0.4474
vn 0.5009 0.7486 0.4343
vn -0.2891 0.9239 -0.2507
vn 0.8477 0.5294 0.0344
vn 0.1388 0.6533 -0.7443
vn 0.9913 -0.0000 -0.1313
vn 0.3161 -0.0000 -0.9487
vn 0.8477 -0.5294 0.0344
vn 0.1388 -0.6533 -0.7443
vn 0.5009 -0.7486 0.4343
vn -0.2891 -0.9239 -0.2507
vn 0.1542 -0.5294 0.8343
vn -0.7171 -0.6533 0.2429
vn -0.8829 0.4206 -0.2088
vn -0.9970 -0.0000 -0.0771
vn -0.6073 0.5949 -0.5266
vn -0.3318 0.4206 -0.8444
vn -0.2177 0.0000 -0.9760
vn -0.3318 -0.4206 -0.8444
vn -0.6073 -0.5949 -0.5266
vn -0.8829 -0.4206 -0.2088
vn 0.2176 0.0000 0.9760
vn 0.3318 0.4206 0.8444
vn 0.6073 0.5949 0.5266
vn 0.8829 0.4206 0.2087
vn 0.9970 0.0000 0.0771
vn 0.8829 -0.4206 0.2087
vn 0.6073 -0.5949 0.5266
vn 0.3318 -0.4206 0.8444
vn -0.8861 0.3818 -0.2628
vn -0.9897 0.0000 -0.1433
vn -0.6359 0.5400 -0.5513
vn -0.3858 0.3818 -0.8399
vn -0.2822 0.0000 -0.9594
vn -0.3858 -0.3818 -0.8399
vn -0.6359 -0.5400 -0.5513
vn -0.8861 -0.3818 -0.2628
vn 0.2151 0.0000 0.9766
vn 0.3297 0.4221 0.8445
vn 0.6062 0.5969 0.5256
vn 0.8827 0.4221 0.2066
vn 0.9972 0.0000 0.0745
vn 0.8827 -0.4221 0.2066
vn 0.6062 -0.5970 0.5255
vn 0.3297 -0.4221 0.8445
s 1
f 6/1/1 8/2/1 7/3/1 5/4/1
f 8/5/2 4/6/2 3/7/2 7/8/2
f 5/9/3 7/10/3 3/11/3 1/12/3
f 6/13/4 5/14/4 1/15/4 2/16/4
f 2/17/5 1/18/5 3/19/5 4/20/5
f 6/21/6 2/22/6 4/23/6 8/24/6
f 50/25/7 25/26/7 22/27/4 47/28/4
f 21/29/5 11/30/8 14/31/9
f 10/32/2 9/33/10 12/34/11 13/35/12
f 11/36/8 10/32/2 13/35/12 14/37/9
f 21/29/5 14/31/9 17/38/13
f 13/35/12 12/34/11 15/39/14 16/40/6
f 14/37/9 13/35/12 16/40/6 17/41/13
f 43/42/15 18/43/15 15/39/6 40/44/6
f 21/29/5 17/38/13 20/45/16
f 16/40/6 15/39/14 18/43/17 19/46/15
f 17/41/13 16/40/6 19/46/15 20/47/16
f 56/48/18 31/49/18 28/50/3 53/51/3
f 21/29/5 20/45/16 24/52/19
f 19/46/15 18/43/17 22/27/20 23/53/4
f 20/47/16 19/46/15 23/53/4 24/54/19
f 24/54/19 23/53/4 26/55/7 27/56/21
f 40/44/6 15/39/6 12/34/12 37/57/12
f 21/29/5 24/52/19 27/58/21
f 23/53/4 22/27/20 25/26/22 26/55/7
f 27/56/21 26/55/7 29/59/3 30/60/23
f 47/28/4 22/27/4 18/43/15 43/42/15
f 21/29/5 27/58/21 30/61/23
f 26/55/7 25/26/22 28/62/24 29/59/3
f 30/63/23 29/64/3 32/65/18 33/66/25
f 53/67/3 28/62/3 25/26/7 50/25/7
f 21/29/5 30/61/23 33/68/25
f 29/64/3 28/50/24 31/49/26 32/65/18
f 33/66/25 32/65/18 10/32/2 11/36/8
f 34/69/2 9/33/2 31/49/18 56/48/18
f 21/29/5 33/68/25 11/30/8
f 32/65/18 31/49/26 9/33/10 10/32/2
f 46/70/1 39/71/27 36/72/28
f 35/73/2 38/74/12 37/57/29 34/69/30
f 36/75/28 39/76/27 38/74/12 35/73/2
f 46/70/1 42/77/31 39/71/27
f 38/74/12 41/78/6 40/44/32 37/57/29
f 39/76/27 42/79/31 41/78/6 38/74/12
f 46/70/1 45/80/33 42/77/31
f 41/78/6 44/81/15 43/42/34 40/44/32
f 42/79/31 45/82/33 44/81/15 41/78/6
f 46/70/1 49/83/35 45/80/33
f 44/81/15 48/84/4 47/28/36 43/42/34
f 45/82/33 49/85/35 48/84/4 44/81/15
f 49/85/35 52/86/37 51/87/7 48/84/4
f 46/70/1 52/88/37 49/83/35
f 48/84/4 51/87/7 50/25/38 47/28/36
f 52/86/37 55/89/39 54/90/3 51/87/7
f 46/70/1 55/91/39 52/88/37
f 51/87/7 54/90/3 53/67/40 50/25/38
f 55/92/39 58/93/41 57/94/18 54/95/3
f 46/70/1 58/96/41 55/91/39
f 54/95/3 57/94/18 56/48/42 53/51/40
f 58/93/41 36/75/28 35/73/2 57/94/18
f 46/70/1 36/72/28 58/96/41
f 57/94/18 35/73/2 34/69/30 56/48/42
f 37/57/12 12/34/12 9/33/2 34/69/2
f 59/97/2 60/98/2 62/99/5 61/100/5
f 61/100/5 62/99/5 64/101/4 63/102/4
f 62/99/6 60/103/6 66/104/6 64/101/6
f 63/102/4 64/101/4 66/105/1 65/106/1
f 65/107/1 66/108/1 60/98/2 59/97/2
f 59/109/3 61/100/3 63/102/3 65/110/3
f 67/111/2 68/112/2 70/113/5 69/114/5
f 69/114/5 70/113/5 72/115/4 71/116/4
f 70/113/6 68/117/6 74/118/6 72/115/6
f 71/116/4 72/115/4 74/119/1 73/120/1
f 73/121/1 74/122/1 68/112/2 67/111/2
f 67/123/3 69/114/3 71/116/3 73/124/3
f 75/125/2 76/126/2 78/127/5 77/128/5
f 77/128/5 78/127/5 80/129/4 79/130/4
f 78/127/6 76/131/6 82/132/6 80/129/6
f 79/130/4 80/129/4 82/133/1 81/134/1
f 81/135/1 82/136/1 76/126/2 75/125/2
f 75/137/3 77/128/3 79/130/3 81/138/3
f 112/139/7 104/140/7 103/141/4 111/142/4
f 110/143/15 102/144/15 101/145/6 109/146/6
f 114/147/18 106/148/18 105/149/3 113/150/3
f 109/146/6 101/145/6 99/151/12 107/152/12
f 111/142/4 103/141/4 102/144/15 110/143/15
f 113/153/3 105/154/3 104/140/7 112/139/7
f 108/155/2 100/156/2 106/148/18 114/147/18
f 107/152/12 99/151/12 100/156/2 108/155/2
f 84/157/5 85/158/5 86/159/5 87/160/5 88/161/5 89/162/5 90/163/5 83/164/5
f 92/165/1 91/166/1 98/167/1 97/168/1 96/169/1 95/170/1 94/171/1 93/172/1
f 84/157/43 83/164/44 100/173/44 99/174/43
f 85/158/45 84/157/43 99/174/43 101/175/45
f 86/159/46 85/158/45 101/175/45 102/176/46
f 87/160/47 86/159/46 102/176/46 103/177/47
f 88/161/48 87/160/47 103/177/47 104/178/48
f 89/162/49 88/161/48 104/178/48 105/179/49
f 90/163/50 89/162/49 105/179/49 106/180/50
f 83/164/44 90/163/50 106/180/50 100/173/44
f 91/166/51 92/165/52 107/181/52 108/182/51
f 92/165/52 93/172/53 109/183/53 107/181/52
f 93/172/53 94/171/54 110/184/54 109/183/53
f 94/171/54 95/170/55 111/185/55 110/184/54
f 95/170/55 96/169/56 112/186/56 111/185/55
f 96/169/56 97/168/57 113/187/57 112/186/56
f 97/168/57 98/167/58 114/188/58 113/187/57
f 98/167/58 91/166/51 108/182/51 114/188/58
f 144/189/7 136/190/7 135/191/4 143/192/4
f 142/193/15 134/194/15 133/195/6 141/196/6
f 146/197/18 138/198/18 137/199/3 145/200/3
f 141/196/6 133/195/6 131/201/12 139/202/12
f 143/192/4 135/191/4 134/194/15 142/193/15
f 145/203/3 137/204/3 136/190/7 144/189/7
f 140/205/2 132/206/2 138/198/18 146/197/18
f 139/202/12 131/201/12 132/206/2 140/205/2
f 116/207/5 117/208/5 118/209/5 119/210/5 120/211/5 121/212/5 122/213/5 115/214/5
f 124/215/1 123/216/1 130/217/1 129/218/1 128/219/1 127/220/1 126/221/1 125/222/1
f 116/223/59 115/224/60 132/225/60 131/226/59
f 117/227/61 116/223/59 131/226/59 133/228/61
f 118/229/62 117/227/61 133/228/61 134/230/62
f 119/231/63 118/229/62 134/230/62 135/232/63
f 120/233/64 119/231/63 135/232/63 136/234/64
f 121/235/65 120/233/64 136/234/64 137/236/65
f 122/237/66 121/235/65 137/236/65 138/238/66
f 115/224/60 122/237/66 138/238/66 132/225/60
f 123/239/67 124/240/68 139/241/68 140/242/67
f 124/240/68 125/243/69 141/244/69 139/241/68
f 125/243/69 126/245/70 142/246/70 141/244/69
f 126/245/70 127/247/71 143/248/71 142/246/70
f 127/247/71 128/249/72 144/250/72 143/248/71
f 128/249/72 129/251/73 145/252/73 144/250/72
f 129/251/73 130/253/74 146/254/74 145/252/73
f 130/253/74 123/239/67 140/242/67 146/254/74
