# Blender v3.1.2 OBJ File: 'Scene.blend'
# www.blender.org
o DumpsterDoorLeft_A.001_DumpsterDoorLeft.001
v -1.254025 -0.567284 -0.921158
v -0.018093 0.000000 -0.921158
v -1.254025 -0.567284 -0.001904
v -0.018093 0.000000 -0.001904
v -0.018093 0.000000 -0.546726
v -0.018093 0.000000 -0.376337
v -1.254025 -0.567284 -0.376337
v -1.254025 -0.567284 -0.546726
v -0.052740 -0.015903 -0.884676
v -1.219377 -0.551381 -0.884676
v -0.052740 -0.015903 -0.038387
v -1.219377 -0.551381 -0.038387
v -0.052740 -0.015903 -0.376337
v -0.052740 -0.015903 -0.546726
v -1.219377 -0.551381 -0.546726
v -1.219377 -0.551381 -0.376337
v -0.063426 0.007379 -0.884676
v -1.230064 -0.528099 -0.884676
v -0.063426 0.007379 -0.038387
v -1.230064 -0.528099 -0.038387
v -0.063426 0.007379 -0.376337
v -0.063426 0.007379 -0.546726
v -1.230064 -0.528099 -0.546726
v -1.230064 -0.528099 -0.376337
v -0.636059 -0.283642 -0.884676
v -0.636059 -0.283642 -0.038387
v -0.636059 -0.283642 -0.921158
v -0.636059 -0.283642 -0.001904
v -0.668072 -0.216182 -0.884676
v -0.668072 -0.216182 -0.038387
v -0.668072 -0.216182 -0.546726
v -0.668072 -0.216182 -0.376337
v -1.242345 -0.592731 -0.921158
v -0.006413 -0.025446 -0.921158
v -1.242345 -0.592731 -0.001904
v -0.006413 -0.025446 -0.001904
v -0.006413 -0.025446 -0.546726
v -0.006413 -0.025446 -0.376337
v -1.242345 -0.592731 -0.376337
v -1.242345 -0.592731 -0.546726
v -0.049848 -0.042442 -0.876234
v -1.201140 -0.570877 -0.876234
v -0.049848 -0.042442 -0.046829
v -1.201140 -0.570877 -0.046829
v -0.062475 -0.042155 -0.376337
v -0.062475 -0.042155 -0.546726
v -1.193125 -0.561116 -0.546726
v -1.193125 -0.561116 -0.376337
v -0.072153 -0.013662 -0.868396
v -1.208419 -0.535198 -0.868395
v -0.072153 -0.013662 -0.054667
v -1.208419 -0.535198 -0.054668
v -0.074153 -0.018483 -0.376337
v -0.074153 -0.018483 -0.546726
v -1.203458 -0.536824 -0.546726
v -1.203458 -0.536824 -0.376337
v -0.627800 -0.301636 -0.864878
v -0.627800 -0.301636 -0.058185
v -0.624379 -0.309089 -0.921158
v -0.624379 -0.309089 -0.001904
v -0.659620 -0.234591 -0.865347
v -0.659620 -0.234591 -0.057716
v -0.656389 -0.241628 -0.546726
v -0.656389 -0.241628 -0.376337
v -1.294438 -0.585833 -0.527631
v -1.294438 -0.585833 -0.395432
v -1.282758 -0.611280 -0.527631
v -1.282758 -0.611280 -0.395432
vt 0.079302 0.649074
vt 0.079302 0.468874
vt 0.065651 0.468874
vt 0.065651 0.649074
vt 0.079302 0.378020
vt 0.079302 0.197820
vt 0.065651 0.197820
vt 0.065651 0.378020
vt 0.068566 0.446782
vt 0.068566 0.149272
vt 0.056674 0.149285
vt 0.033906 0.447263
vt 0.956583 0.456692
vt 0.956583 0.788862
vt 0.975464 0.808592
vt 0.975464 0.456692
vt 0.053581 0.462259
vt 0.053581 0.120025
vt 0.034128 0.099698
vt 0.034128 0.462259
vt 0.905204 0.406930
vt 0.905204 0.495112
vt 0.924933 0.495112
vt 0.924933 0.406930
vt 0.862358 0.492820
vt 0.862358 0.404637
vt 0.842629 0.404637
vt 0.842629 0.492820
vt 0.862358 0.229736
vt 0.842629 0.210855
vt 0.905204 0.232028
vt 0.924933 0.213147
vt 0.862358 0.667721
vt 0.842629 0.686602
vt 0.905204 0.670014
vt 0.924933 0.688895
vt 0.025436 0.505643
vt 0.025435 0.029502
vt 0.402840 0.029502
vt 0.402841 0.505643
vt 0.593121 0.505643
vt 0.593121 0.980378
vt 0.402841 0.980378
vt 0.593121 0.029502
vt 0.970526 0.029502
vt 0.970526 0.505643
vt 0.092954 0.468874
vt 0.092954 0.378020
vt 0.079302 0.378020
vt 0.079302 0.468874
vt 0.103225 0.446795
vt 0.103225 0.149285
vt 0.091333 0.149272
vt 0.068566 0.446315
vt 0.092954 0.649074
vt 0.079302 0.649074
vt 0.092954 0.197820
vt 0.079302 0.197820
vt 0.103225 0.744306
vt 0.091333 0.744293
vt 0.970526 0.980378
vt 0.025436 0.980378
vt 0.053581 0.804492
vt 0.034128 0.824820
vt 0.956583 0.124522
vt 0.975464 0.104792
vt 0.068566 0.744293
vt 0.056674 0.744306
vt 0.046602 0.197820
vt 0.027551 0.202000
vt 0.029371 0.373519
vt 0.043446 0.373519
vt 0.043446 0.464373
vt 0.029371 0.464373
vt 0.027551 0.635891
vt 0.046602 0.640071
vt 0.156201 0.443167
vt 0.121758 0.442676
vt 0.142337 0.732824
vt 0.158868 0.736467
vt 0.064138 0.462259
vt 0.034128 0.462259
vt 0.034128 0.824820
vt 0.058082 0.799990
vt 0.946337 0.456692
vt 0.975464 0.456692
vt 0.975464 0.104792
vt 0.952214 0.128891
vt 0.894957 0.495112
vt 0.924933 0.495112
vt 0.924933 0.406930
vt 0.894957 0.406930
vt 0.872605 0.404637
vt 0.842629 0.404637
vt 0.842629 0.492820
vt 0.872605 0.492820
vt 0.842629 0.686602
vt 0.866728 0.663352
vt 0.900834 0.665645
vt 0.924933 0.688895
vt 0.866728 0.234105
vt 0.842629 0.210855
vt 0.924933 0.213147
vt 0.900834 0.236397
vt 0.963253 0.504089
vt 0.595738 0.504089
vt 0.595738 0.978785
vt 0.966770 0.981706
vt 0.399201 0.504089
vt 0.595738 0.030845
vt 0.399201 0.030845
vt 0.031686 0.504089
vt 0.028169 0.981706
vt 0.399201 0.978785
vt 0.049757 0.464372
vt 0.063831 0.464372
vt 0.063831 0.373518
vt 0.049757 0.373518
vt 0.119090 0.442572
vt 0.084648 0.443063
vt 0.105226 0.732444
vt 0.121758 0.736467
vt 0.046602 0.640071
vt 0.065651 0.635892
vt 0.065651 0.201999
vt 0.046602 0.197820
vt 0.121758 0.149272
vt 0.105227 0.152914
vt 0.028170 0.027923
vt 0.966769 0.027923
vt 0.952214 0.784493
vt 0.975464 0.808592
vt 0.058082 0.124527
vt 0.034128 0.099698
vt 0.158868 0.149272
vt 0.142336 0.153294
vt 0.116222 0.779650
vt 0.116222 0.464468
vt 0.103225 0.464454
vt 0.103225 0.779636
vt 0.116222 0.464468
vt 0.116222 0.779650
vt 0.129220 0.779636
vt 0.129220 0.464454
vt 0.129220 0.323117
vt 0.129220 0.402227
vt 0.142212 0.402227
vt 0.142212 0.323117
vt 0.152642 0.197924
vt 0.137716 0.197820
vt 0.137716 0.222072
vt 0.152642 0.222176
vt 0.107875 0.197820
vt 0.107875 0.397473
vt 0.122795 0.397473
vt 0.122795 0.197820
vt 0.129220 0.149272
vt 0.142212 0.149272
vt 0.107875 0.397473
vt 0.107875 0.197820
vt 0.092954 0.197820
vt 0.092954 0.397473
vt 0.129220 0.576072
vt 0.142212 0.576072
vt 0.116222 0.149286
vt 0.103225 0.149272
vt 0.116222 0.149286
vt 0.129220 0.149272
vt 0.122795 0.197820
vt 0.122795 0.268310
vt 0.137716 0.268310
vt 0.137716 0.197820
vt 0.819615 0.414520
vt 0.819615 0.482938
vt 0.819615 0.414520
vt 0.819615 0.482938
vt 0.152642 0.222176
vt 0.167569 0.222072
vt 0.167569 0.197820
vt 0.152642 0.197923
vn -0.9088 -0.4172 0.0000
vn 0.0000 0.0000 1.0000
vn -0.4172 0.9088 0.0000
vn -0.4171 0.9088 0.0000
vn -0.4173 0.9088 0.0000
vn -0.3468 0.9379 0.0000
vn -0.4853 0.8744 0.0000
vn 0.9088 0.4171 -0.0000
vn 0.0000 0.0000 -1.0000
vn 0.9584 0.2844 -0.0227
vn 0.9410 0.3383 -0.0114
vn 0.9410 0.3382 -0.0114
vn 0.9410 0.3382 0.0114
vn 0.9410 0.3383 0.0114
vn 0.9584 0.2844 0.0227
vn 0.0278 -0.0603 -0.9978
vn 0.0276 -0.0604 -0.9978
vn 0.0356 -0.0566 -0.9978
vn 0.4148 -0.9038 0.1053
vn 0.3675 -0.9284 0.0548
vn 0.3687 -0.9279 0.0561
vn 0.4148 -0.9038 -0.1053
vn 0.4644 -0.8839 -0.0548
vn 0.4632 -0.8845 -0.0561
vn 0.3043 -0.9526 0.0031
vn 0.3045 -0.9525 0.0031
vn 0.3045 -0.9525 -0.0031
vn 0.3043 -0.9526 -0.0031
vn 0.5239 -0.8518 -0.0031
vn 0.4956 -0.8686 -0.0023
vn 0.4956 -0.8686 0.0023
vn 0.5239 -0.8518 0.0031
vn 0.4644 -0.8839 0.0548
vn 0.4632 -0.8845 0.0561
vn 0.3675 -0.9284 -0.0548
vn 0.3687 -0.9279 -0.0561
vn 0.4172 -0.9086 0.0180
vn 0.4172 -0.9088 0.0090
vn 0.3564 -0.9343 0.0090
vn 0.3548 -0.9348 0.0180
vn 0.4172 -0.9088 -0.0090
vn 0.4763 -0.8793 0.0090
vn 0.4763 -0.8793 -0.0090
vn 0.4172 -0.9086 -0.0180
vn 0.3548 -0.9348 -0.0180
vn 0.3564 -0.9343 -0.0090
vn -0.8700 -0.4929 0.0114
vn -0.8701 -0.4928 0.0114
vn -0.8701 -0.4928 -0.0114
vn -0.8700 -0.4929 -0.0114
vn 0.0278 -0.0603 0.9978
vn 0.0276 -0.0604 0.9978
vn 0.0197 -0.0641 0.9977
vn -0.8406 -0.5412 0.0226
vn -0.8406 -0.5412 -0.0226
vn 0.0356 -0.0566 0.9978
vn 0.4776 -0.8784 -0.0180
vn 0.4776 -0.8784 0.0180
vn 0.0197 -0.0641 -0.9977
vn -0.3586 -0.1646 0.9189
vn -0.9088 -0.4171 0.0000
vn 0.4171 -0.9088 0.0000
vn -0.3586 -0.1646 -0.9189
s 1
f 10/1/1 15/2/1 23/3/1 18/4/1
f 16/5/1 12/6/1 20/7/1 24/8/1
f 26/9/2 11/10/2 19/11/2 30/12/2
f 25/13/3 9/14/3 2/15/3 27/16/3
f 26/17/3 12/18/3 3/19/3 28/20/3
f 14/21/3 13/22/3 6/23/3 5/24/3
f 16/25/3 15/26/3 8/27/4 7/28/4
f 15/26/3 10/29/3 1/30/3 8/27/4
f 9/31/3 14/21/3 5/24/3 2/32/3
f 12/33/3 16/25/3 7/28/4 3/34/3
f 13/22/3 11/35/3 4/36/3 6/23/3
f 30/37/5 19/38/6 21/39/6 32/40/5
f 31/41/5 23/42/7 24/43/7 32/40/5
f 31/41/5 22/44/6 17/45/6 29/46/5
f 15/2/1 16/5/1 24/8/1 23/3/1
f 13/47/8 14/48/8 22/49/8 21/50/8
f 25/51/9 10/52/9 18/53/9 29/54/9
f 11/55/8 13/47/8 21/50/8 19/56/8
f 14/48/8 9/57/8 17/58/8 22/49/8
f 9/59/9 25/51/9 29/54/9 17/60/9
f 23/42/7 31/41/5 29/46/5 18/61/7
f 22/44/6 31/41/5 32/40/5 21/39/6
f 20/62/7 30/37/5 32/40/5 24/43/7
f 11/63/3 26/17/3 28/20/3 4/64/3
f 10/65/3 25/13/3 27/16/3 1/66/3
f 12/67/2 26/9/2 30/12/2 20/68/2
f 42/69/10 50/70/10 55/71/11 47/72/12
f 48/73/13 56/74/14 52/75/15 44/76/15
f 58/77/16 62/78/17 51/79/18 43/80/18
f 57/81/19 59/82/19 34/83/20 41/84/21
f 58/85/22 60/86/22 35/87/23 44/88/24
f 46/89/25 37/90/26 38/91/27 45/92/28
f 48/93/29 39/94/30 40/95/31 47/96/32
f 47/96/32 40/95/31 33/97/33 42/98/34
f 41/99/21 34/100/20 37/90/26 46/89/25
f 44/101/24 35/102/23 39/94/30 48/93/29
f 45/92/28 38/91/27 36/103/35 43/104/36
f 62/105/37 64/106/38 53/107/39 51/108/40
f 63/109/41 64/106/38 56/110/42 55/111/43
f 63/109/41 61/112/44 49/113/45 54/114/46
f 47/72/12 55/71/11 56/74/14 48/73/13
f 45/115/47 53/116/48 54/117/49 46/118/50
f 57/119/51 61/120/52 50/121/53 42/122/53
f 43/123/54 51/124/54 53/116/48 45/115/47
f 46/118/50 54/117/49 49/125/55 41/126/55
f 41/127/56 49/128/56 61/120/52 57/119/51
f 55/111/43 50/129/57 61/112/44 63/109/41
f 54/114/46 53/107/39 64/106/38 63/109/41
f 52/130/58 56/110/42 64/106/38 62/105/37
f 43/131/36 36/132/35 60/86/22 58/85/22
f 42/133/34 33/134/33 59/82/19 57/81/19
f 44/135/59 52/136/59 62/78/17 58/77/16
f 1/137/9 27/138/9 59/139/9 33/140/9
f 28/141/2 3/142/2 35/143/2 60/144/2
f 5/145/8 6/146/8 38/147/8 37/148/8
f 39/149/60 7/150/60 66/151/60 68/152/60
f 8/153/61 1/154/61 33/155/61 40/156/61
f 2/157/8 5/145/8 37/148/8 34/158/8
f 3/159/61 7/160/61 39/161/61 35/162/61
f 6/146/8 4/163/8 36/164/8 38/147/8
f 27/138/9 2/165/9 34/166/9 59/139/9
f 4/167/2 28/141/2 60/144/2 36/168/2
f 66/169/61 65/170/61 67/171/61 68/172/61
f 40/95/31 39/94/30 68/173/62 67/174/62
f 7/28/4 8/27/4 65/175/4 66/176/4
f 8/177/63 40/178/63 67/179/63 65/180/63
