# Blender v3.1.2 OBJ File: 'Scene.blend'
# www.blender.org
o Dumpster_Dumpster.001
v 1.044047 0.000000 -0.901739
v 1.044047 1.435932 -0.901739
v -0.784753 0.000000 -0.901739
v -0.737160 1.168976 -0.871943
v 0.000000 0.000000 -0.901739
v 0.325605 1.659596 -0.871943
v -0.784753 0.460454 -0.917389
v -0.784753 0.708510 -0.917389
v 1.044047 0.418279 -0.901739
v 1.044047 0.750685 -0.901739
v 0.000000 0.508506 -0.972835
v -0.784753 0.508506 -0.972835
v 0.000000 0.708510 -0.917389
v 0.000000 0.460454 -0.917389
v 0.000000 0.660458 -0.972835
v -0.784753 0.660458 -0.972835
v -0.784753 0.418279 -0.901739
v -0.784753 0.493457 -0.988485
v 0.000000 0.493457 -0.988485
v 0.000000 0.418279 -0.901739
v 0.000000 0.675507 -0.988485
v -0.784753 0.675507 -0.988485
v -0.784753 0.750685 -0.901739
v 0.000000 0.750685 -0.901739
v -0.731939 0.545680 -0.871944
v 0.983277 0.920310 -0.870459
v -0.731939 0.603126 -0.871944
v 0.990422 1.399003 -0.870443
v 0.455150 1.636702 -0.901826
v -0.787875 1.055764 -0.901483
v 0.310073 1.517698 -0.901975
v 0.455149 1.578688 -0.901717
v -0.818809 1.130940 -0.923025
v 0.405620 1.696591 -0.927961
v 0.452953 1.667755 -0.930251
v -0.815442 1.047608 -0.925029
v 0.307902 1.520953 -0.930500
v 0.452954 1.582059 -0.931104
v 1.044047 0.000000 0.901739
v 1.044047 1.435932 0.901739
v -0.784753 0.000000 0.901739
v -0.737160 1.168976 0.871943
v 0.000000 0.000000 0.901739
v 0.325605 1.659596 0.871943
v -0.784753 0.460454 0.917389
v -0.784753 0.708510 0.917389
v 1.044047 0.418279 0.901739
v 1.044047 0.750685 0.901739
v 0.000000 0.508506 0.972835
v -0.784753 0.508506 0.972835
v 0.000000 0.708510 0.917389
v 0.000000 0.460454 0.917389
v 0.000000 0.660458 0.972835
v -0.784753 0.660458 0.972835
v -0.784753 0.418279 0.901739
v -0.784753 0.493457 0.988485
v 0.000000 0.493457 0.988485
v 0.000000 0.418279 0.901739
v 0.000000 0.675507 0.988485
v -0.784753 0.675507 0.988485
v -0.784753 0.750685 0.901739
v 0.000000 0.750685 0.901739
v -0.731939 0.545680 0.871944
v 0.983277 0.920310 0.870459
v -0.731939 0.603126 0.871944
v 0.990422 1.399003 0.870443
v 0.455150 1.636702 0.901826
v -0.787875 1.055764 0.901483
v 0.310073 1.517698 0.901975
v 0.455149 1.578688 0.901717
v -0.818809 1.130940 0.923025
v 0.405620 1.696591 0.927961
v 0.452953 1.667755 0.930251
v -0.815442 1.047608 0.925029
v 0.307902 1.520953 0.930500
v 0.452954 1.582059 0.931104
v 0.423130 1.754601 -0.971780
v 0.441223 1.736508 -0.971738
v 0.423130 1.718414 -0.971780
v 0.405037 1.736508 -0.971821
v 0.422947 1.674453 -0.891645
v 0.423014 1.674453 -0.920747
v 0.404854 1.674453 -0.891686
v 0.404920 1.674453 -0.920789
v 0.422947 1.754601 -0.891645
v 0.423014 1.754601 -0.920747
v 0.441107 1.736508 -0.920706
v 0.441041 1.736508 -0.891604
v 0.423014 1.718414 -0.920747
v 0.422947 1.718414 -0.891645
v 0.404920 1.736508 -0.920789
v 0.404854 1.736508 -0.891686
v 0.441107 1.674453 -0.920706
v 0.441041 1.674453 -0.891604
v 0.418701 1.754601 0.973696
v 0.436794 1.736508 0.973737
v 0.418701 1.718414 0.973696
v 0.400608 1.736508 0.973654
v 0.418884 1.674453 0.893561
v 0.418817 1.674453 0.922663
v 0.400790 1.674453 0.893520
v 0.400724 1.674453 0.922622
v 0.418884 1.754601 0.893561
v 0.418817 1.754601 0.922663
v 0.436910 1.736508 0.922705
v 0.436977 1.736508 0.893602
v 0.418817 1.718414 0.922663
v 0.418884 1.718414 0.893561
v 0.400724 1.736508 0.922622
v 0.400790 1.736508 0.893520
v 0.436910 1.674453 0.922705
v 0.436977 1.674453 0.893602
vt 0.314792 -0.002585
vt 0.314792 0.155193
vt 0.610807 0.155193
vt 0.610807 -0.002585
vt 0.205419 0.335707
vt 0.680086 0.335707
vt 0.680086 0.445796
vt 0.205419 0.445796
vt 1.001924 0.379148
vt 0.326207 0.066909
vt 0.326207 0.044372
vt 0.999121 0.191347
vt 4.174407 0.834347
vt 3.854154 0.834347
vt 3.854154 0.648950
vt 4.174407 0.648950
vt 1.004628 0.155193
vt 1.004628 -0.002585
vt 0.314792 0.280579
vt 0.313615 0.395657
vt 0.727768 0.569902
vt 0.610807 0.280579
vt 0.782492 0.592908
vt 1.004628 0.280579
vt 0.314718 0.183551
vt 0.610732 0.183551
vt 0.223197 0.251599
vt 0.698072 0.251600
vt 0.698072 0.432032
vt 0.223197 0.432032
vt 0.610745 0.246545
vt 0.610793 0.264670
vt 0.314779 0.264670
vt 0.314732 0.246545
vt 0.610745 0.189227
vt 0.314732 0.189227
vt 0.610732 0.252222
vt 0.314718 0.252222
vt 0.680086 0.533284
vt 0.205419 0.533284
vt 0.247328 0.290781
vt 0.229201 0.275072
vt 0.224085 0.279991
vt 0.252444 0.304569
vt 0.228617 0.275072
vt 0.246744 0.290781
vt 0.251860 0.304569
vt 0.223501 0.279991
vt 0.228617 0.225395
vt 0.223501 0.220475
vt 0.229201 0.225395
vt 0.224085 0.220475
vt 0.247328 0.209685
vt 0.252444 0.195897
vt 0.246744 0.209685
vt 0.251860 0.195897
vt 0.610793 0.171102
vt 0.314779 0.171102
vt 0.171671 0.002892
vt 0.907542 0.002892
vt 0.858499 0.030944
vt 0.219875 0.033278
vt 1.004459 0.049647
vt 0.053021 0.049648
vt 0.025151 0.000505
vt 1.032328 0.000505
vt 0.212570 0.599552
vt 0.212570 0.449338
vt 0.675495 0.449338
vt 0.675494 0.599552
vt 0.741102 0.481384
vt 0.324159 0.288904
vt 0.229738 0.395931
vt 0.691814 0.395931
vt 0.692212 0.585463
vt 0.229340 0.585463
vt 0.968483 0.629258
vt 0.968510 0.597285
vt 0.984746 0.599187
vt 0.984149 0.646415
vt 0.357350 0.438443
vt 0.385086 0.436921
vt 0.385503 0.441986
vt 0.357771 0.443661
vt 0.782492 0.614791
vt 1.004628 0.539060
vt 0.764740 0.663792
vt 0.744050 0.615438
vt 0.647452 0.615979
vt 0.744998 0.691489
vt -0.100669 0.620106
vt -0.082447 0.667938
vt 0.595030 0.424971
vt 0.600303 0.428874
vt 0.766361 0.618085
vt 0.765333 0.663165
vt -0.181191 0.663165
vt -0.182218 0.618085
vt -0.012799 0.676153
vt -0.014028 0.646417
vt 0.982921 0.676153
vt 0.223174 0.595859
vt 0.698094 0.595859
vt 0.001208 0.629267
vt 0.212570 0.434088
vt 0.675495 0.434088
vt 0.229734 0.268860
vt 0.691818 0.268860
vt 0.053025 0.047107
vt 0.022462 -0.000988
vt 1.035017 -0.000988
vt 1.004455 0.047107
vt 0.223197 0.164073
vt 0.698072 0.164074
vt 0.223197 0.053936
vt 0.698072 0.053936
vt 3.854154 0.509597
vt 4.174407 0.509598
vt 0.680019 0.613584
vt 0.205486 0.613584
vt 0.316341 -0.002585
vt 0.612356 -0.002585
vt 0.612356 0.155193
vt 0.316341 0.155193
vt 1.003479 0.379148
vt 1.000676 0.191347
vt 0.327765 0.044372
vt 0.327765 0.066909
vt 1.006176 -0.002585
vt 1.006176 0.155193
vt 0.316341 0.280579
vt 0.612356 0.280579
vt 0.729317 0.569902
vt 0.315163 0.395657
vt 1.006176 0.280579
vt 0.784040 0.592908
vt 0.612430 0.183551
vt 0.316416 0.183551
vt 0.612416 0.246545
vt 0.316402 0.246545
vt 0.316355 0.264671
vt 0.612369 0.264671
vt 0.612416 0.189227
vt 0.316402 0.189227
vt 0.316416 0.252222
vt 0.612430 0.252222
vt 0.246744 0.209685
vt 0.251860 0.195897
vt 0.223501 0.220475
vt 0.228617 0.225395
vt 0.229202 0.225395
vt 0.224085 0.220475
vt 0.252444 0.195897
vt 0.247328 0.209685
vt 0.229202 0.275072
vt 0.224085 0.279991
vt 0.223501 0.279991
vt 0.228617 0.275072
vt 0.246744 0.290781
vt 0.251860 0.304569
vt 0.252444 0.304569
vt 0.247328 0.290781
vt 0.316355 0.171102
vt 0.612369 0.171102
vt 0.895443 0.006541
vt 0.847237 0.036927
vt 0.208623 0.034592
vt 0.159581 0.006541
vt 0.742659 0.481384
vt 0.325716 0.288904
vt -0.015253 0.599797
vt 0.000751 0.597700
vt 0.347695 0.124909
vt 0.347876 0.119472
vt 0.376742 0.119848
vt 0.376559 0.125125
vt 1.006176 0.539060
vt 0.784041 0.614791
vt 0.767129 0.662770
vt 0.747382 0.690469
vt 0.649842 0.614957
vt 0.746442 0.614415
vt -0.080076 0.666924
vt -0.098292 0.619090
vt 0.600303 0.122903
vt 0.595023 0.127212
vt 0.163987 0.005669
vt 0.163952 0.026269
vt 0.153623 0.026253
vt 0.153658 0.005652
vt 0.174315 0.005687
vt 0.174281 0.026287
vt 0.143293 0.026235
vt 0.143328 0.005634
vt 0.202386 0.005617
vt 0.211851 0.005617
vt 0.211851 0.015082
vt 0.202386 0.015082
vt 0.132964 0.026218
vt 0.132999 0.005617
vt 0.163950 0.629987
vt 0.153618 0.629970
vt 0.153604 0.038002
vt 0.163933 0.038017
vt 0.174282 0.630003
vt 0.174265 0.038033
vt 0.143290 0.629955
vt 0.132957 0.629939
vt 0.132940 0.037969
vt 0.143273 0.037985
vt 0.118220 0.037941
vt 0.118240 0.026192
vt 0.195693 0.012310
vt 0.202386 0.005617
vt 0.202386 0.028572
vt 0.195693 0.028572
vt 0.195693 0.058219
vt 0.202386 0.051526
vt 0.202386 0.074481
vt 0.195693 0.074481
vt 0.189000 0.051526
vt 0.189000 0.074481
vt 0.189000 0.005617
vt 0.189000 0.028572
vt 0.189000 0.026310
vt 0.188981 0.038057
vt 0.163900 0.662336
vt 0.153571 0.662320
vt 0.153602 0.641720
vt 0.163931 0.641735
vt 0.174229 0.662352
vt 0.174260 0.641751
vt 0.143241 0.662305
vt 0.143272 0.641704
vt 0.202386 0.015082
vt 0.211851 0.015082
vt 0.211851 0.024547
vt 0.202386 0.024547
vt 0.132912 0.662289
vt 0.132943 0.641688
vt 0.118221 0.641667
vt 0.118239 0.629918
vt 0.195693 0.081174
vt 0.195693 0.097436
vt 0.189000 0.097436
vt 0.189000 0.074481
vt 0.195693 0.035265
vt 0.195693 0.051526
vt 0.189000 0.051526
vt 0.189000 0.028572
vt 0.202386 0.028572
vt 0.202386 0.051526
vt 0.202386 0.074481
vt 0.202386 0.097436
vt 0.189000 0.630027
vt 0.188981 0.641775
vn -0.0000 0.0000 -1.0000
vn -1.0000 0.0000 0.0000
vn -0.0009 0.0004 1.0000
vn -0.0009 -0.0000 1.0000
vn 0.0000 -1.0000 0.0000
vn -0.0003 0.0001 -1.0000
vn 0.0001 -0.0000 -1.0000
vn -0.0001 0.0000 -1.0000
vn 0.0000 -0.0001 -1.0000
vn 0.0001 -0.0001 -1.0000
vn 0.0000 -0.7557 -0.6549
vn 1.0000 0.0000 0.0000
vn 0.0000 -0.7557 0.6549
vn 0.0000 0.0000 1.0000
vn -0.0000 0.7557 -0.6549
vn -1.0000 -0.0040 0.0000
vn -0.0000 0.7557 0.6549
vn -0.4195 0.9077 -0.0009
vn -0.4213 0.9069 -0.0008
vn -0.4206 0.9072 -0.0014
vn -0.4194 0.9078 -0.0013
vn -0.4206 0.9072 0.0014
vn -0.4213 0.9069 0.0008
vn 1.0000 0.0092 0.0000
vn 1.0000 0.0046 0.0000
vn -0.0010 0.0010 1.0000
vn -0.3649 -0.9310 0.0000
vn 0.9986 0.0349 -0.0385
vn 0.9971 0.0004 -0.0755
vn 0.9987 0.0373 -0.0359
vn 0.3843 -0.9135 -0.1335
vn -0.0001 -0.0001 -1.0000
vn -0.0184 0.0198 -0.9996
vn -0.0153 0.0222 -0.9996
vn -0.0173 0.0207 -0.9996
vn -0.0145 0.0228 -0.9996
vn 0.3373 -0.9388 -0.0697
vn 0.3293 -0.9424 -0.0591
vn -0.9992 -0.0404 0.0000
vn 0.5203 0.8540 0.0000
vn 0.3227 0.9465 0.0000
vn 0.9987 0.0373 0.0359
vn 0.9986 0.0349 0.0385
vn -0.9999 0.0149 0.0000
vn -0.4194 0.9078 0.0013
vn -0.4195 0.9077 0.0009
vn -0.9999 -0.0102 0.0000
vn -0.0009 0.0004 -1.0000
vn -0.0009 -0.0000 -1.0000
vn -0.0003 0.0001 1.0000
vn -0.0001 0.0000 1.0000
vn 0.0001 -0.0000 1.0000
vn 0.0001 -0.0001 1.0000
vn 0.0000 -0.0001 1.0000
vn -0.0010 0.0010 -1.0000
vn 0.8370 -0.5330 0.1243
vn 0.8165 -0.5634 0.1262
vn 0.3843 -0.9135 0.1335
vn -0.0001 -0.0001 1.0000
vn -0.0184 0.0198 0.9996
vn -0.0173 0.0207 0.9996
vn -0.0153 0.0222 0.9996
vn -0.0145 0.0228 0.9996
vn 0.3293 -0.9424 0.0591
vn 0.3373 -0.9388 0.0697
vn -1.0000 -0.0000 -0.0023
vn -0.9753 0.2209 -0.0022
vn 0.0000 1.0000 -0.0000
vn 0.9753 0.2209 0.0022
vn 1.0000 -0.0000 0.0023
vn 0.0023 -0.0000 -1.0000
vn -0.0023 0.0000 1.0000
s 1
f 3/1/1 17/2/1 20/3/1 5/4/1
f 3/5/2 41/6/2 55/7/2 17/8/2
f 28/9/3 27/10/3 25/11/4 26/12/4
f 1/13/5 39/14/5 43/15/5 5/16/5
f 5/4/1 20/3/1 9/17/1 1/18/1
f 23/19/6 30/20/6 31/21/7 24/22/8
f 24/22/8 31/21/7 32/23/9 10/24/10
f 20/3/11 17/2/11 18/25/11 19/26/11
f 48/27/12 10/28/12 2/29/12 40/30/12
f 15/31/13 13/32/13 8/33/13 16/34/13
f 10/24/10 9/17/1 20/3/1 24/22/8
f 11/35/14 15/31/14 16/34/14 12/36/14
f 23/19/15 24/22/15 21/37/15 22/38/15
f 21/37/1 19/26/1 18/25/1 22/38/1
f 61/39/16 23/40/16 17/8/2 55/7/2
f 7/41/2 12/42/2 18/43/2 17/44/2
f 11/45/12 14/46/12 20/47/12 19/48/12
f 15/49/12 11/45/12 19/48/12 21/50/12
f 12/42/2 16/51/2 22/52/2 18/43/2
f 8/53/2 7/41/2 17/44/2 23/54/16
f 14/46/12 13/55/12 24/56/12 20/47/12
f 13/55/12 15/49/12 21/50/12 24/56/12
f 16/51/2 8/53/2 23/54/16 22/52/2
f 13/32/1 14/57/1 7/58/1 8/33/1
f 14/57/17 11/35/17 12/36/17 7/58/17
f 34/59/18 33/60/19 4/61/20 6/62/21
f 42/63/22 4/64/20 33/65/19 71/66/23
f 42/67/24 65/68/25 27/69/25 4/70/24
f 6/71/26 4/72/26 27/10/3 28/9/3
f 28/73/27 66/74/27 44/75/27 6/76/27
f 29/77/28 32/78/29 38/79/29 35/80/30
f 32/81/31 31/82/31 37/83/31 38/84/31
f 10/24/10 32/23/9 29/85/32 2/86/32
f 35/87/33 38/88/33 37/89/34 34/90/35
f 37/89/34 36/91/36 33/92/36 34/90/35
f 31/82/31 30/93/37 36/94/38 37/83/31
f 74/95/39 71/96/39 33/97/39 36/98/39
f 72/99/40 73/100/40 35/80/40 34/101/40
f 67/102/41 40/30/41 2/29/41 29/103/41
f 35/80/30 73/100/42 67/104/43 29/77/28
f 65/68/25 63/105/12 25/106/12 27/69/25
f 26/107/44 64/108/44 66/74/44 28/73/44
f 44/109/45 72/110/46 34/111/18 6/112/21
f 10/28/12 48/27/12 47/113/12 9/114/12
f 39/115/12 1/116/12 9/114/12 47/113/12
f 5/16/5 43/15/5 41/117/5 3/118/5
f 23/40/16 61/39/16 68/119/47 30/120/47
f 41/121/14 43/122/14 58/123/14 55/124/14
f 66/125/48 64/126/49 63/127/49 65/128/48
f 43/122/14 39/129/14 47/130/14 58/123/14
f 61/131/50 62/132/51 69/133/52 68/134/50
f 62/132/51 48/135/53 70/136/54 69/133/52
f 58/123/13 57/137/13 56/138/13 55/124/13
f 53/139/11 54/140/11 46/141/11 51/142/11
f 48/135/53 62/132/51 58/123/14 47/130/14
f 49/143/1 50/144/1 54/140/1 53/139/1
f 61/131/17 60/145/17 59/146/17 62/132/17
f 59/146/14 60/145/14 56/138/14 57/137/14
f 45/147/2 55/148/2 56/149/2 50/150/2
f 49/151/12 57/152/12 58/153/12 52/154/12
f 53/155/12 59/156/12 57/152/12 49/151/12
f 50/150/2 56/149/2 60/157/2 54/158/2
f 46/159/2 61/160/16 55/148/2 45/147/2
f 52/154/12 58/153/12 62/161/12 51/162/12
f 51/162/12 62/161/12 59/156/12 53/155/12
f 54/158/2 60/157/2 61/160/16 46/159/2
f 51/142/14 46/141/14 45/163/14 52/164/14
f 52/164/15 45/163/15 50/144/15 49/143/15
f 72/165/46 44/166/45 42/167/22 71/168/23
f 44/169/55 66/125/48 65/128/48 42/170/55
f 67/104/43 73/100/42 76/171/56 70/172/57
f 70/173/57 76/174/56 75/175/58 69/176/58
f 48/135/53 40/177/59 67/178/59 70/136/54
f 73/179/60 72/180/61 75/181/62 76/182/60
f 75/181/62 72/180/61 71/183/63 74/184/63
f 69/176/58 75/175/58 74/185/64 68/186/65
f 68/186/65 74/185/64 36/94/38 30/93/37
f 80/187/66 91/188/67 86/189/68 77/190/68
f 79/191/5 89/192/5 91/188/67 80/187/66
f 77/190/68 86/189/68 87/193/69 78/194/70
f 77/195/71 78/196/71 79/197/71 80/198/71
f 78/194/70 87/193/69 89/199/5 79/200/5
f 110/201/67 103/202/68 85/203/68 92/204/67
f 108/205/5 110/201/67 92/204/67 90/206/5
f 106/207/69 108/208/5 90/209/5 88/210/69
f 92/204/67 85/203/68 86/189/68 91/188/67
f 87/193/69 88/210/69 94/211/70 93/212/70
f 89/213/71 87/214/71 93/215/71 82/216/71
f 85/203/68 88/210/69 87/193/69 86/189/68
f 90/217/72 92/218/72 83/219/72 81/220/72
f 88/221/72 90/217/72 81/220/72 94/222/72
f 91/223/71 89/213/71 82/216/71 84/224/71
f 92/204/67 91/188/67 84/225/66 83/226/66
f 98/227/66 95/228/68 104/229/68 109/230/67
f 97/231/5 98/227/66 109/230/67 107/232/5
f 95/228/68 96/233/70 105/234/69 104/229/68
f 95/235/72 98/236/72 97/237/72 96/238/72
f 96/233/70 97/239/5 107/240/5 105/234/69
f 110/201/67 109/230/67 104/229/68 103/202/68
f 105/234/69 111/241/70 112/242/70 106/207/69
f 107/243/72 100/244/72 111/245/72 105/246/72
f 103/202/68 104/229/68 105/234/69 106/207/69
f 108/247/71 99/248/71 101/249/71 110/250/71
f 106/251/71 112/252/71 99/248/71 108/247/71
f 109/253/72 102/254/72 100/244/72 107/243/72
f 110/201/67 101/255/66 102/256/66 109/230/67
f 103/202/68 106/207/69 88/210/69 85/203/68
