# Blender v3.1.2 OBJ File: 'Scene.blend'
# www.blender.org
o Dumpster_Garbage_Dumpster.003
v -0.731938 0.546230 -0.871944
v 0.983277 0.931123 -0.870460
v -0.731938 0.575295 0.871943
v 0.983277 0.923886 0.870459
v -0.731938 0.572244 -0.622817
v -0.731938 0.572536 -0.373690
v -0.731938 0.599067 -0.124564
v -0.731938 0.597413 0.124563
v -0.731938 0.570292 0.373690
v -0.731938 0.560577 0.622817
v 0.983277 0.932612 -0.621757
v 0.983277 0.953020 -0.373054
v 0.983277 0.967197 -0.124352
v 0.983277 0.954623 0.124351
v 0.983277 0.963533 0.373054
v 0.983277 0.950953 0.621756
v -0.517537 0.612280 -0.871758
v -0.303135 0.643995 -0.871573
v -0.088733 0.704396 -0.871387
v 0.125669 0.769557 -0.871202
v 0.340071 0.829220 -0.871016
v 0.554473 0.849347 -0.870831
v 0.768875 0.898167 -0.870645
v -0.517537 0.629809 0.871758
v -0.303135 0.683530 0.871572
v -0.088733 0.704196 0.871387
v 0.125669 0.781185 0.871201
v 0.340071 0.830882 0.871016
v 0.554473 0.889431 0.870830
v 0.768875 0.895056 0.870645
v 0.768875 0.917411 0.621889
v 0.554473 0.913758 0.622021
v 0.340071 0.837666 0.622154
v 0.125669 0.803840 0.622286
v -0.088733 0.709666 0.622419
v -0.303135 0.671993 0.622552
v -0.517537 0.642406 0.622684
v 0.768875 0.876315 0.373133
v 0.554473 0.924271 0.373213
v 0.340071 0.885164 0.373292
v 0.125669 0.747702 0.373372
v -0.088733 0.776985 0.373451
v -0.303135 0.681411 0.373531
v -0.517537 0.621099 0.373610
v 0.768875 0.906547 0.124378
v 0.554473 0.869654 0.124404
v 0.340071 0.784750 0.124431
v 0.125669 0.900286 0.124457
v -0.088733 0.757243 0.124484
v -0.303135 0.735723 0.124510
v -0.517537 0.643248 0.124537
v 0.768875 0.947517 -0.124378
v 0.554473 0.832772 -0.124405
v 0.340071 0.874639 -0.124431
v 0.125669 0.767670 -0.124458
v -0.088733 0.735824 -0.124484
v -0.303135 0.671361 -0.124511
v -0.517537 0.597460 -0.124537
v 0.768875 0.915613 -0.373134
v 0.554473 0.853271 -0.373213
v 0.340071 0.818817 -0.373293
v 0.125669 0.736013 -0.373372
v -0.088733 0.750294 -0.373452
v -0.303135 0.730001 -0.373531
v -0.517537 0.593487 -0.373611
v 0.768875 0.906041 -0.621889
v 0.554473 0.852308 -0.622022
v 0.340071 0.816964 -0.622154
v 0.125669 0.764609 -0.622287
v -0.088733 0.693101 -0.622419
v -0.303135 0.695488 -0.622552
v -0.517537 0.637847 -0.622684
v -0.117563 0.453553 0.004458
v -0.006065 0.765092 0.109080
v -0.253340 0.674368 -0.508376
v -0.141843 0.985908 -0.403754
v 0.855436 0.562640 -0.206182
v 0.608161 0.471915 -0.823639
v 0.719659 0.783455 -0.719017
v -0.490073 0.243167 0.617973
v -0.583286 0.553710 0.741700
v -0.511467 0.350362 0.332802
v -0.604681 0.660906 0.456528
v 0.960585 0.659595 0.665675
v 0.867371 0.970138 0.789401
v 0.939190 0.766790 0.380503
v 0.845977 1.077334 0.504230
v -0.574383 0.569899 -0.239366
v -0.419466 0.723087 -0.185281
v -0.415230 0.419342 -0.268801
v -0.260313 0.572531 -0.214715
v -0.606343 0.454088 0.180194
v -0.451426 0.607276 0.234280
v -0.292273 0.456720 0.204845
vt 0.265902 0.391381
vt 0.177323 0.479506
vt 0.031404 0.332836
vt 0.119983 0.244711
vt 0.636753 0.079063
vt 0.760950 0.065374
vt 0.798009 0.401583
vt 0.673812 0.415273
vt 0.212722 0.592069
vt 0.121083 0.728399
vt 0.037695 0.672346
vt 0.129335 0.536017
vt 0.613853 0.399700
vt 0.613853 0.274751
vt 0.723813 0.274751
vt 0.723813 0.399700
vt 0.520903 0.023656
vt 0.600544 0.002200
vt 0.693904 0.348726
vt 0.614263 0.370183
vt 0.706037 0.123867
vt 0.581087 0.123867
vt 0.581087 0.013908
vt 0.706037 0.013908
vt 0.600544 0.002200
vt 0.680184 -0.019257
vt 0.773544 0.327269
vt 0.693904 0.348726
vt 0.750271 -0.038139
vt 0.843631 0.308387
vt 0.216851 0.870374
vt 0.256713 0.870374
vt 0.256713 0.909627
vt 0.216851 0.909627
vt 0.139353 0.910236
vt 0.139353 0.870374
vt 0.216851 0.870374
vt 0.216851 0.910236
vt 0.560055 0.793664
vt 0.560055 0.871162
vt 0.520802 0.871162
vt 0.520802 0.793664
vt 0.848852 0.148930
vt 0.850119 0.032876
vt 0.983553 0.034504
vt 0.982404 0.150903
vt 0.046680 0.158232
vt 0.045644 0.042340
vt 0.179794 0.038612
vt 0.181801 0.156176
vt 0.313508 0.034184
vt 0.316804 0.156822
vt 0.446919 0.032375
vt 0.449322 0.150928
vt 0.581692 0.027869
vt 0.582985 0.141548
vt 0.716079 0.029695
vt 0.715182 0.146962
vt 0.713936 0.981661
vt 0.711511 0.866727
vt 0.846782 0.856822
vt 0.848425 0.977954
vt 0.714256 0.733349
vt 0.846509 0.737379
vt 0.713206 0.619572
vt 0.847900 0.624024
vt 0.711909 0.505278
vt 0.846155 0.503400
vt 0.712740 0.382752
vt 0.846938 0.384416
vt 0.714606 0.266474
vt 0.848043 0.267703
vt 0.579123 0.981849
vt 0.579386 0.866746
vt 0.578383 0.744854
vt 0.576786 0.621588
vt 0.576738 0.502344
vt 0.580897 0.376388
vt 0.584507 0.267627
vt 0.444414 0.980736
vt 0.442977 0.861959
vt 0.440825 0.736510
vt 0.439778 0.621700
vt 0.436421 0.493925
vt 0.455485 0.387491
vt 0.451572 0.268812
vt 0.309149 0.985644
vt 0.307786 0.867083
vt 0.305965 0.748355
vt 0.307377 0.625098
vt 0.309045 0.519630
vt 0.317025 0.388328
vt 0.314110 0.271249
vt 0.175187 0.988128
vt 0.173997 0.865089
vt 0.173768 0.749699
vt 0.174042 0.634579
vt 0.179077 0.510358
vt 0.179724 0.393710
vt 0.182205 0.272202
vt 0.040993 0.986227
vt 0.040471 0.867219
vt 0.040471 0.748491
vt 0.041620 0.632909
vt 0.044840 0.510608
vt 0.046495 0.393202
vt 0.047915 0.273935
vt 0.981873 0.859288
vt 0.983553 0.980323
vt 0.982368 0.742865
vt 0.980079 0.623454
vt 0.980124 0.503536
vt 0.980986 0.384189
vt 0.981654 0.268823
vn -0.9170 0.2155 0.3356
vn -0.2363 0.3843 -0.8925
vn 0.3213 0.8977 0.3015
vn -0.9607 -0.2758 -0.0316
vn -0.0701 0.3510 -0.9338
vn 0.9607 0.2758 0.0316
vn 0.0701 -0.3510 0.9338
vn -0.2686 0.8948 0.3565
vn 0.0732 0.2654 -0.9614
vn -0.7200 0.6811 0.1332
vn 0.6901 0.6824 0.2409
vn -0.1950 0.9803 -0.0299
vn -0.1424 0.9890 -0.0392
vn -0.1375 0.9903 -0.0186
vn -0.1854 0.9825 -0.0199
vn -0.0822 0.9920 0.0958
vn -0.1432 0.9848 0.0978
vn -0.2085 0.9778 0.0209
vn -0.0852 0.9962 0.0189
vn -0.2861 0.9582 -0.0070
vn -0.1115 0.9933 -0.0316
vn -0.2286 0.9707 0.0736
vn -0.1952 0.9804 0.0264
vn -0.1440 0.9895 0.0072
vn -0.2499 0.9683 0.0004
vn -0.1393 0.9874 -0.0756
vn -0.2328 0.9713 -0.0482
vn -0.1220 0.9924 0.0130
vn -0.2751 0.9607 0.0362
vn -0.2794 0.9595 -0.0371
vn -0.2464 0.9691 -0.0070
vn -0.2711 0.9624 0.0182
vn -0.2010 0.9747 -0.0983
vn -0.1025 0.9942 -0.0323
vn -0.1536 0.9855 -0.0725
vn -0.2196 0.9743 -0.0502
vn -0.2489 0.9684 0.0153
vn -0.2179 0.9748 -0.0481
vn -0.2113 0.9771 0.0245
vn -0.2000 0.9794 -0.0297
vn -0.1960 0.9806 -0.0072
vn -0.0736 0.9945 -0.0745
vn -0.2390 0.9690 -0.0630
vn -0.3049 0.9518 -0.0335
vn -0.2012 0.9759 -0.0845
vn -0.2124 0.9663 -0.1457
vn -0.1177 0.9917 -0.0525
vn -0.2009 0.9796 0.0053
vn -0.1619 0.9868 0.0049
vn -0.2585 0.9659 -0.0140
vn -0.2873 0.9570 -0.0402
vn -0.2744 0.9610 -0.0357
vn -0.1637 0.9865 -0.0037
vn -0.1019 0.9939 -0.0420
vn -0.1756 0.9826 -0.0610
vn -0.2582 0.9654 0.0363
vn -0.2639 0.9633 0.0484
vn -0.2753 0.9576 0.0845
vn -0.2392 0.9633 0.1219
vn -0.2115 0.9731 0.0910
vn -0.2458 0.9689 -0.0288
vn -0.1014 0.9922 -0.0721
vn -0.2992 0.9541 -0.0132
vn -0.2484 0.9686 -0.0119
vn -0.2069 0.9780 0.0280
vn -0.2409 0.9691 0.0536
vn -0.2735 0.9614 0.0291
vn -0.2813 0.9582 0.0526
vn -0.1203 0.9914 0.0519
vn -0.3030 0.9530 -0.0041
vn -0.2478 0.9688 -0.0010
vn -0.1627 0.9867 -0.0050
vn -0.2541 0.9670 0.0202
vn -0.2832 0.9574 0.0554
vn -0.2450 0.9677 0.0588
vn -0.1632 0.9836 0.0771
vn -0.2478 0.9609 -0.1239
vn -0.2920 0.9513 -0.0985
vn -0.1687 0.9788 -0.1159
vn -0.2204 0.9751 -0.0240
vn -0.2781 0.9600 0.0323
vn -0.1905 0.9813 0.0260
vn -0.1806 0.9836 -0.0013
s off
f 73/1/1 74/2/1 76/3/1 75/4/1
f 75/5/2 76/6/2 79/7/2 78/8/2
f 79/9/3 76/10/3 74/11/3 77/12/3
f 80/13/4 81/14/4 83/15/4 82/16/4
f 82/17/5 83/18/5 87/19/5 86/20/5
f 86/21/6 87/22/6 85/23/6 84/24/6
f 84/25/7 85/26/7 81/27/7 80/28/7
f 87/29/8 83/30/8 81/27/8 85/26/8
f 88/31/9 89/32/9 91/33/9 90/34/9
f 92/35/10 93/36/10 89/37/10 88/38/10
f 94/39/11 91/40/11 89/41/11 93/42/11
s 1
f 66/43/12 11/44/13 2/45/14 23/46/15
f 30/47/16 4/48/17 16/49/18 31/50/19
f 31/50/19 16/49/18 15/51/20 38/52/21
f 38/52/21 15/51/20 14/53/22 45/54/23
f 45/54/23 14/53/22 13/55/24 52/56/25
f 52/56/25 13/55/24 12/57/26 59/58/27
f 59/58/27 12/57/26 11/44/13 66/43/12
f 6/59/28 65/60/29 72/61/30 5/62/31
f 65/60/29 64/63/32 71/64/33 72/61/30
f 64/63/32 63/65/34 70/66/35 71/64/33
f 63/65/34 62/67/36 69/68/37 70/66/35
f 62/67/36 61/69/38 68/70/39 69/68/37
f 61/69/38 60/71/40 67/72/41 68/70/39
f 60/71/40 59/58/27 66/43/12 67/72/41
f 7/73/42 58/74/43 65/60/29 6/59/28
f 58/74/43 57/75/44 64/63/32 65/60/29
f 57/75/44 56/76/45 63/65/34 64/63/32
f 56/76/45 55/77/46 62/67/36 63/65/34
f 55/77/46 54/78/47 61/69/38 62/67/36
f 54/78/47 53/79/48 60/71/40 61/69/38
f 53/79/48 52/56/25 59/58/27 60/71/40
f 8/80/49 51/81/50 58/74/43 7/73/42
f 51/81/50 50/82/51 57/75/44 58/74/43
f 50/82/51 49/83/52 56/76/45 57/75/44
f 49/83/52 48/84/53 55/77/46 56/76/45
f 48/84/53 47/85/54 54/78/47 55/77/46
f 47/85/54 46/86/55 53/79/48 54/78/47
f 46/86/55 45/54/23 52/56/25 53/79/48
f 9/87/56 44/88/57 51/81/50 8/80/49
f 44/88/57 43/89/58 50/82/51 51/81/50
f 43/89/58 42/90/59 49/83/52 50/82/51
f 42/90/59 41/91/60 48/84/53 49/83/52
f 41/91/60 40/92/61 47/85/54 48/84/53
f 40/92/61 39/93/62 46/86/55 47/85/54
f 39/93/62 38/52/21 45/54/23 46/86/55
f 10/94/63 37/95/64 44/88/57 9/87/56
f 37/95/64 36/96/65 43/89/58 44/88/57
f 36/96/65 35/97/66 42/90/59 43/89/58
f 35/97/66 34/98/67 41/91/60 42/90/59
f 34/98/67 33/99/68 40/92/61 41/91/60
f 33/99/68 32/100/69 39/93/62 40/92/61
f 32/100/69 31/50/19 38/52/21 39/93/62
f 3/101/70 24/102/71 37/95/64 10/94/63
f 24/102/71 25/103/72 36/96/65 37/95/64
f 25/103/72 26/104/73 35/97/66 36/96/65
f 26/104/73 27/105/74 34/98/67 35/97/66
f 27/105/74 28/106/75 33/99/68 34/98/67
f 28/106/75 29/107/76 32/100/69 33/99/68
f 29/107/76 30/47/16 31/50/19 32/100/69
f 5/62/31 72/61/30 17/108/77 1/109/78
f 72/61/30 71/64/33 18/110/79 17/108/77
f 71/64/33 70/66/35 19/111/80 18/110/79
f 70/66/35 69/68/37 20/112/81 19/111/80
f 69/68/37 68/70/39 21/113/82 20/112/81
f 68/70/39 67/72/41 22/114/83 21/113/82
f 67/72/41 66/43/12 23/46/15 22/114/83
