# Blender v3.1.2 OBJ File: 'Scene.blend'
# www.blender.org
o IGNORE_Porch_Peg.009_Cube.092
v -0.067753 -0.543699 0.067753
v -0.067753 -0.523699 0.087753
v -0.087753 -0.523699 0.067753
v -0.067753 -0.537841 0.081896
v -0.079300 -0.535246 0.079300
v -0.081896 -0.523699 0.081896
v -0.081896 -0.537841 0.067753
v -0.067753 0.026301 0.087753
v -0.067753 0.046301 0.067753
v -0.087753 0.026301 0.067753
v -0.067753 0.040443 0.081896
v -0.079300 0.037848 0.079300
v -0.081896 0.040443 0.067753
v -0.081896 0.026301 0.081896
v -0.067753 -0.543699 -0.067753
v -0.087753 -0.523699 -0.067753
v -0.067753 -0.523699 -0.087753
v -0.081896 -0.537841 -0.067753
v -0.079300 -0.535246 -0.079300
v -0.081896 -0.523699 -0.081896
v -0.067753 -0.537841 -0.081896
v -0.067753 0.046301 -0.067753
v -0.067753 0.026301 -0.087753
v -0.087753 0.026301 -0.067753
v -0.067753 0.040443 -0.081896
v -0.079300 0.037848 -0.079300
v -0.081896 0.026301 -0.081896
v -0.081896 0.040443 -0.067753
v 0.067753 -0.543699 0.067753
v 0.087753 -0.523699 0.067753
v 0.067753 -0.523699 0.087753
v 0.081896 -0.537841 0.067753
v 0.079300 -0.535246 0.079300
v 0.081896 -0.523699 0.081896
v 0.067753 -0.537841 0.081896
v 0.067753 0.046301 0.067753
v 0.067753 0.026301 0.087753
v 0.087753 0.026301 0.067753
v 0.067753 0.040443 0.081896
v 0.079300 0.037848 0.079300
v 0.081896 0.026301 0.081896
v 0.081896 0.040443 0.067753
v 0.067753 -0.543699 -0.067753
v 0.067753 -0.523699 -0.087753
v 0.087753 -0.523699 -0.067753
v 0.067753 -0.537841 -0.081896
v 0.079300 -0.535246 -0.079300
v 0.081896 -0.523699 -0.081896
v 0.081896 -0.537841 -0.067753
v 0.067753 0.046301 -0.067753
v 0.087753 0.026301 -0.067753
v 0.067753 0.026301 -0.087753
v 0.081896 0.040443 -0.067753
v 0.079300 0.037848 -0.079300
v 0.081896 0.026301 -0.081896
v 0.067753 0.040443 -0.081896
vt 0.234230 -0.344744
vt 0.234230 -0.090408
vt 0.171567 -0.090408
vt 0.171567 -0.344744
vt 0.315389 -0.344744
vt 0.315389 -0.090408
vt 0.252727 -0.090408
vt 0.252727 -0.344744
vt 0.315389 -0.071911
vt 0.315389 -0.009249
vt 0.252727 -0.009249
vt 0.252727 -0.071911
vt 0.153070 -0.344744
vt 0.153070 -0.090408
vt 0.090408 -0.090408
vt 0.090408 -0.344744
vt 0.071911 -0.344744
vt 0.071911 -0.090408
vt 0.009249 -0.090408
vt 0.009249 -0.344744
vt 0.252727 -0.425903
vt 0.243478 -0.425903
vt 0.243478 -0.431243
vt 0.252727 -0.435152
vt 0.162319 -0.344744
vt 0.162319 -0.350083
vt 0.171567 -0.353992
vt 0.153070 -0.353992
vt 0.158410 -0.353992
vt 0.171567 -0.081159
vt 0.166228 -0.081159
vt 0.162319 -0.090408
vt 0.252727 -0.000000
vt 0.247387 -0.000000
vt 0.243478 -0.009249
vt 0.162319 -0.085068
vt 0.153070 -0.081159
vt 0.315389 -0.425903
vt 0.315389 -0.435152
vt 0.320729 -0.435152
vt 0.324638 -0.425903
vt 0.081159 -0.344744
vt 0.081160 -0.350083
vt 0.090408 -0.353992
vt 0.071911 -0.353992
vt 0.077251 -0.353992
vt 0.324638 -0.009249
vt 0.324638 -0.003909
vt 0.315389 -0.000000
vt 0.081159 -0.090408
vt 0.081159 -0.085068
vt 0.071911 -0.081159
vt 0.090408 -0.081159
vt 0.085068 -0.081159
vt 0.252727 -0.363241
vt 0.252727 -0.353992
vt 0.243478 -0.352689
vt 0.243478 -0.363241
vt 0.243478 -0.344744
vt 0.234230 -0.353992
vt 0.243478 -0.071911
vt 0.244781 -0.081159
vt 0.252727 -0.081159
vt 0.243478 -0.090408
vt 0.234230 -0.081159
vt 0.315389 -0.363241
vt 0.324638 -0.363241
vt 0.324638 -0.357901
vt 0.315389 -0.353992
vt 0.000000 -0.344744
vt 0.000000 -0.350083
vt 0.009249 -0.353992
vt 0.320729 -0.353992
vt 0.324638 -0.344744
vt 0.315389 -0.081159
vt 0.320729 -0.081159
vt 0.324638 -0.071911
vt 0.324638 -0.090408
vt 0.324638 -0.085068
vt 0.009249 -0.081160
vt 0.003909 -0.081160
vt -0.000000 -0.090408
vn 0.0000 0.0000 1.0000
vn 1.0000 0.0000 0.0000
vn 0.0000 1.0000 0.0000
vn -1.0000 0.0000 0.0000
vn 0.0000 0.0000 -1.0000
vn -0.3251 -0.8881 0.3251
vn -0.3251 -0.3251 0.8881
vn -0.8881 -0.3251 0.3251
vn -0.3251 0.3251 0.8881
vn -0.3251 0.8881 0.3251
vn -0.8881 0.3251 0.3251
vn -0.3251 -0.8881 -0.3251
vn -0.8881 -0.3251 -0.3251
vn -0.3251 -0.3251 -0.8881
vn -0.3251 0.8881 -0.3251
vn -0.3251 0.3251 -0.8881
vn -0.8881 0.3251 -0.3251
vn 0.3251 -0.8881 0.3251
vn 0.8881 -0.3251 0.3251
vn 0.3251 -0.3251 0.8881
vn 0.3251 0.8881 0.3251
vn 0.3251 0.3251 0.8881
vn 0.8881 0.3251 0.3251
vn 0.3251 -0.8881 -0.3251
vn 0.3251 -0.3251 -0.8881
vn 0.8881 -0.3251 -0.3251
vn 0.3251 0.8881 -0.3251
vn 0.8881 0.3251 -0.3251
vn 0.3251 0.3251 -0.8881
vn -0.3827 -0.9239 0.0000
vn -0.9239 -0.3827 0.0000
vn -0.3827 0.0000 0.9239
vn -0.9239 0.0000 0.3827
vn -0.3827 0.9239 0.0000
vn -0.9239 0.3827 0.0000
vn -0.3827 0.0000 -0.9239
vn -0.9239 0.0000 -0.3827
vn 0.0000 -0.9239 -0.3827
vn 0.0000 -0.3827 -0.9239
vn 0.0000 0.9239 -0.3827
vn 0.0000 0.3827 -0.9239
vn 0.9239 0.0000 -0.3827
vn 0.3827 0.0000 -0.9239
vn 0.3827 -0.9239 0.0000
vn 0.9239 -0.3827 0.0000
vn 0.3827 0.9239 0.0000
vn 0.9239 0.3827 0.0000
vn 0.3827 0.0000 0.9239
vn 0.9239 0.0000 0.3827
vn 0.0000 -0.9239 0.3827
vn 0.0000 -0.3827 0.9239
vn 0.0000 0.9239 0.3827
vn -0.0000 0.3827 0.9239
vn 0.0000 -1.0000 0.0000
s off
f 31/1/1 37/2/1 8/3/1 2/4/1
f 45/5/2 51/6/2 38/7/2 30/8/2
f 50/9/3 22/10/3 9/11/3 36/12/3
f 3/13/4 10/14/4 24/15/4 16/16/4
f 17/17/5 23/18/5 52/19/5 44/20/5
f 1/21/6 4/22/6 5/23/6 7/24/6
f 2/4/7 6/25/7 5/26/7 4/27/7
f 3/13/8 7/28/8 5/29/8 6/25/8
f 8/3/9 11/30/9 12/31/9 14/32/9
f 9/11/10 13/33/10 12/34/10 11/35/10
f 10/14/11 14/32/11 12/36/11 13/37/11
f 15/38/12 18/39/12 19/40/12 21/41/12
f 16/16/13 20/42/13 19/43/13 18/44/13
f 17/17/14 21/45/14 19/46/14 20/42/14
f 22/10/15 25/47/15 26/48/15 28/49/15
f 23/18/16 27/50/16 26/51/16 25/52/16
f 24/15/17 28/53/17 26/54/17 27/50/17
f 29/55/18 32/56/18 33/57/18 35/58/18
f 30/8/19 34/59/19 33/57/19 32/56/19
f 31/1/20 35/60/20 33/57/20 34/59/20
f 36/12/21 39/61/21 40/62/21 42/63/21
f 37/2/22 41/64/22 40/62/22 39/65/22
f 38/7/23 42/63/23 40/62/23 41/64/23
f 43/66/24 46/67/24 47/68/24 49/69/24
f 44/20/25 48/70/25 47/71/25 46/72/25
f 45/5/26 49/69/26 47/73/26 48/74/26
f 50/9/27 53/75/27 54/76/27 56/77/27
f 51/6/28 55/78/28 54/79/28 53/75/28
f 52/19/29 56/80/29 54/81/29 55/82/29
f 15/38/30 1/21/30 7/24/30 18/39/30
f 18/44/31 7/28/31 3/13/31 16/16/31
f 2/4/32 8/3/32 14/32/32 6/25/32
f 6/25/33 14/32/33 10/14/33 3/13/33
f 9/11/34 22/10/34 28/49/34 13/33/34
f 13/37/35 28/53/35 24/15/35 10/14/35
f 23/18/36 17/17/36 20/42/36 27/50/36
f 27/50/37 20/42/37 16/16/37 24/15/37
f 43/66/38 15/38/38 21/41/38 46/67/38
f 46/72/39 21/45/39 17/17/39 44/20/39
f 22/10/40 50/9/40 56/77/40 25/47/40
f 25/52/41 56/80/41 52/19/41 23/18/41
f 51/6/42 45/5/42 48/74/42 55/78/42
f 55/82/43 48/70/43 44/20/43 52/19/43
f 29/55/44 43/66/44 49/69/44 32/56/44
f 32/56/45 49/69/45 45/5/45 30/8/45
f 50/9/46 36/12/46 42/63/46 53/75/46
f 53/75/47 42/63/47 38/7/47 51/6/47
f 37/2/48 31/1/48 34/59/48 41/64/48
f 41/64/49 34/59/49 30/8/49 38/7/49
f 1/21/50 29/55/50 35/58/50 4/22/50
f 4/27/51 35/60/51 31/1/51 2/4/51
f 36/12/52 9/11/52 11/35/52 39/61/52
f 39/65/53 11/30/53 8/3/53 37/2/53
f 15/38/54 43/66/54 29/55/54 1/21/54
