# Blender v3.1.2 OBJ File: 'Scene.blend'
# www.blender.org
o LadderCage_LadderLock.003
v -0.056940 -0.991879 0.288835
v -0.056940 1.173960 0.288835
v 0.156975 -0.991879 0.288835
v 0.156975 1.173960 0.288835
v -0.064788 -0.991879 0.288835
v -0.064788 1.173960 0.288835
v -0.064788 1.173960 0.242249
v -0.064788 -0.991879 0.242249
v -0.156975 -0.991879 0.242249
v -0.156975 1.173960 0.242249
v -0.205669 1.173960 0.288835
v -0.205669 -0.991879 0.288835
v -0.056940 -0.991879 -0.288835
v -0.056940 1.173960 -0.288835
v 0.156975 -0.991879 -0.288835
v 0.156975 1.173960 -0.288835
v -0.205669 1.173960 -0.288835
v -0.064788 -0.991879 -0.288835
v -0.064788 1.173960 -0.288835
v -0.064788 1.173960 -0.242249
v -0.064788 -0.991879 -0.242249
v -0.156975 -0.991879 -0.242249
v -0.156975 1.173960 -0.242249
v -0.205669 -0.991879 -0.288835
vt 1.266015 0.677036
vt 0.065401 0.677036
vt 0.065401 0.806502
vt 1.266015 0.806502
vt -0.239911 1.050705
vt -0.268101 1.021234
vt -0.268101 1.106498
vt -0.239911 1.106498
vt 0.065401 1.021234
vt 1.266015 1.021234
vt 1.266015 0.935969
vt 0.065401 0.935969
vt -0.281640 -0.100669
vt -0.253471 -0.130140
vt -0.253471 -0.185934
vt -0.281640 -0.185934
vt -0.268101 0.935969
vt 0.081457 0.935969
vt 0.081457 0.806502
vt -0.268101 0.806502
vt 0.067199 1.218087
vt 0.067188 1.246281
vt 1.266004 1.246281
vt 1.266015 1.218087
vt 1.266015 0.383814
vt 1.265826 0.034207
vt 0.067666 0.034207
vt 0.067856 0.383813
vt 0.053267 1.050705
vt 0.081457 1.021234
vt 0.067666 -0.100669
vt 0.039497 -0.130140
vt 1.265826 -0.315400
vt 0.067666 -0.315400
vt 0.067856 0.034207
vt 1.266015 0.034207
vt 1.266015 1.162293
vt 0.081457 1.162293
vt 0.081457 1.218087
vt -0.281640 -0.185934
vt 0.067666 -0.185934
vt 0.067666 -0.315400
vt -0.281640 -0.315400
vt 1.266015 0.935969
vt 1.266015 0.806502
vt 0.053267 1.106498
vt 0.081457 1.106498
vt 1.266015 1.106499
vt 1.266015 1.021234
vt 0.067666 -0.185934
vt 0.039497 -0.185934
vt 0.067188 1.274475
vt 1.266004 1.274475
vt 1.266015 1.246281
vt 0.067199 1.246281
vt 1.266015 1.162293
vt 1.266015 1.106499
vt 0.065401 1.106499
vt 0.065401 1.162293
vt 1.265899 0.677036
vt 1.266015 0.383814
vt 0.067199 0.383813
vt 0.067083 0.677036
vn 0.0000 0.0000 1.0000
vn 0.0000 1.0000 0.0000
vn 0.0000 -1.0000 0.0000
vn 1.0000 0.0000 0.0000
vn -1.0000 0.0000 0.0000
vn 0.0000 0.0000 -1.0000
s 1
f 3/1/1 4/2/1 2/3/1 1/4/1
f 10/5/2 11/6/2 6/7/2 7/8/2
f 11/9/1 12/10/1 5/11/1 6/12/1
f 12/13/3 9/14/3 8/15/3 5/16/3
f 4/17/2 16/18/2 14/19/2 2/20/2
f 7/21/4 6/22/4 5/23/4 8/24/4
f 11/25/5 17/26/5 24/27/5 12/28/5
f 10/5/2 23/29/2 17/30/2 11/6/2
f 12/13/3 24/31/3 22/32/3 9/14/3
f 14/33/5 13/34/5 1/35/5 2/36/5
f 9/37/6 10/38/6 7/39/6 8/24/6
f 1/40/3 13/41/3 15/42/3 3/43/3
f 15/44/6 13/45/6 14/19/6 16/18/6
f 23/29/2 20/46/2 19/47/2 17/30/2
f 17/30/6 19/47/6 18/48/6 24/49/6
f 24/31/3 18/50/3 21/51/3 22/32/3
f 20/52/4 21/53/4 18/54/4 19/55/4
f 22/56/1 21/57/1 20/58/1 23/59/1
f 9/60/4 22/61/4 23/62/4 10/63/4
