# Blender v3.1.2 OBJ File: 'Scene.blend'
# www.blender.org
o LampWallHanging_B.001_LampWallHanging.019
v 6.608639 -0.302829 33.029022
v 6.559423 -0.131577 33.029022
v 6.625988 -0.302829 32.964275
v 6.583366 -0.131577 32.939667
v 6.673387 -0.302829 32.916874
v 6.648779 -0.131577 32.874256
v 6.738134 -0.302829 32.899525
v 6.738134 -0.131577 32.850311
v 6.802882 -0.302829 32.916874
v 6.827490 -0.131577 32.874256
v 6.850281 -0.302829 32.964275
v 6.892902 -0.131577 32.939667
v 6.867630 -0.302829 33.029022
v 6.916845 -0.131577 33.029022
v 6.850281 -0.302829 33.093769
v 6.892902 -0.131577 33.118378
v 6.802882 -0.302829 33.141171
v 6.827490 -0.131577 33.183792
v 6.738134 -0.302829 33.158520
v 6.738134 -0.131577 33.207733
v 6.673387 -0.302829 33.141171
v 6.648779 -0.131577 33.183792
v 6.625988 -0.302829 33.093769
v 6.583366 -0.131577 33.118378
vt 0.349153 0.866532
vt 0.184713 0.740136
vt 0.401958 0.579369
vt 0.456641 0.618710
vt 0.105592 0.548411
vt 0.374674 0.517674
vt 0.132483 0.342732
vt 0.381314 0.449812
vt 0.258517 0.177868
vt 0.420009 0.394652
vt 0.450123 0.098312
vt 0.481265 0.366680
vt 0.655747 0.125497
vt 0.548045 0.373400
vt 0.820228 0.251848
vt 0.602879 0.412969
vt 0.899508 0.443600
vt 0.630633 0.474481
vt 0.872492 0.649305
vt 0.623951 0.542021
vt 0.746280 0.813984
vt 0.584837 0.596994
vt 0.554776 0.893527
vt 0.523440 0.625076
vn -0.8323 -0.2762 -0.4805
vn -0.4806 -0.2762 -0.8323
vn 0.0000 -0.2762 -0.9611
vn 0.4806 -0.2762 -0.8323
vn 0.8323 -0.2762 -0.4805
vn 0.9611 -0.2762 0.0000
vn 0.8323 -0.2762 0.4805
vn 0.4806 -0.2762 0.8323
vn 0.0000 -0.2762 0.9611
vn -0.4806 -0.2762 0.8323
vn -0.8323 -0.2762 0.4805
vn -0.9611 -0.2762 0.0000
vn 0.0000 -1.0000 -0.0000
s 1
f 4/1/1 6/2/2 5/3/2 3/4/1
f 6/2/2 8/5/3 7/6/3 5/3/2
f 8/5/3 10/7/4 9/8/4 7/6/3
f 10/7/4 12/9/5 11/10/5 9/8/4
f 12/9/5 14/11/6 13/12/6 11/10/5
f 14/11/6 16/13/7 15/14/7 13/12/6
f 16/13/7 18/15/8 17/16/8 15/14/7
f 18/15/8 20/17/9 19/18/9 17/16/8
f 20/17/9 22/19/10 21/20/10 19/18/9
f 22/19/10 24/21/11 23/22/11 21/20/10
f 24/21/11 2/23/12 1/24/12 23/22/11
f 1/24/13 3/4/13 5/3/13 7/6/13 9/8/13 11/10/13 13/12/13 15/14/13 17/16/13 19/18/13 21/20/13 23/22/13
f 2/23/12 4/1/1 3/4/1 1/24/12
