# Blender v3.1.2 OBJ File: 'Scene.blend'
# www.blender.org
o Mauer_B_Cube.034
v -0.350000 -0.500000 1.351265
v -0.350000 -0.400000 1.451265
v -0.450000 -0.400000 1.351265
v -0.350000 3.400000 1.451265
v -0.350000 3.500000 1.351265
v -0.450000 3.400000 1.351265
v -0.350000 -0.500000 -10.848858
v -0.450000 -0.400000 -10.848858
v -0.350000 -0.400000 -10.948858
v -0.350000 3.500000 -10.848858
v -0.350000 3.400000 -10.948858
v -0.450000 3.400000 -10.848858
v 0.350000 -0.500000 1.351265
v 0.450000 -0.400000 1.351265
v 0.350000 -0.400000 1.451265
v 0.350000 3.500000 1.351265
v 0.350000 3.400000 1.451265
v 0.450000 3.400000 1.351265
v 0.350000 -0.500000 -10.848858
v 0.350000 -0.400000 -10.948858
v 0.450000 -0.400000 -10.848858
v 0.350000 3.500000 -10.848858
v 0.450000 3.400000 -10.848858
v 0.350000 3.400000 -10.948858
vt 0.381250 0.777778
vt 0.618750 0.777778
vt 0.618750 0.972222
vt 0.381250 0.972222
vt 0.028226 1.038587
vt 0.028226 0.026630
vt 3.471774 0.026631
vt 3.471774 1.038587
vt 0.652778 0.502016
vt 0.847222 0.502016
vt 0.847222 0.747984
vt 0.652778 0.747984
vt 3.471775 1.091849
vt 3.471774 2.103805
vt 0.028226 2.103805
vt 0.028226 1.091848
vt 0.270532 2.157066
vt 0.270532 3.169022
vt 0.033817 3.169023
vt 0.033816 2.157066
vt 0.375000 0.972222
vt 0.375000 0.972222
vt 0.381250 1.000000
vt 0.625000 0.972222
vt 0.618750 1.000000
vt 0.028226 1.065218
vt 0.028226 1.065218
vt 0.000000 1.091848
vt 0.270532 3.195652
vt 0.270532 3.195652
vt 0.304348 3.169022
vt 3.471774 1.065218
vt 3.471774 1.065218
vt 3.500000 1.038587
vt 0.625000 0.777778
vt 0.625000 0.777778
vt 0.618750 0.750000
vt 0.033816 2.130436
vt 0.033816 2.130436
vt 0.000000 2.157066
vt 0.028226 0.000000
vt 0.028226 0.000000
vt 0.000000 0.026630
vt 3.471774 1.065218
vt 3.500000 1.091849
vt 3.500000 2.103805
vt 3.471774 2.130436
vt 0.028226 2.130435
vt 0.000000 2.103805
vt 0.270532 2.130436
vt 0.033817 3.195653
vt 0.000000 3.169023
vt 0.028226 1.065217
vt 3.471774 0.000000
vt 3.500000 0.026631
vt 0.375000 0.777778
vt 0.152778 0.502016
vt 0.347222 0.502016
vt 0.347222 0.747984
vt 0.152778 0.747984
vn 0.0000 0.0000 1.0000
vn 1.0000 0.0000 0.0000
vn 0.0000 1.0000 0.0000
vn -1.0000 0.0000 0.0000
vn 0.0000 0.0000 -1.0000
vn -0.5774 -0.5774 0.5773
vn -0.5774 0.5774 0.5773
vn -0.5773 -0.5774 -0.5773
vn -0.5773 0.5774 -0.5773
vn 0.5774 -0.5774 0.5773
vn 0.5774 0.5774 0.5773
vn 0.5773 -0.5774 -0.5773
vn 0.5773 0.5774 -0.5773
vn -0.7071 -0.7071 0.0000
vn -0.7071 0.0000 0.7071
vn -0.7071 0.7071 0.0000
vn -0.7071 0.0000 -0.7071
vn 0.0000 -0.7071 -0.7071
vn 0.0000 0.7071 -0.7071
vn 0.7071 0.0000 -0.7071
vn 0.7071 -0.7071 0.0000
vn 0.7071 0.7071 0.0000
vn 0.7071 0.0000 0.7071
vn 0.0000 -0.7071 0.7071
vn 0.0000 0.7071 0.7071
vn 0.0000 -1.0000 0.0000
s off
f 15/1/1 17/2/1 4/3/1 2/4/1
f 21/5/2 23/6/2 18/7/2 14/8/2
f 22/9/3 10/10/3 5/11/3 16/12/3
f 3/13/4 6/14/4 12/15/4 8/16/4
f 9/17/5 11/18/5 24/19/5 20/20/5
f 1/21/6 2/22/6 3/23/6
f 4/3/7 5/24/7 6/25/7
f 7/26/8 8/27/8 9/28/8
f 10/29/9 11/30/9 12/31/9
f 13/32/10 14/33/10 15/34/10
f 16/35/11 17/36/11 18/37/11
f 19/38/12 20/39/12 21/40/12
f 22/41/13 23/42/13 24/43/13
f 7/26/14 1/44/14 3/13/14 8/16/14
f 2/45/15 4/46/15 6/14/15 3/13/15
f 5/47/16 10/48/16 12/15/16 6/14/16
f 11/49/17 9/28/17 8/16/17 12/15/17
f 19/38/18 7/50/18 9/17/18 20/20/18
f 10/29/19 22/51/19 24/19/19 11/18/19
f 23/52/20 21/40/20 20/20/20 24/19/20
f 13/32/21 19/53/21 21/5/21 14/8/21
f 22/41/22 16/54/22 18/7/22 23/6/22
f 17/55/23 15/34/23 14/8/23 18/7/23
f 1/21/24 13/56/24 15/1/24 2/4/24
f 16/35/25 5/24/25 4/3/25 17/2/25
f 7/57/26 19/58/26 13/59/26 1/60/26
