# Blender v3.1.2 OBJ File: 'Scene.blend'
# www.blender.org
o Mauerdach_B.001_Cube.021
v -0.615097 -0.334301 6.605173
v -0.344301 -0.050000 6.605173
v -0.615097 -0.334301 -6.605173
v -0.344301 -0.050000 -6.605173
v 0.615097 -0.334301 6.605173
v 0.344302 -0.050000 6.605173
v 0.615097 -0.334301 -6.605173
v 0.344302 -0.050000 -6.605173
vt 0.000000 0.059418
vt 0.026190 0.059418
vt 0.026189 0.940584
vt 0.000000 0.940584
vt 0.057868 0.973842
vt 0.056594 1.000000
vt 0.098311 0.940584
vt 0.072121 0.940584
vt 0.072122 0.059418
vt 0.098311 0.059418
vt 0.056595 0.000000
vt 0.057869 0.026159
vt 0.180368 0.940584
vt 0.180368 0.059418
vn -0.7241 0.6897 0.0000
vn 0.0000 0.0000 -1.0000
vn 0.7241 0.6897 0.0000
vn 0.0000 0.0000 1.0000
vn 0.0000 -1.0000 0.0000
vn 0.0000 1.0000 0.0000
s off
f 1/1/1 2/2/1 4/3/1 3/4/1
f 3/4/2 4/3/2 8/5/2 7/6/2
f 7/7/3 8/8/3 6/9/3 5/10/3
f 5/11/4 6/12/4 2/2/4 1/1/4
f 3/13/5 7/7/5 5/10/5 1/14/5
f 8/8/6 4/3/6 2/2/6 6/9/6
