# Blender v3.1.2 OBJ File: 'Scene.blend'
# www.blender.org
o Mauer_C_Cube.020
v -0.500000 0.000000 1.500000
v -0.500000 3.500000 1.500000
v -0.500000 0.000000 -11.000000
v -0.500000 3.500000 -11.000000
v 0.500000 0.000000 1.500000
v 0.500000 3.500000 1.500000
v 0.500000 0.000000 -11.000000
v 0.500000 3.500000 -11.000000
vt 3.500000 1.065218
vt 3.500000 2.130436
vt 0.000000 2.130435
vt 0.000000 1.065218
vt 0.304348 2.130436
vt 0.304348 3.195652
vt 0.000000 3.195653
vt 0.000000 2.130436
vt 0.000000 1.065217
vt 0.000000 0.000000
vt 3.500000 0.000000
vt 3.500000 1.065218
vt 0.375000 0.750000
vt 0.625000 0.750000
vt 0.625000 1.000000
vt 0.375000 1.000000
vt 0.125000 0.500000
vt 0.375000 0.500000
vt 0.125000 0.750000
vt 0.625000 0.500000
vt 0.875000 0.500000
vt 0.875000 0.750000
vn -1.0000 0.0000 0.0000
vn 0.0000 0.0000 -1.0000
vn 1.0000 0.0000 0.0000
vn 0.0000 0.0000 1.0000
vn 0.0000 -1.0000 0.0000
vn 0.0000 1.0000 0.0000
s off
f 1/1/1 2/2/1 4/3/1 3/4/1
f 3/5/2 4/6/2 8/7/2 7/8/2
f 7/9/3 8/10/3 6/11/3 5/12/3
f 5/13/4 6/14/4 2/15/4 1/16/4
f 3/17/5 7/18/5 5/13/5 1/19/5
f 8/20/6 4/21/6 2/22/6 6/14/6
