# Blender v3.1.2 OBJ File: 'Scene.blend'
# www.blender.org
o Mauerdach_A_Cube.037
v -0.553097 -0.334301 6.543173
v -0.470419 -0.272301 6.605173
v -0.572336 -0.289407 6.543173
v -0.520614 -0.312599 6.587013
v -0.562385 -0.311711 6.578969
v -0.534218 -0.280854 6.587013
v -0.592681 -0.324694 6.543173
v -0.317732 -0.112000 6.605173
v -0.282301 -0.050000 6.543173
v -0.387063 -0.094893 6.543173
v -0.291161 -0.071702 6.587013
v -0.334621 -0.072589 6.578969
v -0.340185 -0.059606 6.543173
v -0.365238 -0.103446 6.587013
v -0.553097 -0.334301 -6.543173
v -0.572336 -0.289407 -6.543173
v -0.470419 -0.272301 -6.605173
v -0.592681 -0.324694 -6.543174
v -0.562385 -0.311711 -6.578969
v -0.534218 -0.280854 -6.587014
v -0.520614 -0.312599 -6.587014
v -0.282301 -0.050000 -6.543173
v -0.317732 -0.112000 -6.605173
v -0.387063 -0.094893 -6.543173
v -0.291161 -0.071702 -6.587013
v -0.334621 -0.072589 -6.578969
v -0.365238 -0.103446 -6.587013
v -0.340185 -0.059606 -6.543173
v 0.553097 -0.334301 6.543173
v 0.572336 -0.289407 6.543173
v 0.470419 -0.272301 6.605173
v 0.592681 -0.324694 6.543174
v 0.562385 -0.311711 6.578969
v 0.534218 -0.280854 6.587014
v 0.520614 -0.312599 6.587014
v 0.282302 -0.050000 6.543173
v 0.317733 -0.112000 6.605173
v 0.387063 -0.094894 6.543173
v 0.291161 -0.071702 6.587013
v 0.334622 -0.072589 6.578969
v 0.365239 -0.103447 6.587013
v 0.340185 -0.059606 6.543173
v 0.553097 -0.334301 -6.543173
v 0.470419 -0.272301 -6.605173
v 0.572336 -0.289407 -6.543173
v 0.520614 -0.312599 -6.587013
v 0.562385 -0.311711 -6.578969
v 0.534218 -0.280854 -6.587013
v 0.592681 -0.324694 -6.543173
v 0.282302 -0.050000 -6.543173
v 0.387063 -0.094894 -6.543173
v 0.317733 -0.112000 -6.605173
v 0.340185 -0.059606 -6.543174
v 0.334622 -0.072589 -6.578969
v 0.365239 -0.103447 -6.587014
v 0.291161 -0.071702 -6.587014
vt 0.052934 0.009840
vt 0.053652 0.024589
vt 0.024417 0.055282
vt 0.009651 0.055282
vt 0.094175 0.936448
vt 0.076257 0.936448
vt 0.076257 0.063553
vt 0.094175 0.063553
vt 0.067986 0.936448
vt 0.030325 0.936448
vt 0.030325 0.063553
vt 0.067986 0.063553
vt 0.004136 0.063553
vt 0.022054 0.063553
vt 0.022054 0.936448
vt 0.004136 0.936448
vt 0.009651 0.944719
vt 0.024417 0.944719
vt 0.053651 0.975411
vt 0.052933 0.990160
vt 0.176232 0.063553
vt 0.174066 0.059418
vt 0.176852 0.059418
vt 0.180368 0.063553
vt 0.006302 0.059418
vt 0.003516 0.059418
vt 0.004347 0.054854
vt 0.000000 0.063553
vt 0.000000 0.061165
vt 0.028634 0.056851
vt 0.026123 0.059844
vt 0.022645 0.059418
vt 0.026190 0.063553
vt 0.029734 0.059418
vt 0.176232 0.936448
vt 0.180368 0.936448
vt 0.180368 0.938836
vt 0.174066 0.940584
vt 0.006303 0.940584
vt 0.003516 0.940584
vt 0.000000 0.936448
vt 0.004347 0.945147
vt 0.002425 0.943130
vt 0.029734 0.940584
vt 0.026189 0.940001
vt 0.026189 0.936448
vt 0.022645 0.940584
vt 0.028634 0.943150
vt 0.102446 0.063553
vt 0.098311 0.063553
vt 0.098311 0.061165
vt 0.104613 0.059418
vt 0.092009 0.059418
vt 0.094795 0.059418
vt 0.052248 0.004563
vt 0.054170 0.002546
vt 0.056902 0.006295
vt 0.068577 0.059418
vt 0.071476 0.059418
vt 0.072122 0.063553
vt 0.057696 0.022618
vt 0.057837 0.025514
vt 0.055424 0.028725
vt 0.072122 0.061166
vt 0.075666 0.059418
vt 0.102446 0.936448
vt 0.104613 0.940584
vt 0.101827 0.940584
vt 0.098311 0.936448
vt 0.056901 0.993705
vt 0.056765 0.996488
vt 0.052248 0.995437
vt 0.098311 0.938836
vt 0.092008 0.940584
vt 0.072121 0.936448
vt 0.072121 0.938836
vt 0.068576 0.940584
vt 0.075666 0.940584
vt 0.072767 0.940584
vt 0.055423 0.971275
vt 0.057423 0.973374
vt 0.057696 0.977382
vn 0.0000 0.0000 1.0000
vn 0.7241 0.6897 -0.0000
vn 0.0000 1.0000 0.0000
vn -0.7241 0.6897 0.0000
vn 0.0000 0.0000 -1.0000
vn -0.1592 -0.8530 0.4970
vn -0.2329 -0.0998 0.9674
vn -0.7275 0.4731 0.4970
vn -0.2054 0.4793 0.8533
vn -0.1255 0.9115 0.3918
vn -0.5734 0.7195 0.3918
vn -0.1592 -0.8530 -0.4970
vn -0.7274 0.4731 -0.4970
vn -0.2329 -0.0998 -0.9674
vn -0.1255 0.9115 -0.3918
vn -0.2054 0.4793 -0.8533
vn -0.5734 0.7195 -0.3918
vn 0.1592 -0.8530 0.4970
vn 0.7274 0.4731 0.4970
vn 0.2329 -0.0998 0.9674
vn 0.1255 0.9115 0.3918
vn 0.2054 0.4793 0.8533
vn 0.5734 0.7195 0.3918
vn 0.1592 -0.8530 -0.4970
vn 0.2329 -0.0998 -0.9674
vn 0.7275 0.4731 -0.4970
vn 0.1255 0.9115 -0.3918
vn 0.5734 0.7195 -0.3918
vn 0.2054 0.4793 -0.8533
vn -0.2358 -0.9718 0.0000
vn -0.8663 0.4995 0.0000
vn -0.2975 0.2834 0.9117
vn -0.6489 0.6181 0.4436
vn -0.1637 0.9865 0.0000
vn -0.6014 0.7989 0.0000
vn -0.2975 0.2834 -0.9117
vn -0.6489 0.6181 -0.4436
vn 0.0000 -0.8962 -0.4436
vn 0.0000 -0.4108 -0.9117
vn -0.0000 0.8962 -0.4436
vn -0.0000 0.4108 -0.9117
vn 0.6489 0.6181 -0.4436
vn 0.2975 0.2834 -0.9117
vn 0.2358 -0.9718 -0.0000
vn 0.8663 0.4995 -0.0000
vn 0.1637 0.9865 0.0000
vn 0.6014 0.7989 -0.0000
vn 0.2975 0.2834 0.9117
vn 0.6489 0.6181 0.4436
vn -0.0000 -0.8962 0.4436
vn 0.0000 -0.4108 0.9117
vn 0.0000 0.8962 0.4436
vn 0.0000 0.4109 0.9117
vn 0.0000 -1.0000 0.0000
s off
f 31/1/1 37/2/1 8/3/1 2/4/1
f 45/5/2 51/6/2 38/7/2 30/8/2
f 50/9/3 22/10/3 9/11/3 36/12/3
f 3/13/4 10/14/4 24/15/4 16/16/4
f 17/17/5 23/18/5 52/19/5 44/20/5
f 1/21/6 4/22/6 5/23/6 7/24/6
f 2/4/7 6/25/7 5/26/7 4/27/7
f 3/13/8 7/28/8 5/29/8 6/25/8
f 8/3/9 11/30/9 12/31/9 14/32/9
f 9/11/10 13/33/10 12/31/10 11/34/10
f 10/14/11 14/32/11 12/31/11 13/33/11
f 15/35/12 18/36/12 19/37/12 21/38/12
f 16/16/13 20/39/13 19/40/13 18/41/13
f 17/17/14 21/42/14 19/43/14 20/39/14
f 22/10/15 25/44/15 26/45/15 28/46/15
f 23/18/16 27/47/16 26/45/16 25/48/16
f 24/15/17 28/46/17 26/45/17 27/47/17
f 29/49/18 32/50/18 33/51/18 35/52/18
f 30/8/19 34/53/19 33/54/19 32/50/19
f 31/1/20 35/55/20 33/56/20 34/57/20
f 36/12/21 39/58/21 40/59/21 42/60/21
f 37/2/22 41/61/22 40/62/22 39/63/22
f 38/7/23 42/60/23 40/64/23 41/65/23
f 43/66/24 46/67/24 47/68/24 49/69/24
f 44/20/25 48/70/25 47/71/25 46/72/25
f 45/5/26 49/69/26 47/73/26 48/74/26
f 50/9/27 53/75/27 54/76/27 56/77/27
f 51/6/28 55/78/28 54/79/28 53/75/28
f 52/19/29 56/80/29 54/81/29 55/82/29
f 15/35/30 1/21/30 7/24/30 18/36/30
f 18/41/31 7/28/31 3/13/31 16/16/31
f 2/4/32 8/3/32 14/32/32 6/25/32
f 6/25/33 14/32/33 10/14/33 3/13/33
f 9/11/34 22/10/34 28/46/34 13/33/34
f 13/33/35 28/46/35 24/15/35 10/14/35
f 23/18/36 17/17/36 20/39/36 27/47/36
f 27/47/37 20/39/37 16/16/37 24/15/37
f 43/66/38 15/35/38 21/38/38 46/67/38
f 46/72/39 21/42/39 17/17/39 44/20/39
f 22/10/40 50/9/40 56/77/40 25/44/40
f 25/48/41 56/80/41 52/19/41 23/18/41
f 51/6/42 45/5/42 48/74/42 55/78/42
f 55/82/43 48/70/43 44/20/43 52/19/43
f 29/49/44 43/66/44 49/69/44 32/50/44
f 32/50/45 49/69/45 45/5/45 30/8/45
f 50/9/46 36/12/46 42/60/46 53/75/46
f 53/75/47 42/60/47 38/7/47 51/6/47
f 37/2/48 31/1/48 34/57/48 41/61/48
f 41/65/49 34/53/49 30/8/49 38/7/49
f 1/21/50 29/49/50 35/52/50 4/22/50
f 4/27/51 35/55/51 31/1/51 2/4/51
f 36/12/52 9/11/52 11/34/52 39/58/52
f 39/63/53 11/30/53 8/3/53 37/2/53
f 15/35/54 43/66/54 29/49/54 1/21/54
