# Blender v3.1.2 OBJ File: 'Scene.blend'
# www.blender.org
o Rasen_Plane.011
v -7.500000 0.050000 -29.950001
v 22.031345 0.050000 -29.950001
v -7.500000 0.450000 -29.950001
v -7.500000 0.050000 21.847815
v 22.031345 0.050000 21.847815
v 22.706211 0.050000 21.847815
v 22.706211 0.050000 -29.950001
v 22.706211 0.450000 -29.950001
v 22.706211 0.448005 21.847815
v 22.031345 0.450000 -29.950001
v 22.031345 0.448028 21.847815
v -7.500000 1.393551 21.847815
v 18.750084 0.050000 -29.950001
v 15.468823 0.050000 -29.950001
v 12.187563 0.050000 -29.950001
v 8.906302 0.050000 -29.950001
v 5.625042 0.050000 -29.950001
v 2.343781 0.050000 -29.950001
v -0.937479 0.050000 -29.950001
v -4.218740 0.050000 -29.950001
v -4.218740 0.050000 21.847815
v -0.937479 0.050000 21.847815
v 2.343782 0.050000 21.847815
v 5.625042 0.050000 21.847815
v 8.906302 0.050000 21.847815
v 12.187563 0.050000 21.847815
v 15.468824 0.050000 21.847815
v 18.750084 0.050000 21.847815
v 18.750084 0.450000 -29.950001
v 15.468823 0.450000 -29.950001
v 12.187563 0.450000 -29.950001
v 8.906302 0.450000 -29.950001
v 5.625042 0.450000 -29.950001
v 2.343781 0.450000 -29.950001
v -0.937479 0.450000 -29.950001
v -4.218740 0.450000 -29.950001
v 18.750084 0.448142 21.847815
v 15.468823 0.448256 21.847815
v 12.187563 0.448370 21.847815
v 8.906302 0.448484 21.847815
v 5.625042 0.448598 21.847815
v 2.343781 0.570212 21.847815
v -0.937479 1.056653 21.847815
v -4.218740 1.393437 21.847815
v 22.706211 0.448138 18.394627
v 22.706211 0.448271 14.941439
v 22.706211 0.448404 11.488251
v 22.706211 0.448537 8.035063
v 22.706211 0.460110 1.128688
v 22.706211 0.460243 -2.324500
v 22.706211 0.449254 -5.777688
v 22.706211 0.449202 -9.230875
v 22.706211 0.450144 -12.684063
v 22.706211 0.498562 -16.137251
v 22.706211 0.499096 -19.590439
v 22.706211 0.450543 -23.043627
v 22.706211 0.449867 -26.496815
v 22.031345 0.448160 18.394627
v 22.031345 0.448291 14.941439
v 22.031345 0.448422 11.488251
v 22.031345 0.448554 8.035063
v 22.031345 0.474505 1.128688
v 22.031345 0.474637 -2.324500
v 22.031345 0.453546 -5.777688
v 22.031345 0.449211 -9.230875
v 22.031345 0.468892 -12.684063
v 22.031345 0.543896 -16.137251
v 22.031345 0.562052 -19.590439
v 22.031345 0.469286 -23.043627
v 22.031345 0.449869 -26.496815
v -7.500000 1.393614 18.394627
v -7.500000 1.027981 14.941439
v -7.500000 0.527904 11.488251
v -7.500000 0.449306 8.035063
v -7.500000 0.441786 1.128688
v -7.500000 0.405511 -2.324500
v -7.500000 0.405574 -5.777688
v -7.500000 0.441975 -9.230875
v -7.500000 0.449685 -12.684063
v -7.500000 0.449748 -16.137251
v -7.500000 0.449811 -19.590439
v -7.500000 0.449874 -23.043627
v -7.500000 0.449937 -26.496815
v -4.218740 1.393508 18.394627
v -4.218740 1.027883 14.941439
v -4.218740 0.527813 11.488251
v -4.218740 0.449223 8.035063
v -4.218740 0.321668 1.128688
v -4.218740 0.229392 -2.324500
v -4.218740 0.229463 -5.777688
v -4.218740 0.321880 -9.230875
v -4.218740 0.446021 -12.684063
v -4.218740 0.449717 -16.137251
v -4.218740 0.449788 -19.590439
v -4.218740 0.449859 -23.043627
v -4.218740 0.449929 -26.496815
v -0.937479 1.056731 18.394627
v -0.937479 0.801720 14.941439
v -0.937479 0.459076 11.488251
v -0.937479 0.449139 8.035063
v -0.937479 0.239761 1.128688
v -0.937479 0.107452 -2.324500
v -0.937479 0.107530 -5.777688
v -0.937479 0.239996 -9.230875
v -0.937479 0.421132 -12.684063
v -0.937479 0.449687 -16.137251
v -0.937479 0.449765 -19.590439
v -0.937479 0.449844 -23.043627
v -0.937479 0.449922 -26.496815
v 2.343781 0.570298 18.394627
v 2.343781 0.470007 14.941439
v 2.343781 0.448970 11.488251
v 2.343781 0.449056 8.035063
v 2.343781 0.239693 1.128688
v 2.343781 0.107391 -2.324500
v 2.343781 0.107477 -5.777688
v 2.343781 0.239950 -9.230875
v 2.343781 0.421094 -12.684063
v 2.343781 0.449657 -16.137251
v 2.343781 0.449742 -19.590439
v 2.343781 0.449828 -23.043627
v 2.343781 0.449914 -26.496815
v 5.625042 0.448692 18.394627
v 5.625042 0.448785 14.941439
v 5.625042 0.448879 11.488251
v 5.625042 0.448972 8.035063
v 5.625042 0.347104 1.128688
v 5.625042 0.254764 -2.324500
v 5.625042 0.233717 -5.777688
v 5.625042 0.321743 -9.230875
v 5.625042 0.465457 -12.684063
v 5.625042 0.562073 -16.137251
v 5.625042 0.562166 -19.590439
v 5.625042 0.469362 -23.043627
v 5.625042 0.449907 -26.496815
v 8.906302 0.448585 18.394627
v 8.906302 0.448686 14.941439
v 8.906302 0.448787 11.488251
v 8.906302 0.451006 8.035063
v 8.906302 0.449844 1.128688
v 8.906302 0.413641 -2.324500
v 8.906302 0.446211 -5.777688
v 8.906302 0.453132 -9.230875
v 8.906302 0.775948 -12.684063
v 8.906302 0.847154 -16.137251
v 8.906302 0.865807 -19.590439
v 8.906302 0.776251 -23.043627
v 8.906302 0.459168 -26.496815
v 12.187563 0.448479 18.394627
v 12.187563 0.448587 14.941439
v 12.187563 0.448696 11.488251
v 12.187563 0.465436 8.035063
v 12.187563 0.378941 1.128688
v 12.187563 0.379049 -2.324500
v 12.187563 0.462756 -5.777688
v 12.187563 0.538762 -9.230875
v 12.187563 0.707384 -12.684063
v 12.187563 0.527273 -16.137251
v 12.187563 0.692071 -19.590439
v 12.187563 0.860681 -23.043627
v 12.187563 0.522690 -26.496815
v 15.468823 0.448372 18.394627
v 15.468823 0.448489 14.941439
v 15.468823 0.448605 11.488251
v 15.468823 0.465352 8.035063
v 15.468823 0.378872 1.128688
v 15.468823 0.378988 -2.324500
v 15.468823 0.462703 -5.777688
v 15.468823 0.532745 -9.230875
v 15.468823 0.676502 -12.684063
v 15.468823 0.759131 -16.137251
v 15.468823 1.013293 -19.590439
v 15.468823 0.978690 -23.043627
v 15.468823 0.522683 -26.496815
v 18.750084 0.448266 18.394627
v 18.750084 0.448390 14.941439
v 18.750084 0.448514 11.488251
v 18.750084 0.450755 8.035063
v 18.750084 0.457280 1.128688
v 18.750084 0.457404 -2.324500
v 18.750084 0.490006 -5.777688
v 18.750084 0.460643 -9.230875
v 18.750084 0.615191 -12.684063
v 18.750084 0.683722 -16.137251
v 18.750084 0.849299 -19.590439
v 18.750084 0.776205 -23.043627
v 18.750084 0.459145 -26.496815
v -7.500000 0.050000 1.030386
v -7.500000 0.050000 7.996044
v 22.031345 0.050000 1.030386
v 22.031345 0.050000 7.996044
v 22.706211 0.050000 1.030386
v 22.706211 0.050000 7.996044
v -4.218740 0.050000 1.030386
v -4.218740 0.050000 7.996044
v -0.937479 0.050000 1.030386
v -0.937479 0.050000 7.996044
v 2.343781 0.050000 1.030386
v 2.343781 0.050000 7.996044
v 5.625042 0.050000 1.030386
v 5.625042 0.050000 7.996044
v 8.906302 0.050000 1.030386
v 8.906302 0.050000 7.996044
v 12.187563 0.050000 1.030386
v 12.187563 0.050000 7.996044
v 15.468823 0.050000 1.030386
v 15.468824 0.050000 7.996044
v 18.750084 0.050000 1.030386
v 18.750084 0.050000 7.996044
v 15.468823 0.448154 4.581875
v 12.187563 0.448230 4.581875
v 8.906302 0.476784 4.581875
v 5.625042 0.398038 4.581875
v 2.343781 0.344374 4.581875
v -0.937479 0.344450 4.581875
v -4.218740 0.385445 4.581875
v -7.500000 0.445546 4.581875
v -7.500000 0.050000 4.513215
v -4.218740 0.050000 4.513215
v -0.937479 0.050000 4.513215
v 2.343781 0.050000 4.513215
v 5.625042 0.050000 4.513215
v 8.906302 0.050000 4.513215
v 12.187563 0.050000 4.513215
v 15.468824 0.050000 4.513215
v 18.750084 0.050000 4.513215
v 22.031345 0.050000 4.513215
v 22.706211 0.050000 4.513215
v 22.706211 0.454323 4.581875
v 22.031345 0.461530 4.581875
v 18.750084 0.480376 4.581875
vt 0.535635 -0.408200
vt 0.535635 -0.999745
vt 0.463342 -0.999745
vt 0.463342 -0.408200
vt 1.041680 -0.999745
vt 1.113973 -0.999745
vt 1.113973 -0.999745
vt 1.041680 -0.999745
vt 0.448474 -0.999745
vt 0.448474 -0.408200
vt 0.463342 -0.999745
vt 0.448474 -0.999745
vt 1.204588 -2.342318
vt 1.165933 -2.342318
vt 1.165933 -2.599116
vt 1.204588 -2.599116
vt 0.894842 3.515787
vt 1.006697 3.515787
vt 1.006697 3.766914
vt 0.894842 3.766914
vt 0.000000 3.515786
vt 0.111856 3.515786
vt 0.111856 3.766914
vt 0.000000 3.766914
vt 0.223711 3.515786
vt 0.223711 3.766914
vt 0.335566 3.515787
vt 0.335566 3.766914
vt 0.447421 3.515787
vt 0.447421 3.766914
vt 0.559276 3.515787
vt 0.559277 3.766914
vt 0.671132 3.515787
vt 0.671132 3.766914
vt 0.782987 3.515787
vt 0.782987 3.766914
vt 0.535635 -0.999745
vt 0.607927 -0.999745
vt 0.607927 -0.999745
vt 0.680219 -0.999745
vt 0.680219 -0.999745
vt 0.752512 -0.999745
vt 0.752512 -0.999745
vt 0.824804 -0.999745
vt 0.824804 -0.999745
vt 0.897096 -0.999745
vt 0.897096 -0.999745
vt 0.969388 -0.999745
vt 0.969388 -0.999745
vt 1.113973 -0.408200
vt 1.041680 -0.408200
vt 0.969388 -0.408200
vt 0.897096 -0.408200
vt 0.824804 -0.408200
vt 0.752511 -0.408200
vt 0.680219 -0.408200
vt 0.607927 -0.408200
vt 0.782987 0.000000
vt 0.894842 0.000000
vt 0.894842 0.251128
vt 0.782987 0.251128
vt 0.894842 0.502255
vt 0.782987 0.502255
vt 0.894842 0.753383
vt 0.782987 0.753383
vt 0.894842 1.004511
vt 0.782987 1.004511
vt 0.782987 1.506766
vt 0.894842 1.506766
vt 0.894842 1.757893
vt 0.782987 1.757893
vt 0.894842 2.009021
vt 0.782987 2.009021
vt 0.894842 2.260149
vt 0.782987 2.260149
vt 0.894842 2.511276
vt 0.782987 2.511276
vt 0.894842 2.762404
vt 0.782987 2.762404
vt 0.894842 3.013532
vt 0.782987 3.013532
vt 0.894842 3.264659
vt 0.782987 3.264659
vt 0.671131 0.000000
vt 0.671131 0.251128
vt 0.671131 0.502255
vt 0.671132 0.753383
vt 0.671132 1.004511
vt 0.671132 1.506766
vt 0.671132 1.757893
vt 0.671132 2.009021
vt 0.671132 2.260149
vt 0.671132 2.511276
vt 0.671132 2.762404
vt 0.671132 3.013532
vt 0.671132 3.264659
vt 0.559276 0.000000
vt 0.559276 0.251128
vt 0.559276 0.502255
vt 0.559276 0.753383
vt 0.559276 1.004511
vt 0.559276 1.506766
vt 0.559276 1.757893
vt 0.559276 2.009021
vt 0.559276 2.260149
vt 0.559276 2.511276
vt 0.559276 2.762404
vt 0.559276 3.013532
vt 0.559276 3.264659
vt 0.447421 0.000000
vt 0.447421 0.251128
vt 0.447421 0.502255
vt 0.447421 0.753383
vt 0.447421 1.004511
vt 0.447421 1.506766
vt 0.447421 1.757894
vt 0.447421 2.009021
vt 0.447421 2.260149
vt 0.447421 2.511276
vt 0.447421 2.762404
vt 0.447421 3.013532
vt 0.447421 3.264659
vt 0.335566 0.000000
vt 0.335566 0.251128
vt 0.335566 0.502255
vt 0.335566 0.753383
vt 0.335566 1.004511
vt 0.335566 1.506766
vt 0.335566 1.757894
vt 0.335566 2.009021
vt 0.335566 2.260149
vt 0.335566 2.511276
vt 0.335566 2.762404
vt 0.335566 3.013532
vt 0.335566 3.264659
vt 0.223710 0.000000
vt 0.223710 0.251128
vt 0.223711 0.502255
vt 0.223711 0.753383
vt 0.223711 1.004510
vt 0.223711 1.506766
vt 0.223711 1.757893
vt 0.223711 2.009021
vt 0.223711 2.260149
vt 0.223711 2.511276
vt 0.223711 2.762403
vt 0.223711 3.013531
vt 0.223711 3.264658
vt 0.111855 0.000000
vt 0.111855 0.251128
vt 0.111855 0.502255
vt 0.111855 0.753383
vt 0.111855 1.004510
vt 0.111855 1.506766
vt 0.111855 1.757893
vt 0.111855 2.009021
vt 0.111855 2.260149
vt 0.111855 2.511276
vt 0.111855 2.762403
vt 0.111855 3.013531
vt 0.111855 3.264658
vt 0.000000 0.000000
vt 0.000000 0.251128
vt 0.000000 0.502255
vt 0.000000 0.753383
vt 0.000000 1.004510
vt 0.000000 1.506766
vt 0.000000 1.757893
vt 0.000000 2.009021
vt 0.000000 2.260149
vt 0.000000 2.511276
vt 0.000000 2.762403
vt 0.000000 3.013531
vt 0.000000 3.264658
vt 1.006697 0.000000
vt 1.006697 0.251128
vt 1.006697 0.502255
vt 1.006697 0.753383
vt 1.006697 1.004511
vt 1.006697 1.506766
vt 1.006697 1.757893
vt 1.006697 2.009021
vt 1.006697 2.260149
vt 1.006697 2.511276
vt 1.006697 2.762404
vt 1.006697 3.013532
vt 1.006697 3.264659
vt 1.204588 1.252853
vt 1.165933 1.252853
vt 1.165933 0.996055
vt 1.204588 0.996055
vt 1.165933 0.739257
vt 1.204587 0.739257
vt 1.165933 0.482459
vt 1.204587 0.482459
vt 1.165933 0.225661
vt 1.204588 0.225661
vt 1.204587 -0.287935
vt 1.165933 -0.287935
vt 1.165933 -0.544733
vt 1.204587 -0.544733
vt 1.165933 -0.801531
vt 1.204587 -0.801531
vt 1.165933 -1.058329
vt 1.204588 -1.058329
vt 1.165933 -1.315127
vt 1.204588 -1.315127
vt 1.165933 -1.571924
vt 1.204588 -1.571924
vt 1.165933 -1.828722
vt 1.204588 -1.828722
vt 1.165933 -2.085520
vt 1.204588 -2.085520
vt 0.607927 0.481907
vt 0.607927 0.085684
vt 0.535635 0.085684
vt 0.535635 0.481907
vt 0.680219 0.481908
vt 0.680219 0.085684
vt 0.752511 0.481908
vt 0.752511 0.085684
vt 0.824804 0.481908
vt 0.824804 0.085684
vt 0.897096 0.481908
vt 0.897096 0.085684
vt 0.969388 0.481908
vt 0.969388 0.085684
vt 1.041680 0.481908
vt 1.041680 0.085684
vt 1.113973 0.481908
vt 1.113973 0.085684
vt 0.463342 0.481907
vt 0.463342 0.085684
vt 0.448474 0.085684
vt 0.448474 0.481907
vt 0.782987 1.255638
vt 0.671132 1.255638
vt 0.559276 1.255638
vt 0.447421 1.255638
vt 0.335566 1.255638
vt 0.223711 1.255638
vt 0.111855 1.255638
vt 0.000000 1.255638
vt 1.113973 -0.161258
vt 1.041680 -0.161258
vt 0.969388 -0.161258
vt 0.897096 -0.161258
vt 0.824804 -0.161258
vt 0.752511 -0.161258
vt 0.680219 -0.161258
vt 0.607927 -0.161258
vt 0.535635 -0.161258
vt 0.463342 -0.161258
vt 0.448474 -0.161258
vt 1.165933 -0.031137
vt 1.204587 -0.031137
vt 1.006697 1.255638
vt 0.894842 1.255638
vn 0.0000 -1.0000 0.0000
vn 0.0000 0.0000 -1.0000
vn 0.0158 0.9998 -0.0132
vn 0.0069 1.0000 -0.0014
vn 0.0000 1.0000 0.0000
vn 0.0007 1.0000 -0.0006
vn 0.0249 0.9988 -0.0433
vn 0.0055 1.0000 -0.0066
vn -0.0007 1.0000 -0.0007
vn -0.0131 0.9998 -0.0132
vn -0.0007 1.0000 -0.0006
vn -0.0204 0.9990 -0.0391
vn -0.0055 1.0000 -0.0066
vn -0.0125 0.9981 -0.0604
vn -0.0048 0.9999 -0.0164
vn 0.0080 0.9979 -0.0647
vn 0.0048 0.9999 -0.0164
vn 0.0007 1.0000 0.0008
vn 0.0006 1.0000 0.0019
vn 0.0008 1.0000 0.0028
vn -0.0001 1.0000 0.0011
vn -0.0102 0.9999 -0.0083
vn -0.0114 0.9999 -0.0037
vn -0.0106 0.9999 0.0046
vn -0.0100 0.9999 0.0103
vn 0.0002 1.0000 0.0049
vn -0.0021 0.9999 0.0170
vn 0.0146 0.9997 0.0173
vn 0.0084 0.9995 0.0288
vn 0.0272 0.9992 0.0278
vn 0.0040 0.9997 0.0240
vn 0.0414 0.9986 0.0325
vn -0.0144 0.9994 0.0323
vn 0.0618 0.9980 0.0119
vn -0.0146 0.9994 0.0312
vn 0.0586 0.9970 -0.0499
vn 0.0028 0.9985 -0.0554
vn -0.0005 1.0000 0.0019
vn 0.0000 1.0000 0.0010
vn 0.0078 0.9999 -0.0098
vn 0.0047 0.9999 0.0090
vn -0.0030 0.9998 0.0186
vn -0.0029 0.9993 0.0373
vn 0.0079 0.9997 0.0216
vn 0.0049 0.9999 0.0143
vn -0.0155 0.9994 0.0295
vn -0.0234 0.9987 -0.0446
vn -0.0006 1.0000 0.0008
vn -0.0032 1.0000 0.0002
vn -0.0091 0.9999 -0.0123
vn -0.0194 0.9998 -0.0013
vn -0.0304 0.9995 0.0111
vn -0.0344 0.9986 0.0410
vn -0.0252 0.9990 0.0367
vn -0.0114 0.9999 0.0094
vn -0.0234 0.9997 0.0036
vn -0.0374 0.9985 -0.0395
vn 0.0185 0.9998 0.0000
vn 0.0147 0.9999 -0.0036
vn 0.0063 1.0000 -0.0044
vn 0.0008 1.0000 -0.0007
vn -0.0052 1.0000 -0.0065
vn -0.0327 0.9992 -0.0212
vn -0.0442 0.9989 -0.0131
vn -0.0455 0.9989 0.0111
vn -0.0426 0.9983 0.0400
vn -0.0501 0.9980 0.0392
vn -0.0595 0.9982 0.0113
vn -0.0591 0.9982 -0.0093
vn -0.0409 0.9989 -0.0228
vn 0.0920 0.9958 0.0000
vn 0.0824 0.9965 -0.0164
vn 0.0502 0.9983 -0.0303
vn 0.0142 0.9998 -0.0142
vn -0.0016 0.9999 -0.0136
vn -0.0158 0.9994 -0.0309
vn -0.0201 0.9996 -0.0184
vn -0.0183 0.9997 0.0168
vn -0.0127 0.9990 0.0424
vn -0.0108 0.9994 0.0314
vn -0.0145 0.9999 0.0066
vn -0.0136 0.9999 -0.0033
vn -0.0058 1.0000 -0.0040
vn 0.1244 0.9922 0.0000
vn 0.1144 0.9928 -0.0351
vn 0.0764 0.9940 -0.0785
vn 0.0272 0.9985 -0.0470
vn 0.0046 0.9998 -0.0172
vn 0.0125 0.9994 -0.0314
vn 0.0171 0.9997 -0.0177
vn 0.0171 0.9997 0.0177
vn 0.0118 0.9991 0.0419
vn 0.0050 0.9996 0.0274
vn 0.0010 1.0000 0.0032
vn 0.0511 0.9987 0.0000
vn 0.0469 0.9977 -0.0487
vn 0.0325 0.9929 -0.1148
vn 0.0138 0.9971 -0.0751
vn 0.0065 0.9998 -0.0174
vn 0.0306 0.9993 -0.0213
vn 0.0417 0.9990 -0.0128
vn 0.0417 0.9990 0.0128
vn 0.0278 0.9992 0.0286
vn 0.0099 0.9998 0.0171
vn 0.0011 1.0000 0.0013
vn 0.0000 0.9986 -0.0527
vn 0.0000 0.9922 -0.1243
vn 0.0000 0.9965 -0.0832
vn 0.0046 0.9999 -0.0163
vn 0.0363 0.9992 -0.0142
vn 0.0493 0.9987 -0.0093
vn 0.0493 0.9987 0.0093
vn 0.0320 0.9993 0.0189
vn 0.0097 0.9999 0.0098
vn 0.0003 1.0000 0.0003
vn 0.0001 1.0000 0.0001
vn 0.0022 1.0000 0.0023
vn 0.0081 1.0000 0.0003
vn 0.0082 1.0000 -0.0007
vn 0.0068 1.0000 -0.0021
vn 0.0121 0.9999 0.0057
vn 0.0322 0.9993 0.0167
vn 0.0590 0.9981 0.0170
vn 0.0739 0.9973 -0.0038
vn 0.0531 0.9983 -0.0240
vn 0.0027 1.0000 0.0014
vn 0.0187 0.9998 0.0014
vn 0.0176 0.9998 -0.0023
vn 0.0085 1.0000 -0.0026
vn 0.0085 1.0000 0.0012
vn 0.0307 0.9995 0.0104
vn 0.0637 0.9979 0.0103
vn 0.0702 0.9975 -0.0089
vn 0.0372 0.9992 -0.0117
vn -0.0049 0.9999 -0.0092
vn 0.0043 0.9999 -0.0094
vn -0.0057 1.0000 -0.0069
vn -0.0182 0.9997 -0.0150
vn -0.0082 0.9996 -0.0264
vn 0.0063 0.9996 -0.0273
vn 0.0154 0.9997 -0.0171
vn 0.0183 0.9998 -0.0098
vn -1.0000 -0.0000 0.0000
vn 1.0000 0.0000 0.0000
vn 0.0107 0.9999 0.0027
vn 0.0062 1.0000 0.0025
vn -0.0040 1.0000 -0.0017
s 1
f 208/1/1 13/2/1 2/3/1 190/4/1
f 20/5/2 1/6/2 3/7/2 36/8/2
f 190/4/1 2/3/1 7/9/1 192/10/1
f 7/9/2 2/3/2 10/11/2 8/12/2
f 70/13/3 57/14/4 8/15/5 10/16/6
f 187/17/7 70/18/3 10/19/6 29/20/8
f 83/21/5 96/22/5 36/23/5 3/24/5
f 96/22/5 109/25/5 35/26/5 36/23/5
f 109/25/5 122/27/9 34/28/5 35/26/5
f 122/27/9 135/29/10 33/30/11 34/28/5
f 135/29/10 148/31/12 32/32/13 33/30/11
f 148/31/12 161/33/14 31/34/15 32/32/13
f 161/33/14 174/35/16 30/36/17 31/34/15
f 174/35/16 187/17/7 29/20/8 30/36/17
f 2/3/2 13/2/2 29/37/2 10/11/2
f 13/2/2 14/38/2 30/39/2 29/37/2
f 14/38/2 15/40/2 31/41/2 30/39/2
f 15/40/2 16/42/2 32/43/2 31/41/2
f 16/42/2 17/44/2 33/45/2 32/43/2
f 17/44/2 18/46/2 34/47/2 33/45/2
f 18/46/2 19/48/2 35/49/2 34/47/2
f 19/48/2 20/5/2 36/8/2 35/49/2
f 188/50/1 1/6/1 20/5/1 194/51/1
f 194/51/1 20/5/1 19/48/1 196/52/1
f 196/52/1 19/48/1 18/46/1 198/53/1
f 198/53/1 18/46/1 17/44/1 200/54/1
f 200/54/1 17/44/1 16/42/1 202/55/1
f 202/55/1 16/42/1 15/40/1 204/56/1
f 204/56/1 15/40/1 14/38/1 206/57/1
f 206/57/1 14/38/1 13/2/1 208/1/1
f 38/58/5 37/59/5 175/60/5 162/61/5
f 162/61/5 175/60/5 176/62/5 163/63/5
f 163/63/5 176/62/5 177/64/18 164/65/19
f 164/65/19 177/64/18 178/66/20 165/67/21
f 166/68/22 179/69/23 180/70/24 167/71/25
f 167/71/25 180/70/24 181/72/26 168/73/27
f 168/73/27 181/72/26 182/74/28 169/75/29
f 169/75/29 182/74/28 183/76/30 170/77/31
f 170/77/31 183/76/30 184/78/32 171/79/33
f 171/79/33 184/78/32 185/80/34 172/81/35
f 172/81/35 185/80/34 186/82/36 173/83/37
f 173/83/37 186/82/36 187/17/7 174/35/16
f 39/84/5 38/58/5 162/61/5 149/85/5
f 149/85/5 162/61/5 163/63/5 150/86/5
f 150/86/5 163/63/5 164/65/19 151/87/38
f 151/87/38 164/65/19 165/67/21 152/88/39
f 153/89/40 166/68/22 167/71/25 154/90/41
f 154/90/41 167/71/25 168/73/27 155/91/42
f 155/91/42 168/73/27 169/75/29 156/92/43
f 156/92/43 169/75/29 170/77/31 157/93/44
f 157/93/44 170/77/31 171/79/33 158/94/45
f 158/94/45 171/79/33 172/81/35 159/95/46
f 159/95/46 172/81/35 173/83/37 160/96/47
f 160/96/47 173/83/37 174/35/16 161/33/14
f 40/97/5 39/84/5 149/85/5 136/98/5
f 136/98/5 149/85/5 150/86/5 137/99/5
f 137/99/5 150/86/5 151/87/38 138/100/48
f 138/100/48 151/87/38 152/88/39 139/101/49
f 140/102/50 153/89/40 154/90/41 141/103/51
f 141/103/51 154/90/41 155/91/42 142/104/52
f 142/104/52 155/91/42 156/92/43 143/105/53
f 143/105/53 156/92/43 157/93/44 144/106/54
f 144/106/54 157/93/44 158/94/45 145/107/55
f 145/107/55 158/94/45 159/95/46 146/108/56
f 146/108/56 159/95/46 160/96/47 147/109/57
f 147/109/57 160/96/47 161/33/14 148/31/12
f 41/110/58 40/97/5 136/98/5 123/111/59
f 123/111/59 136/98/5 137/99/5 124/112/60
f 124/112/60 137/99/5 138/100/48 125/113/61
f 125/113/61 138/100/48 139/101/49 126/114/62
f 127/115/63 140/102/50 141/103/51 128/116/64
f 128/116/64 141/103/51 142/104/52 129/117/65
f 129/117/65 142/104/52 143/105/53 130/118/66
f 130/118/66 143/105/53 144/106/54 131/119/67
f 131/119/67 144/106/54 145/107/55 132/120/68
f 132/120/68 145/107/55 146/108/56 133/121/69
f 133/121/69 146/108/56 147/109/57 134/122/70
f 134/122/70 147/109/57 148/31/12 135/29/10
f 42/123/71 41/110/58 123/111/59 110/124/72
f 110/124/72 123/111/59 124/112/60 111/125/73
f 111/125/73 124/112/60 125/113/61 112/126/74
f 112/126/74 125/113/61 126/114/62 113/127/75
f 114/128/76 127/115/63 128/116/64 115/129/77
f 115/129/77 128/116/64 129/117/65 116/130/78
f 116/130/78 129/117/65 130/118/66 117/131/79
f 117/131/79 130/118/66 131/119/67 118/132/80
f 118/132/80 131/119/67 132/120/68 119/133/81
f 119/133/81 132/120/68 133/121/69 120/134/82
f 120/134/82 133/121/69 134/122/70 121/135/83
f 121/135/83 134/122/70 135/29/10 122/27/9
f 43/136/84 42/123/71 110/124/72 97/137/85
f 97/137/85 110/124/72 111/125/73 98/138/86
f 98/138/86 111/125/73 112/126/74 99/139/87
f 99/139/87 112/126/74 113/127/75 100/140/88
f 101/141/89 114/128/76 115/129/77 102/142/90
f 102/142/90 115/129/77 116/130/78 103/143/91
f 103/143/91 116/130/78 117/131/79 104/144/92
f 104/144/92 117/131/79 118/132/80 105/145/93
f 105/145/93 118/132/80 119/133/81 106/146/94
f 106/146/94 119/133/81 120/134/82 107/147/5
f 107/147/5 120/134/82 121/135/83 108/148/5
f 108/148/5 121/135/83 122/27/9 109/25/5
f 44/149/95 43/136/84 97/137/85 84/150/96
f 84/150/96 97/137/85 98/138/86 85/151/97
f 85/151/97 98/138/86 99/139/87 86/152/98
f 86/152/98 99/139/87 100/140/88 87/153/99
f 88/154/100 101/141/89 102/142/90 89/155/101
f 89/155/101 102/142/90 103/143/91 90/156/102
f 90/156/102 103/143/91 104/144/92 91/157/103
f 91/157/103 104/144/92 105/145/93 92/158/104
f 92/158/104 105/145/93 106/146/94 93/159/105
f 93/159/105 106/146/94 107/147/5 94/160/5
f 94/160/5 107/147/5 108/148/5 95/161/5
f 95/161/5 108/148/5 109/25/5 96/22/5
f 12/162/5 44/149/95 84/150/96 71/163/106
f 71/163/106 84/150/96 85/151/97 72/164/107
f 72/164/107 85/151/97 86/152/98 73/165/108
f 73/165/108 86/152/98 87/153/99 74/166/109
f 75/167/110 88/154/100 89/155/101 76/168/111
f 76/168/111 89/155/101 90/156/102 77/169/112
f 77/169/112 90/156/102 91/157/103 78/170/113
f 78/170/113 91/157/103 92/158/104 79/171/114
f 79/171/114 92/158/104 93/159/105 80/172/115
f 80/172/115 93/159/105 94/160/5 81/173/5
f 81/173/5 94/160/5 95/161/5 82/174/5
f 82/174/5 95/161/5 96/22/5 83/21/5
f 37/59/5 11/175/5 58/176/5 175/60/5
f 175/60/5 58/176/5 59/177/5 176/62/5
f 176/62/5 59/177/5 60/178/116 177/64/18
f 177/64/18 60/178/116 61/179/117 178/66/20
f 179/69/23 62/180/118 63/181/119 180/70/24
f 180/70/24 63/181/119 64/182/120 181/72/26
f 181/72/26 64/182/120 65/183/121 182/74/28
f 182/74/28 65/183/121 66/184/122 183/76/30
f 183/76/30 66/184/122 67/185/123 184/78/32
f 184/78/32 67/185/123 68/186/124 185/80/34
f 185/80/34 68/186/124 69/187/125 186/82/36
f 186/82/36 69/187/125 70/18/3 187/17/7
f 11/188/5 9/189/5 45/190/5 58/191/5
f 58/191/5 45/190/5 46/192/5 59/193/5
f 59/193/5 46/192/5 47/194/5 60/195/116
f 60/195/116 47/194/5 48/196/126 61/197/117
f 62/198/118 49/199/127 50/200/128 63/201/119
f 63/201/119 50/200/128 51/202/129 64/203/120
f 64/203/120 51/202/129 52/204/130 65/205/121
f 65/205/121 52/204/130 53/206/131 66/207/122
f 66/207/122 53/206/131 54/208/132 67/209/123
f 67/209/123 54/208/132 55/210/133 68/211/124
f 68/211/124 55/210/133 56/212/134 69/213/125
f 69/213/125 56/212/134 57/14/4 70/13/3
f 27/214/1 207/215/1 209/216/1 28/217/1
f 26/218/1 205/219/1 207/215/1 27/214/1
f 25/220/1 203/221/1 205/219/1 26/218/1
f 24/222/1 201/223/1 203/221/1 25/220/1
f 23/224/1 199/225/1 201/223/1 24/222/1
f 22/226/1 197/227/1 199/225/1 23/224/1
f 21/228/1 195/229/1 197/227/1 22/226/1
f 4/230/1 189/231/1 195/229/1 21/228/1
f 5/232/1 191/233/1 193/234/1 6/235/1
f 28/217/1 209/216/1 191/233/1 5/232/1
f 210/236/135 211/237/136 152/88/39 165/67/21
f 211/237/136 212/238/137 139/101/49 152/88/39
f 212/238/137 213/239/138 126/114/62 139/101/49
f 213/239/138 214/240/139 113/127/75 126/114/62
f 214/240/139 215/241/140 100/140/88 113/127/75
f 215/241/140 216/242/141 87/153/99 100/140/88
f 216/242/141 217/243/142 74/166/109 87/153/99
f 217/243/143 218/244/143 189/231/143 74/166/143
f 218/244/1 219/245/1 195/229/1 189/231/1
f 219/245/1 220/246/1 197/227/1 195/229/1
f 220/246/1 221/247/1 199/225/1 197/227/1
f 221/247/1 222/248/1 201/223/1 199/225/1
f 222/248/1 223/249/1 203/221/1 201/223/1
f 223/249/1 224/250/1 205/219/1 203/221/1
f 224/250/1 225/251/1 207/215/1 205/219/1
f 225/251/1 226/252/1 209/216/1 207/215/1
f 226/252/1 227/253/1 191/233/1 209/216/1
f 227/253/1 228/254/1 193/234/1 191/233/1
f 228/254/144 229/255/144 48/196/144 193/234/144
f 229/255/145 230/256/146 61/197/117 48/196/126
f 230/257/146 231/258/147 178/66/20 61/179/117
f 231/258/147 210/236/135 165/67/21 178/66/20
f 179/69/23 166/68/22 210/236/135 231/258/147
f 62/180/118 179/69/23 231/258/147 230/257/146
f 49/199/127 62/198/118 230/256/146 229/255/145
f 192/10/144 49/199/144 229/255/144 228/254/144
f 190/4/1 192/10/1 228/254/1 227/253/1
f 208/1/1 190/4/1 227/253/1 226/252/1
f 206/57/1 208/1/1 226/252/1 225/251/1
f 204/56/1 206/57/1 225/251/1 224/250/1
f 202/55/1 204/56/1 224/250/1 223/249/1
f 200/54/1 202/55/1 223/249/1 222/248/1
f 198/53/1 200/54/1 222/248/1 221/247/1
f 196/52/1 198/53/1 221/247/1 220/246/1
f 194/51/1 196/52/1 220/246/1 219/245/1
f 188/50/1 194/51/1 219/245/1 218/244/1
f 75/167/143 188/50/143 218/244/143 217/243/143
f 88/154/100 75/167/110 217/243/142 216/242/141
f 101/141/89 88/154/100 216/242/141 215/241/140
f 114/128/76 101/141/89 215/241/140 214/240/139
f 127/115/63 114/128/76 214/240/139 213/239/138
f 140/102/50 127/115/63 213/239/138 212/238/137
f 153/89/40 140/102/50 212/238/137 211/237/136
f 166/68/22 153/89/40 211/237/136 210/236/135
