# Blender v3.1.2 OBJ File: 'Scene.blend'
# www.blender.org
o Sand_Plane.017
v -29.950001 0.050000 29.950001
v -29.950001 0.050000 -29.950001
v -29.950001 0.450000 -29.950001
v -29.950001 0.450000 29.950001
v -7.500000 0.050000 29.950001
v -7.500000 0.050000 -29.950001
v -7.500000 0.448906 29.950001
v -7.500000 0.450000 -29.950001
vt 3.407537 0.865832
vt 3.407537 1.927513
vt 3.407537 1.927513
vt 3.407537 0.865832
vt 3.035949 0.865832
vt 3.035949 0.865832
vt 3.035949 1.927513
vt 3.035949 1.927513
vt 10.060899 11.210706
vt 6.582221 11.210706
vt 6.582221 1.271634
vt 10.060899 1.271634
vn -1.0000 0.0000 0.0000
vn 0.0000 0.0000 -1.0000
vn 0.0000 0.0000 1.0000
vn 0.0000 1.0000 0.0000
vn 0.0000 -1.0000 0.0000
vn 1.0000 0.0000 0.0000
s off
f 2/1/1 1/2/1 4/3/1 3/4/1
f 6/5/2 2/1/2 3/4/2 8/6/2
f 1/2/3 5/7/3 7/8/3 4/3/3
f 4/9/4 7/10/4 8/11/4 3/12/4
f 1/2/5 2/1/5 6/5/5 5/7/5
f 7/10/6 5/7/6 6/5/6 8/11/6
