# Blender v3.1.2 OBJ File: 'Scene.blend'
# www.blender.org
o Seitenstreifen_Plane.006
v 29.950001 0.050000 -29.950001
v 29.950001 0.050000 21.847815
v 29.950001 0.450000 -29.950001
v 29.950001 0.447298 21.847815
v 28.770575 0.050000 -29.950001
v 28.770575 0.050000 21.847815
v 28.770575 0.450000 -29.950001
v 28.770575 0.447419 21.847815
v 29.253944 0.050000 21.847815
v 29.253944 0.050000 -29.950001
v 29.253944 0.450000 -29.950001
v 29.253944 0.447369 21.847815
vt 0.000255 0.481907
vt 0.000255 -0.999745
vt 0.000255 -0.999745
vt 0.000255 0.481907
vt 0.045685 0.481907
vt 0.045686 -0.999745
vt 0.118772 1.252853
vt 0.000662 1.252853
vt 0.000663 -2.599116
vt 0.118772 -2.599116
vt 0.077235 -0.999745
vt 0.077235 -0.999745
vt 0.045686 -0.999745
vt 0.200793 1.252853
vt 0.200793 -2.599116
vt 0.077234 0.481907
vn 1.0000 0.0000 0.0000
vn 0.0000 -1.0000 0.0000
vn 0.0001 1.0000 0.0001
vn 0.0000 0.0000 -1.0000
s off
f 2/1/1 1/2/1 3/3/1 4/4/1
f 9/5/2 10/6/2 1/2/2 2/1/2
f 12/7/3 4/8/3 3/9/3 11/10/3
f 10/6/4 5/11/4 7/12/4 11/13/4
f 1/2/4 10/6/4 11/13/4 3/3/4
f 8/14/3 12/7/3 11/10/3 7/15/3
f 6/16/2 5/11/2 10/6/2 9/5/2
