# Blender v3.1.2 OBJ File: 'Scene.blend'
# www.blender.org
o Sphere.007_Sphere.011
v 0.000000 2.398017 -0.293893
v 0.000000 0.904416 -0.475528
v 0.000000 -0.137642 -0.475528
v 0.000000 -0.404509 -0.293893
v 0.279509 2.398017 -0.090818
v 0.452254 0.904416 -0.146946
v 0.452254 -0.137642 -0.146946
v 0.279509 -0.404509 -0.090818
v 0.172746 2.398017 0.237764
v 0.279509 0.904416 0.384711
v 0.279509 -0.137642 0.384711
v 0.172746 -0.404509 0.237764
v 0.000000 -0.500000 0.000000
v -0.000000 3.163006 0.000000
v -0.172746 2.398017 0.237764
v -0.279509 0.904416 0.384711
v -0.279509 -0.137642 0.384711
v -0.172746 -0.404509 0.237764
v -0.279509 2.398017 -0.090818
v -0.452254 0.904416 -0.146946
v -0.452254 -0.137642 -0.146946
v -0.279509 -0.404509 -0.090818
vt 0.470839 0.969929
vt 0.470839 0.969929
vt 0.470839 0.969929
vt 0.470839 0.969929
vt 0.470839 0.969929
vt 0.470839 0.969929
vt 0.470839 0.969929
vt 0.470839 0.969929
vt 0.470839 0.969929
vt 0.470839 0.969929
vt 0.470839 0.969929
vt 0.470839 0.969929
vt 0.470839 0.969929
vt 0.470839 0.969929
vt 0.470839 0.969929
vt 0.470839 0.969929
vt 0.470839 0.969929
vt 0.470839 0.969929
vt 0.470839 0.969929
vt 0.470839 0.969929
vt 0.470839 0.969929
vt 0.470839 0.969929
vn 0.0000 -1.0000 0.0000
vn 0.0000 -0.7429 -0.6694
vn 0.6367 -0.7429 -0.2069
vn 0.0000 -0.2673 -0.9636
vn 0.0000 0.0591 -0.9982
vn 0.9494 0.0591 -0.3085
vn 0.9164 -0.2673 -0.2978
vn 0.0000 0.2314 -0.9729
vn 0.0000 1.0000 0.0000
vn 0.9253 0.2314 -0.3006
vn 0.5664 -0.2673 0.7796
vn 0.3935 -0.7429 0.5416
vn 0.5718 0.2314 0.7871
vn 0.5868 0.0591 0.8076
vn -0.5664 -0.2673 0.7796
vn -0.3935 -0.7429 0.5416
vn -0.5718 0.2314 0.7871
vn -0.5868 0.0591 0.8076
vn -0.9164 -0.2673 -0.2978
vn -0.6367 -0.7429 -0.2069
vn -0.9253 0.2314 -0.3006
vn -0.9494 0.0591 -0.3085
s 1
f 13/1/1 4/2/2 8/3/3
f 3/4/4 2/5/5 6/6/6 7/7/7
f 1/8/8 14/9/9 5/10/10
f 4/2/2 3/4/4 7/7/7 8/3/3
f 2/5/5 1/8/8 5/10/10 6/6/6
f 8/3/3 7/7/7 11/11/11 12/12/12
f 6/6/6 5/10/10 9/13/13 10/14/14
f 13/1/1 8/3/3 12/12/12
f 7/7/7 6/6/6 10/14/14 11/11/11
f 5/10/10 14/9/9 9/13/13
f 12/12/12 11/11/11 17/15/15 18/16/16
f 10/14/14 9/13/13 15/17/17 16/18/18
f 13/1/1 12/12/12 18/16/16
f 11/11/11 10/14/14 16/18/18 17/15/15
f 9/13/13 14/9/9 15/17/17
f 18/16/16 17/15/15 21/19/19 22/20/20
f 16/18/18 15/17/17 19/21/21 20/22/22
f 13/1/1 18/16/16 22/20/20
f 17/15/15 16/18/18 20/22/22 21/19/19
f 15/17/17 14/9/9 19/21/21
f 22/20/20 21/19/19 3/4/4 4/2/2
f 20/22/22 19/21/21 1/8/8 2/5/5
f 13/1/1 22/20/20 4/2/2
f 21/19/19 20/22/22 2/5/5 3/4/4
f 19/21/21 14/9/9 1/8/8
