# Blender v3.1.2 OBJ File: 'Scene.blend'
# www.blender.org
o Strasse_Plane.010
v 28.770575 0.055919 -29.950001
v 22.706211 0.055919 -29.950001
v 28.770575 0.455919 -29.950001
v 22.706211 0.455919 -29.950001
v 28.770575 0.453126 21.847815
v 22.706211 0.453712 21.847815
v 22.706211 0.448537 6.089631
v -7.500000 0.449306 8.035063
v 28.770575 0.453875 8.026739
v 28.770575 0.454806 1.146615
v 22.706211 0.455155 -2.945333
v 18.623226 0.453248 1.136440
v 22.706211 0.451190 5.220634
v 26.789192 0.454882 1.143686
v 22.603842 0.455084 -2.036814
v 22.301868 0.454927 -1.173913
v 21.815432 0.454692 -0.399898
v 21.168926 0.454390 0.246416
v 20.394768 0.454037 0.732622
v 19.531776 0.453650 1.034340
v 21.070072 0.457379 6.636572
v -7.508248 0.453248 2.872750
v 2.345315 0.453248 2.265042
v 10.245528 0.453248 1.961187
v 15.063790 0.453248 1.613925
v 18.866587 0.456405 6.884192
v 17.017139 0.453248 1.310071
v 15.688739 0.456405 7.204015
v 10.376924 0.456405 7.578074
v 2.428547 0.456406 7.844667
v 28.770575 0.055919 -29.455000
v 22.706211 0.055919 -29.455000
v 28.770569 0.105895 -29.599989
v 22.706205 0.105895 -29.599989
v 28.770758 -0.041873 21.847889
v 22.706394 -0.041288 21.847889
v 22.705858 -0.046463 6.089786
v -7.499824 -0.045694 8.035026
v 28.770794 -0.041125 8.026677
v 28.770708 -0.040194 1.146475
v 22.706226 -0.039845 -2.945421
v 18.623188 -0.041752 1.136592
v 22.705835 -0.043810 5.220701
v 26.789312 -0.040118 1.143512
v 22.603922 -0.039916 -2.037091
v 22.301949 -0.040072 -1.174190
v 21.815512 -0.040308 -0.400175
v 21.169006 -0.040610 0.246139
v 20.394848 -0.040963 0.732345
v 19.531857 -0.041350 1.034063
v 21.069384 -0.037620 6.637043
v -7.508072 -0.041752 2.872713
v 2.345406 -0.041752 2.265166
v 10.245543 -0.041752 1.961465
v 15.063817 -0.041752 1.614200
v 18.866690 -0.038594 6.884461
v 17.017227 -0.041752 1.310340
v 15.688766 -0.038594 7.204290
v 10.376939 -0.038594 7.578353
v 2.428641 -0.038594 7.844787
vt 0.578846 0.000000
vt 0.695027 0.000000
vt 0.695026 0.264783
vt 0.578846 0.301894
vt 0.695027 1.000000
vt 0.578847 1.000000
vt 0.578847 0.992337
vt 0.695027 0.992337
vt 0.695026 0.396592
vt 0.657067 0.396648
vt 0.578846 0.318542
vt 0.578846 0.474985
vt 0.576885 0.457580
vt 0.571100 0.441048
vt 0.561781 0.426220
vt 0.549395 0.413838
vt 0.534564 0.404523
vt 0.518030 0.398743
vt 0.500625 0.396787
vt 0.547500 0.291416
vt 0.000000 0.363529
vt 0.000157 0.264630
vt 0.190367 0.268275
vt 0.188774 0.375169
vt 0.342641 0.273381
vt 0.340125 0.380989
vt 0.444405 0.280546
vt 0.432433 0.387641
vt 0.505286 0.286672
vt 0.469855 0.393461
vt 0.578846 0.000000
vt 0.578846 0.301894
vt 0.695026 0.264783
vt 0.695027 0.000000
vt 0.695027 1.000000
vt 0.695027 0.992337
vt 0.578847 0.992337
vt 0.578847 1.000000
vt 0.578846 0.318542
vt 0.657067 0.396648
vt 0.695026 0.396592
vt 0.578846 0.474985
vt 0.500625 0.396787
vt 0.518030 0.398743
vt 0.534564 0.404523
vt 0.549395 0.413838
vt 0.561781 0.426220
vt 0.571100 0.441048
vt 0.576885 0.457580
vt 0.547500 0.291416
vt 0.000000 0.363529
vt 0.188774 0.375169
vt 0.190367 0.268275
vt 0.000157 0.264630
vt 0.340125 0.380989
vt 0.342641 0.273381
vt 0.432433 0.387641
vt 0.444405 0.280546
vt 0.469855 0.393461
vt 0.505286 0.286672
vn -0.0004 1.0000 -0.0001
vn 0.0000 0.0000 -1.0000
vn -0.0006 1.0000 0.0005
vn 0.0000 1.0000 0.0000
vn -0.0002 1.0000 0.0006
vn 0.0027 1.0000 -0.0013
vn -0.0004 1.0000 0.0001
vn -0.0000 1.0000 -0.0006
vn -0.0001 1.0000 -0.0006
vn -0.0003 1.0000 -0.0005
vn 0.0004 -1.0000 0.0001
vn 0.0000 0.9454 0.3259
vn 0.0006 -1.0000 -0.0005
vn 0.0016 -1.0000 -0.0050
vn 0.0002 -1.0000 -0.0006
vn -0.0027 -1.0000 0.0013
vn 0.0004 -1.0000 -0.0001
vn 0.0000 -1.0000 0.0006
vn 0.0001 -1.0000 0.0006
vn 0.0003 -1.0000 0.0005
vn 1.0000 0.0001 -0.0000
vn 1.0000 0.0000 0.0000
vn -1.0000 -0.0000 -0.0000
vn 0.0000 -1.0000 0.0000
vn 0.0000 0.0002 1.0000
vn 1.0000 0.0004 0.0000
vn -1.0000 0.0002 0.0000
vn -0.9937 -0.0001 -0.1119
vn -0.9439 0.0000 -0.3303
vn -0.8467 0.0002 -0.5321
vn -0.7070 0.0003 -0.7072
vn -0.5319 0.0004 -0.8468
vn -0.3300 0.0005 -0.9440
vn -0.1119 0.0001 -0.9937
vn -1.0000 -0.0004 0.0016
vn -0.0384 -0.0004 -0.9993
vn -0.0719 -0.0006 -0.9974
vn -0.1537 -0.0006 -0.9881
vn -0.1075 -0.0004 -0.9942
vn 0.1116 0.0007 0.9937
vn 0.1001 0.0006 0.9950
vn 0.0702 0.0006 0.9975
vn 0.0335 0.0004 0.9994
vn 0.0192 0.0001 0.9998
vn -0.0615 -0.0001 -0.9981
vn 0.3171 0.0003 0.9484
s off
f 6/1/1 5/2/1 9/3/1 7/4/1
f 1/5/2 2/6/2 4/7/2 3/8/2
f 7/4/3 9/3/3 10/9/3 14/10/3 13/11/3
f 3/8/4 4/7/4 11/12/4 14/10/4 10/9/4
f 11/12/5 15/13/5 16/14/5 17/15/5 18/16/5 19/17/5 20/18/5 12/19/5 13/11/5 14/10/5
f 12/19/6 21/20/6 7/4/6 13/11/6
f 22/21/7 8/22/7 30/23/7 23/24/7
f 23/24/8 30/23/8 29/25/8 24/26/8
f 24/26/8 29/25/8 28/27/8 25/28/8
f 25/28/9 28/27/9 26/29/9 27/30/9
f 27/30/10 26/29/10 21/20/10 12/19/10
f 36/31/11 37/32/11 39/33/11 35/34/11
f 31/35/12 33/36/12 34/37/12 32/38/12
f 37/32/13 43/39/13 44/40/13 40/41/13 39/33/13
f 33/36/14 40/41/14 44/40/14 41/42/14 34/37/14
f 41/42/15 44/40/15 43/39/15 42/43/15 50/44/15 49/45/15 48/46/15 47/47/15 46/48/15 45/49/15
f 42/43/16 43/39/16 37/32/16 51/50/16
f 52/51/17 53/52/17 60/53/17 38/54/17
f 53/52/18 54/55/18 59/56/18 60/53/18
f 54/55/18 55/57/18 58/58/18 59/56/18
f 55/57/19 57/59/19 56/60/19 58/58/19
f 57/59/20 42/43/20 51/50/20 56/60/20
f 3/8/21 10/9/21 40/41/21 33/36/21
f 1/5/22 3/8/22 33/36/22 31/35/22
f 4/7/23 2/6/23 32/38/23 34/37/23
f 2/6/24 1/5/24 31/35/24 32/38/24
f 5/2/25 6/1/25 36/31/25 35/34/25
f 9/3/26 5/2/26 35/34/26 39/33/26
f 10/9/26 9/3/26 39/33/26 40/41/26
f 6/1/27 7/4/27 37/32/27 36/31/27
f 15/13/28 11/12/28 41/42/28 45/49/28
f 16/14/29 15/13/29 45/49/29 46/48/29
f 17/15/30 16/14/30 46/48/30 47/47/30
f 18/16/31 17/15/31 47/47/31 48/46/31
f 19/17/32 18/16/32 48/46/32 49/45/32
f 20/18/33 19/17/33 49/45/33 50/44/33
f 12/19/34 20/18/34 50/44/34 42/43/34
f 11/12/23 4/7/23 34/37/23 41/42/23
f 8/22/35 22/21/35 52/51/35 38/54/35
f 23/24/36 24/26/36 54/55/36 53/52/36
f 24/26/37 25/28/37 55/57/37 54/55/37
f 25/28/38 27/30/38 57/59/38 55/57/38
f 27/30/39 12/19/39 42/43/39 57/59/39
f 21/20/40 26/29/40 56/60/40 51/50/40
f 26/29/41 28/27/41 58/58/41 56/60/41
f 28/27/42 29/25/42 59/56/42 58/58/42
f 29/25/43 30/23/43 60/53/43 59/56/43
f 30/23/44 8/22/44 38/54/44 60/53/44
f 22/21/45 23/24/45 53/52/45 52/51/45
f 7/4/46 21/20/46 51/50/46 37/32/46
