# Blender v3.1.2 OBJ File: 'Scene.blend'
# www.blender.org
o TableDining.001
v -0.468984 0.034755 0.028004
v 0.029995 0.696117 -0.071666
v -0.468765 0.034755 -0.031457
v 0.071885 0.696117 -0.029466
v 0.468984 0.034755 -0.028004
v 0.071666 0.696117 0.029995
v 0.468765 0.034755 0.031457
v 0.029466 0.696117 0.071885
v 0.270215 0.000000 0.030726
v 0.028003 0.034755 0.468984
v 0.270215 0.155653 0.030726
v -0.029995 0.696117 0.071666
v 0.270434 0.155653 -0.028735
v -0.031458 0.034755 0.468765
v 0.270434 0.000000 -0.028735
v -0.071885 0.696117 0.029466
v -0.030726 0.000000 0.270215
v -0.028002 0.034755 -0.468984
v -0.030726 0.155653 0.270215
v -0.071666 0.696117 -0.029995
v 0.028735 0.155653 0.270434
v 0.031458 0.034755 -0.468765
v 0.028735 0.000000 0.270434
v -0.029466 0.696117 -0.071885
v 0.030726 0.000000 -0.270215
v 0.071885 0.155653 -0.029466
v 0.030726 0.155653 -0.270215
v 0.029995 0.000000 -0.071666
v -0.028734 0.155653 -0.270434
v -0.029995 0.155653 0.071666
v -0.028734 0.000000 -0.270434
v 0.071885 0.000000 -0.029466
v -0.270216 0.000000 -0.030726
v -0.029466 0.155653 -0.071885
v -0.270216 0.155653 -0.030726
v 0.071666 0.000000 0.029995
v -0.270434 0.155653 0.028735
v 0.029995 0.155653 -0.071666
v -0.270434 0.000000 0.028735
v 0.029466 0.000000 0.071885
v -0.468765 0.000000 -0.031457
v 0.029466 0.155653 0.071885
v -0.468984 0.000000 0.028004
v -0.029995 0.000000 0.071666
v -0.031458 0.000000 0.468765
v -0.071666 0.155653 -0.029995
v 0.028003 0.000000 0.468984
v -0.071885 0.000000 0.029466
v 0.468765 0.000000 0.031457
v 0.071666 0.155653 0.029995
v 0.468984 0.000000 -0.028004
v -0.071666 0.000000 -0.029995
v 0.031458 0.000000 -0.468765
v -0.071885 0.155653 0.029466
v -0.028002 0.000000 -0.468984
v -0.029466 0.000000 -0.071885
v -0.000000 0.754531 -0.645651
v 0.125960 0.754531 -0.633245
v 0.247080 0.754531 -0.596504
v 0.358704 0.754531 -0.536839
v 0.456544 0.754531 -0.456544
v 0.536839 0.754531 -0.358705
v 0.596504 0.754531 -0.247080
v 0.633245 0.754531 -0.125960
v 0.645651 0.754531 -0.000000
v 0.633245 0.754531 0.125960
v 0.596504 0.754531 0.247080
v 0.536839 0.754531 0.358705
v 0.456544 0.754531 0.456544
v 0.358704 0.754531 0.536839
v 0.247080 0.754531 0.596504
v 0.125960 0.754531 0.633245
v -0.000000 0.754531 0.645651
v -0.125961 0.754531 0.633245
v -0.247080 0.754531 0.596504
v -0.358705 0.754531 0.536839
v -0.456545 0.754531 0.456544
v -0.536840 0.754531 0.358704
v -0.596504 0.754531 0.247080
v -0.633245 0.754531 0.125960
v -0.645651 0.754531 -0.000001
v -0.633245 0.754531 -0.125961
v -0.596504 0.754531 -0.247081
v -0.536839 0.754531 -0.358705
v -0.456544 0.754531 -0.456545
v -0.358704 0.754531 -0.536840
v -0.247079 0.754531 -0.596504
v -0.125959 0.754531 -0.633245
v -0.000000 0.696117 -0.645651
v 0.125960 0.696117 -0.633245
v 0.247080 0.696117 -0.596504
v 0.358704 0.696117 -0.536839
v 0.456544 0.696117 -0.456544
v 0.536839 0.696117 -0.358705
v 0.596504 0.696117 -0.247080
v 0.633245 0.696117 -0.125960
v 0.645651 0.696117 -0.000000
v 0.633245 0.696117 0.125960
v 0.596504 0.696117 0.247080
v 0.536839 0.696117 0.358705
v 0.456544 0.696117 0.456544
v 0.358704 0.696117 0.536839
v 0.247080 0.696117 0.596504
v 0.125960 0.696117 0.633245
v -0.000000 0.696117 0.645651
v -0.125961 0.696117 0.633245
v -0.247080 0.696117 0.596504
v -0.358705 0.696117 0.536839
v -0.456545 0.696117 0.456544
v -0.536840 0.696117 0.358704
v -0.596504 0.696117 0.247080
v -0.633245 0.696117 0.125960
v -0.645651 0.696117 -0.000001
v -0.633245 0.696117 -0.125961
v -0.596504 0.696117 -0.247081
v -0.536839 0.696117 -0.358705
v -0.456544 0.696117 -0.456545
v -0.358704 0.696117 -0.536840
v -0.247079 0.696117 -0.596504
v -0.125959 0.696117 -0.633245
vt 0.681972 0.015044
vt 0.681972 0.044775
vt 0.604145 0.044775
vt 0.604145 0.015044
vt 0.565952 0.786805
vt 0.565952 0.708971
vt 0.665237 0.769426
vt 0.665237 0.786805
vt 0.466667 0.942473
vt 0.466667 0.864639
vt 0.565952 0.864639
vt 0.565952 0.942473
vt 0.952208 0.015044
vt 0.952208 0.044774
vt 0.952208 0.163698
vt 0.952208 0.193429
vt 0.681972 0.193429
vt 0.681972 0.163698
vt 0.333467 0.972206
vt 0.333467 0.942473
vt 0.449709 0.942473
vt 0.449709 0.972206
vt 0.681972 0.133967
vt 0.604146 0.163698
vt 0.604146 0.133967
vt 0.268096 0.808256
vt 0.190262 0.808256
vt 0.190262 0.708971
vt 0.207641 0.708971
vt 0.952208 0.133967
vt 0.681972 0.223160
vt 0.604145 0.223160
vt 0.604145 0.193429
vt 0.367382 0.708971
vt 0.367382 0.786805
vt 0.268096 0.726350
vt 0.268096 0.708971
vt 0.952208 0.074505
vt 0.681972 0.074506
vt 0.681972 0.104236
vt 0.604145 0.104237
vt 0.604145 0.074506
vt 0.565952 0.864639
vt 0.565952 0.786805
vt 0.665237 0.847260
vt 0.665237 0.864639
vt 0.952208 0.223160
vt 0.134896 0.942473
vt 0.134896 0.972206
vt 0.018654 0.972206
vt 0.018654 0.942473
vt 0.952208 0.104236
vt 0.367382 0.864639
vt 0.367381 0.942473
vt 0.268096 0.882018
vt 0.268096 0.864639
vt 0.548994 0.972206
vt 0.548994 0.942473
vt 0.665237 0.942473
vt 0.665237 0.972206
vt 0.151854 0.942473
vt 0.151854 0.912739
vt 0.268096 0.912739
vt 0.268096 0.942473
vt 0.160529 0.798171
vt 0.190262 0.798171
vt 0.190262 0.815551
vt 0.160529 0.815551
vt 0.665237 0.808256
vt 0.743071 0.808256
vt 0.743071 0.907541
vt 0.725692 0.907541
vt 0.190262 0.738704
vt 0.190262 0.768438
vt 0.172883 0.768438
vt 0.172883 0.738704
vt 0.952207 0.252891
vt 0.681972 0.252891
vt 0.367382 0.786805
vt 0.367382 0.864639
vt 0.268096 0.864639
vt 0.268096 0.847260
vt 0.190262 0.768438
vt 0.190262 0.798171
vt 0.172883 0.798171
vt 0.172883 0.768438
vt 0.190262 0.708971
vt 0.190262 0.738704
vt 0.172883 0.738704
vt 0.172883 0.708971
vt 0.665237 0.864639
vt 0.665237 0.882018
vt 0.234182 0.972206
vt 0.234182 0.942473
vt 0.466667 0.786805
vt 0.466667 0.708971
vt 0.234182 0.942473
vt 0.234182 0.972206
vt 0.466667 0.708971
vt 0.466667 0.786805
vt 0.268096 0.907541
vt 0.190262 0.907541
vt 0.466667 0.786805
vt 0.466667 0.864639
vt 0.449709 0.972206
vt 0.449709 0.942473
vt 0.466667 0.864639
vt 0.466667 0.786805
vt 0.665237 0.708971
vt 0.743071 0.708971
vt 0.052568 0.942473
vt 0.052568 0.912739
vt 0.466667 0.864639
vt 0.466667 0.942473
vt 0.987587 0.625627
vt 0.961475 0.625627
vt 0.961475 0.569046
vt 0.987588 0.569046
vt 0.961475 0.512466
vt 0.987588 0.512466
vt 0.961475 0.455886
vt 0.987588 0.455886
vt 0.961475 0.399306
vt 0.987588 0.399306
vt 0.961475 0.342726
vt 0.987588 0.342726
vt 0.961476 0.286145
vt 0.987588 0.286145
vt 0.961476 0.229565
vt 0.987588 0.229565
vt 0.961476 0.172985
vt 0.987588 0.172985
vt 0.961476 0.116405
vt 0.987589 0.116405
vt 0.961476 0.059824
vt 0.987589 0.059824
vt 0.987589 0.986379
vt 0.961476 0.986379
vt 0.961476 0.929799
vt 0.987588 0.929799
vt 0.961475 0.873219
vt 0.987588 0.873219
vt 0.961475 0.816639
vt 0.987588 0.816639
vt 0.961475 0.760059
vt 0.987587 0.760059
vt 0.961474 0.703479
vt 0.987587 0.703479
vt 0.961474 0.646899
vt 0.987587 0.646899
vt 0.961474 0.590319
vt 0.987587 0.590319
vt 0.961474 0.533738
vt 0.987587 0.533738
vt 0.961474 0.477158
vt 0.987587 0.477158
vt 0.961474 0.420578
vt 0.987587 0.420578
vt 0.961474 0.363998
vt 0.987587 0.363998
vt 0.961474 0.307418
vt 0.987586 0.307418
vt 0.961474 0.250838
vt 0.987587 0.250838
vt 0.961474 0.194258
vt 0.987587 0.194258
vt 0.961474 0.137678
vt 0.987587 0.137678
vt 0.961474 0.081097
vt 0.987587 0.081097
vt 0.961474 0.024517
vt 0.987587 0.024517
vt 0.987587 0.903289
vt 0.961474 0.903289
vt 0.961474 0.851947
vt 0.987587 0.851947
vt 0.961474 0.795367
vt 0.987587 0.795367
vt 0.961475 0.738787
vt 0.987587 0.738787
vt -0.001748 0.208274
vt 0.033415 0.155649
vt 0.078168 0.110896
vt 0.130793 0.075733
vt 0.189266 0.051513
vt 0.251341 0.039165
vt 0.314633 0.039165
vt 0.376707 0.051512
vt 0.435181 0.075733
vt 0.487806 0.110895
vt 0.532559 0.155649
vt 0.567722 0.208274
vt 0.591943 0.266747
vt 0.604290 0.328822
vt 0.604290 0.392113
vt 0.591943 0.454188
vt 0.567722 0.512662
vt 0.532560 0.565286
vt 0.487806 0.610040
vt 0.435181 0.645203
vt 0.376708 0.669423
vt 0.314633 0.681771
vt 0.251341 0.681771
vt 0.189266 0.669423
vt 0.130793 0.645203
vt 0.078168 0.610040
vt 0.033415 0.565286
vt -0.001748 0.512662
vt -0.025968 0.454188
vt -0.038316 0.392113
vt -0.038316 0.328822
vt -0.025968 0.266747
vt 0.961475 0.682206
vt 0.987587 0.682206
vt 0.189266 0.051512
vt 0.251342 0.039165
vt 0.314633 0.039165
vt 0.376708 0.051512
vt 0.435181 0.075733
vt 0.487806 0.110895
vt 0.532560 0.155649
vt 0.567722 0.208274
vt 0.591943 0.266747
vt 0.604290 0.328822
vt 0.604290 0.392113
vt 0.591943 0.454188
vt 0.567722 0.512662
vt 0.532560 0.565286
vt 0.487806 0.610040
vt 0.435181 0.645203
vt 0.376707 0.669423
vt 0.314633 0.681771
vt 0.251341 0.681771
vt 0.189266 0.669423
vt 0.130793 0.645202
vt 0.078168 0.610040
vt 0.033414 0.565286
vt -0.001748 0.512661
vt -0.025968 0.454188
vt -0.038316 0.392113
vt -0.038315 0.328821
vt -0.025968 0.266746
vt -0.001747 0.208272
vt 0.033415 0.155648
vt 0.078169 0.110895
vt 0.130794 0.075733
vn 0.8610 0.0000 0.5086
vn 0.5023 0.0000 0.8647
vn 0.7045 0.0000 0.7097
vn -0.0037 0.0000 1.0000
vn 0.0037 0.0000 -1.0000
vn 0.9225 0.0000 0.3861
vn 0.3793 0.0000 0.9253
vn -0.3793 0.0000 -0.9253
vn 0.3861 0.0000 -0.9225
vn 0.5086 0.0000 -0.8610
vn -0.5023 0.0000 -0.8647
vn -0.2701 0.9628 -0.0010
vn -0.5201 0.8541 -0.0019
vn -0.8610 0.0000 -0.5086
vn -0.7045 0.0000 -0.7097
vn 1.0000 0.0000 0.0037
vn -0.9225 0.0000 -0.3861
vn 0.8647 0.0000 -0.5023
vn 0.7097 0.0000 -0.7045
vn -1.0000 0.0000 -0.0037
vn -0.3861 0.0000 0.9225
vn -0.5086 0.0000 0.8610
vn -0.8647 0.0000 0.5023
vn -0.7097 0.0000 0.7045
vn 0.9253 0.0000 -0.3793
vn 0.0010 0.9628 -0.2701
vn 0.0019 0.8541 -0.5201
vn -0.9253 0.0000 0.3793
vn -0.0010 0.9628 0.2701
vn -0.0019 0.8541 0.5201
vn 0.2701 0.9628 0.0010
vn 0.5201 0.8541 0.0019
vn 0.0000 1.0000 0.0000
vn 0.0000 0.0000 -1.0000
vn 0.1951 0.0000 -0.9808
vn 0.3827 0.0000 -0.9239
vn 0.5556 0.0000 -0.8315
vn 0.7071 0.0000 -0.7071
vn 0.8315 0.0000 -0.5556
vn 0.9239 0.0000 -0.3827
vn 0.9808 0.0000 -0.1951
vn 1.0000 0.0000 -0.0000
vn 0.9808 0.0000 0.1951
vn 0.9239 0.0000 0.3827
vn 0.8315 0.0000 0.5556
vn 0.7071 0.0000 0.7071
vn 0.5556 0.0000 0.8315
vn 0.3827 0.0000 0.9239
vn 0.1951 0.0000 0.9808
vn -0.0000 0.0000 1.0000
vn -0.1951 0.0000 0.9808
vn -0.3827 0.0000 0.9239
vn -0.5556 0.0000 0.8315
vn -0.7071 0.0000 0.7071
vn -0.8315 0.0000 0.5556
vn -0.9239 0.0000 0.3827
vn -0.9808 0.0000 0.1951
vn -1.0000 0.0000 -0.0000
vn -0.9808 0.0000 -0.1951
vn -0.9239 0.0000 -0.3827
vn -0.8315 0.0000 -0.5556
vn -0.7071 0.0000 -0.7071
vn -0.5556 0.0000 -0.8315
vn -0.3827 0.0000 -0.9239
vn -0.1951 0.0000 -0.9808
vn 0.0000 -1.0000 -0.0000
s 1
f 50/1/1 42/2/2 40/3/3 36/4/3
f 39/5/4 37/6/4 1/7/4 43/8/4
f 46/9/5 52/10/5 33/11/5 35/12/5
f 6/13/6 8/14/7 42/2/2 50/1/1
f 24/15/8 2/16/9 38/17/10 34/18/11
f 37/19/12 35/20/12 3/21/13 1/22/13
f 46/23/14 34/18/11 56/24/15 52/25/15
f 27/26/16 25/27/16 53/28/16 22/29/16
f 20/30/17 24/15/8 34/18/11 46/23/14
f 38/17/10 26/31/18 32/32/19 28/33/19
f 31/34/20 29/35/20 18/36/20 55/37/20
f 8/14/7 12/38/21 30/39/22 42/2/2
f 30/39/22 54/40/23 48/41/24 44/42/24
f 23/43/16 21/44/16 10/45/16 47/46/16
f 2/16/9 4/47/25 26/31/18 38/17/10
f 29/48/26 27/49/26 22/50/27 18/51/27
f 12/38/21 16/52/28 54/40/23 30/39/22
f 15/53/5 13/54/5 5/55/5 51/56/5
f 21/57/29 19/58/29 14/59/30 10/60/30
f 13/61/31 11/62/31 7/63/32 5/64/32
f 16/52/28 20/30/17 46/23/14 54/40/23
f 18/65/5 22/66/5 53/67/5 55/68/5
f 11/69/4 9/70/4 49/71/4 7/72/4
f 1/73/20 3/74/20 41/75/20 43/76/20
f 4/47/25 6/77/6 50/78/1 26/31/18
f 19/79/20 17/80/20 45/81/20 14/82/20
f 5/83/16 7/84/16 49/85/16 51/86/16
f 10/87/4 14/88/4 45/89/4 47/90/4
f 35/12/5 33/11/5 41/91/5 3/92/5
f 54/93/33 46/94/33 35/20/12 37/19/12
f 48/95/4 54/96/4 37/6/4 39/5/4
f 34/97/33 38/98/33 27/49/26 29/48/26
f 56/99/20 34/100/20 29/35/20 31/34/20
f 38/101/16 28/102/16 25/27/16 27/26/16
f 30/103/20 44/104/20 17/80/20 19/79/20
f 42/105/33 30/106/33 19/58/29 21/57/29
f 40/107/16 42/108/16 21/44/16 23/43/16
f 50/109/4 36/110/4 9/70/4 11/69/4
f 26/111/33 50/112/33 11/62/31 13/61/31
f 32/113/5 26/114/5 13/54/5 15/53/5
f 89/115/34 57/116/34 58/117/35 90/118/35
f 90/118/35 58/117/35 59/119/36 91/120/36
f 91/120/36 59/119/36 60/121/37 92/122/37
f 92/122/37 60/121/37 61/123/38 93/124/38
f 93/124/38 61/123/38 62/125/39 94/126/39
f 94/126/39 62/125/39 63/127/40 95/128/40
f 95/128/40 63/127/40 64/129/41 96/130/41
f 96/130/41 64/129/41 65/131/42 97/132/42
f 97/132/42 65/131/42 66/133/43 98/134/43
f 98/134/43 66/133/43 67/135/44 99/136/44
f 99/137/44 67/138/44 68/139/45 100/140/45
f 100/140/45 68/139/45 69/141/46 101/142/46
f 101/142/46 69/141/46 70/143/47 102/144/47
f 102/144/47 70/143/47 71/145/48 103/146/48
f 103/146/48 71/145/48 72/147/49 104/148/49
f 104/148/49 72/147/49 73/149/50 105/150/50
f 105/150/50 73/149/50 74/151/51 106/152/51
f 106/152/51 74/151/51 75/153/52 107/154/52
f 107/154/52 75/153/52 76/155/53 108/156/53
f 108/156/53 76/155/53 77/157/54 109/158/54
f 109/158/54 77/157/54 78/159/55 110/160/55
f 110/160/55 78/159/55 79/161/56 111/162/56
f 111/162/56 79/161/56 80/163/57 112/164/57
f 112/164/57 80/163/57 81/165/58 113/166/58
f 113/166/58 81/165/58 82/167/59 114/168/59
f 114/168/59 82/167/59 83/169/60 115/170/60
f 115/170/60 83/169/60 84/171/61 116/172/61
f 116/173/61 84/174/61 85/175/62 117/176/62
f 117/176/62 85/175/62 86/177/63 118/178/63
f 118/178/63 86/177/63 87/179/64 119/180/64
f 58/181/33 57/182/33 88/183/33 87/184/33 86/185/33 85/186/33 84/187/33 83/188/33 82/189/33 81/190/33 80/191/33 79/192/33 78/193/33 77/194/33 76/195/33 75/196/33 74/197/33 73/198/33 72/199/33 71/200/33 70/201/33 69/202/33 68/203/33 67/204/33 66/205/33 65/206/33 64/207/33 63/208/33 62/209/33 61/210/33 60/211/33 59/212/33
f 119/180/64 87/179/64 88/213/65 120/214/65
f 120/214/65 88/213/65 57/116/34 89/115/34
f 89/215/66 90/216/66 91/217/66 92/218/66 93/219/66 94/220/66 95/221/66 96/222/66 97/223/66 98/224/66 99/225/66 100/226/66 101/227/66 102/228/66 103/229/66 104/230/66 105/231/66 106/232/66 107/233/66 108/234/66 109/235/66 110/236/66 111/237/66 112/238/66 113/239/66 114/240/66 115/241/66 116/242/66 117/243/66 118/244/66 119/245/66 120/246/66
