# Blender v3.1.2 OBJ File: 'Scene.blend'
# www.blender.org
o TarpCoveredObject.002
v -0.417803 0.100673 0.171447
v -0.417803 0.547275 0.171447
v -0.417803 0.100673 -0.182932
v -0.417803 0.547275 -0.244298
v 0.487177 0.100673 0.171447
v 0.487177 0.547275 0.171447
v 0.487177 0.100673 -0.421284
v 0.487177 0.547275 -0.421284
v -1.084074 0.077286 0.607980
v 0.700773 0.191399 0.641146
v -0.881860 0.000000 -0.563950
v 0.709672 0.103618 -0.566603
v -0.948074 0.166186 -0.564802
v -1.004951 0.324445 -0.484917
v -1.011927 0.381972 -0.302647
v -0.935436 0.322364 -0.140745
v -0.791255 0.224861 -0.055721
v -0.744034 0.194096 0.133373
v -0.894768 0.292297 0.173981
v -1.023370 0.398678 0.238885
v -1.091910 0.382679 0.409125
v -1.090056 0.258477 0.549724
v -0.910552 0.080294 0.541524
v -0.722068 0.098964 0.535048
v -0.569425 0.134950 0.633615
v -0.387318 0.164270 0.649467
v -0.227292 0.166492 0.532921
v -0.062369 0.196169 0.568527
v 0.098556 0.247514 0.669197
v 0.187444 0.126268 0.562681
v 0.364070 0.070237 0.539466
v 0.515568 0.164738 0.621328
v 0.705899 0.211608 0.463643
v 0.656560 0.155499 0.280028
v 0.658962 0.275938 0.128946
v 0.738208 0.471268 0.206444
v 0.734573 0.581973 0.031363
v 0.592785 0.432006 -0.054883
v 0.631681 0.441595 -0.227202
v 0.748449 0.574612 -0.340223
v 0.735497 0.447523 -0.529377
v 0.723697 0.244784 -0.454259
v 0.529804 0.109599 -0.560817
v 0.350425 0.106540 -0.534026
v 0.159276 0.109064 -0.505662
v -0.019311 0.139853 -0.538005
v -0.198022 0.146934 -0.478501
v -0.319948 0.141132 -0.340627
v -0.424566 0.136396 -0.195886
v -0.550537 0.126920 -0.330982
v -0.564562 0.129846 -0.517102
v -0.718896 0.076918 -0.607385
v -0.919793 0.264500 0.553032
v -0.934499 0.437162 0.476527
v -0.900222 0.507805 0.315676
v -0.784297 0.434376 0.203732
v -0.640639 0.343618 0.134265
v -0.685277 0.370445 -0.047668
v -0.817406 0.456127 -0.154512
v -0.866285 0.482777 -0.336272
v -0.834702 0.383885 -0.481522
v -0.783359 0.236295 -0.567176
v -0.739915 0.272777 0.511383
v -0.767245 0.464404 0.521655
v -0.773588 0.605082 0.401606
v -0.652015 0.540246 0.280578
v -0.547366 0.505715 0.137900
v -0.595193 0.529902 -0.035377
v -0.700870 0.587708 -0.176000
v -0.710487 0.552012 -0.336145
v -0.685420 0.438687 -0.435615
v -0.631797 0.297902 -0.498366
v -0.581218 0.313575 0.593251
v -0.587361 0.480235 0.527380
v -0.598590 0.640127 0.439744
v -0.603829 0.719848 0.282578
v -0.482581 0.673905 0.144874
v -0.505959 0.685484 -0.034097
v -0.575301 0.711885 -0.193829
v -0.567961 0.618541 -0.300451
v -0.565190 0.480000 -0.340597
v -0.558820 0.307487 -0.342629
v -0.402707 0.339475 0.613145
v -0.412696 0.519979 0.559024
v -0.415513 0.662739 0.450157
v -0.424258 0.755450 0.297922
v -0.422566 0.861088 0.142356
v -0.440094 0.869653 -0.036673
v -0.456350 0.855983 -0.221077
v -0.467390 0.674717 -0.236214
v -0.464520 0.494206 -0.212522
v -0.442358 0.316514 -0.200843
v -0.234837 0.350963 0.502635
v -0.229446 0.535703 0.548943
v -0.229583 0.696763 0.458480
v -0.239176 0.750708 0.287462
v -0.249358 0.838742 0.128986
v -0.266512 0.901341 -0.050336
v -0.284270 0.850827 -0.229437
v -0.303764 0.672288 -0.274281
v -0.340483 0.506669 -0.345665
v -0.328884 0.324191 -0.343698
v -0.081527 0.362556 0.532850
v -0.054045 0.544444 0.540144
v -0.042904 0.704740 0.448868
v -0.060257 0.788309 0.286702
v -0.075845 0.780129 0.105651
v -0.091238 0.844220 -0.063160
v -0.109937 0.810403 -0.243978
v -0.138307 0.669585 -0.352446
v -0.160787 0.496217 -0.399553
v -0.178911 0.323257 -0.452412
v 0.117085 0.366950 0.568298
v 0.109712 0.499117 0.478363
v 0.133984 0.665648 0.422218
v 0.117431 0.783733 0.273742
v 0.102382 0.755142 0.086723
v 0.079756 0.852072 -0.080176
v 0.068384 0.796745 -0.260463
v 0.041432 0.650831 -0.364014
v 0.018746 0.476922 -0.412247
v -0.001219 0.308428 -0.479816
v 0.185940 0.249086 0.440311
v 0.199423 0.400036 0.356772
v 0.250058 0.558687 0.325211
v 0.288058 0.729019 0.257149
v 0.283046 0.822463 0.101502
v 0.261692 0.833595 -0.087022
v 0.244027 0.770821 -0.264249
v 0.221121 0.637474 -0.379815
v 0.199704 0.464481 -0.434713
v 0.181545 0.291137 -0.488160
v 0.347370 0.177794 0.414486
v 0.337000 0.308734 0.288960
v 0.376530 0.466886 0.238796
v 0.439577 0.645720 0.252530
v 0.458388 0.768361 0.092436
v 0.380225 0.705998 -0.072148
v 0.421369 0.737879 -0.257695
v 0.400494 0.632823 -0.416523
v 0.380824 0.448106 -0.440883
v 0.361799 0.267430 -0.444665
v 0.522391 0.225711 0.463212
v 0.497795 0.228570 0.283026
v 0.514624 0.366655 0.167624
v 0.589138 0.548280 0.231650
v 0.599764 0.664667 0.080116
v 0.484383 0.566197 -0.066198
v 0.557336 0.627014 -0.216015
v 0.577910 0.615586 -0.408806
v 0.560025 0.430470 -0.466547
v 0.544937 0.251837 -0.436275
vt 0.179688 -0.000000
vt 0.179688 0.226562
vt 0.546875 0.226562
vt 0.500000 -0.000000
vt 0.187500 0.000000
vt 0.187500 0.226562
vt 0.640625 0.226562
vt 0.640625 0.000000
vt 0.710938 0.007812
vt 0.710938 0.234375
vt 0.187500 0.234375
vt 0.187500 0.007812
vt 0.640625 0.000000
vt 0.640625 0.226562
vt 0.187500 0.226562
vt 0.187500 0.000000
vt 0.250000 0.554688
vt 0.703125 0.562500
vt 0.703125 0.250000
vt 0.250000 0.250000
vt 0.695312 0.531250
vt 0.242188 0.531250
vt 0.242188 0.164062
vt 0.695312 0.164062
vt 0.909091 0.909091
vt 1.000000 0.909091
vt 1.000000 1.000000
vt 0.909091 1.000000
vt 0.000000 0.909091
vt 0.090909 0.909091
vt 0.090909 1.000000
vt 0.000000 1.000000
vt 0.181818 0.909091
vt 0.181818 1.000000
vt 0.272727 0.909091
vt 0.272727 1.000000
vt 0.363636 0.909091
vt 0.363636 1.000000
vt 0.454545 0.909091
vt 0.454545 1.000000
vt 0.545455 0.909091
vt 0.545455 1.000000
vt 0.636364 0.909091
vt 0.636364 1.000000
vt 0.727273 0.909091
vt 0.727273 1.000000
vt 0.818182 0.909091
vt 0.818182 1.000000
vt 0.000000 0.000000
vt 0.090909 0.000000
vt 0.090909 0.090909
vt 0.000000 0.090909
vt 0.090909 0.181818
vt 0.000000 0.181818
vt 0.090909 0.272727
vt 0.000000 0.272727
vt 0.090909 0.363636
vt 0.000000 0.363636
vt 0.090909 0.454545
vt 0.000000 0.454545
vt 0.090909 0.545455
vt 0.000000 0.545455
vt 0.090909 0.636364
vt 0.000000 0.636364
vt 0.090909 0.727273
vt 0.000000 0.727273
vt 0.090909 0.818182
vt 0.000000 0.818182
vt 0.181818 0.000000
vt 0.181818 0.090909
vt 0.181818 0.181818
vt 0.181818 0.272727
vt 0.181818 0.363636
vt 0.181818 0.454545
vt 0.181818 0.545455
vt 0.181818 0.636364
vt 0.181818 0.727273
vt 0.181818 0.818182
vt 0.272727 0.000000
vt 0.272727 0.090909
vt 0.272727 0.181818
vt 0.272727 0.272727
vt 0.272727 0.363636
vt 0.272727 0.454545
vt 0.272727 0.545455
vt 0.272727 0.636364
vt 0.272727 0.727273
vt 0.272727 0.818182
vt 0.363636 0.000000
vt 0.363636 0.090909
vt 0.363636 0.181818
vt 0.363636 0.272727
vt 0.363636 0.363636
vt 0.363636 0.454545
vt 0.363636 0.545455
vt 0.363636 0.636364
vt 0.363636 0.727273
vt 0.363636 0.818182
vt 0.454545 0.000000
vt 0.454545 0.090909
vt 0.454545 0.181818
vt 0.454545 0.272727
vt 0.454545 0.363636
vt 0.454545 0.454545
vt 0.454545 0.545455
vt 0.454545 0.636364
vt 0.454545 0.727273
vt 0.454545 0.818182
vt 0.545455 0.000000
vt 0.545455 0.090909
vt 0.545455 0.181818
vt 0.545455 0.272727
vt 0.545455 0.363636
vt 0.545455 0.454545
vt 0.545455 0.545455
vt 0.545455 0.636364
vt 0.545455 0.727273
vt 0.545455 0.818182
vt 0.636364 0.000000
vt 0.636364 0.090909
vt 0.636364 0.181818
vt 0.636364 0.272727
vt 0.636364 0.363636
vt 0.636364 0.454545
vt 0.636364 0.545455
vt 0.636364 0.636364
vt 0.636364 0.727273
vt 0.636364 0.818182
vt 0.727273 0.000000
vt 0.727273 0.090909
vt 0.727273 0.181818
vt 0.727273 0.272727
vt 0.727273 0.363636
vt 0.727273 0.454545
vt 0.727273 0.545455
vt 0.727273 0.636364
vt 0.727273 0.727273
vt 0.727273 0.818182
vt 0.818182 0.000000
vt 0.818182 0.090909
vt 0.818182 0.181818
vt 0.818182 0.272727
vt 0.818182 0.363636
vt 0.818182 0.454545
vt 0.818182 0.545455
vt 0.818182 0.636364
vt 0.818182 0.727273
vt 0.818182 0.818182
vt 0.909091 0.000000
vt 0.909091 0.090909
vt 0.909091 0.181818
vt 0.909091 0.272727
vt 0.909091 0.363636
vt 0.909091 0.454545
vt 0.909091 0.545455
vt 0.909091 0.636364
vt 0.909091 0.727273
vt 0.909091 0.818182
vt 1.000000 0.000000
vt 1.000000 0.090909
vt 1.000000 0.181818
vt 1.000000 0.272727
vt 1.000000 0.363636
vt 1.000000 0.454545
vt 1.000000 0.545455
vt 1.000000 0.636364
vt 1.000000 0.727273
vt 1.000000 0.818182
vn -1.0000 0.0000 0.0000
vn -0.2232 -0.0668 -0.9725
vn 1.0000 0.0000 0.0000
vn 0.0000 0.0000 1.0000
vn 0.0000 -1.0000 0.0000
vn 0.0000 1.0000 0.0000
vn -0.0845 0.2493 -0.9647
vn -0.1345 0.2176 -0.9667
vn -0.0274 0.6427 -0.7656
vn -0.0244 0.6104 -0.7917
vn -0.1649 0.2398 -0.9567
vn 0.0420 0.3257 -0.9446
vn 0.0921 0.1823 -0.9789
vn -0.1620 0.0541 -0.9853
vn 0.5799 0.3603 -0.7307
vn 0.7146 0.2853 -0.6387
vn 0.8225 0.1431 -0.5504
vn 0.8725 0.1173 -0.4743
vn -0.0131 -0.0388 -0.9992
vn -0.0507 -0.0388 -0.9980
vn -0.6741 0.0097 -0.7385
vn -0.7374 -0.0033 -0.6755
vn -0.3588 0.2074 -0.9101
vn -0.4602 0.1657 -0.8722
vn -0.0632 0.2846 -0.9566
vn -0.0600 0.2293 -0.9715
vn 0.0539 0.2463 -0.9677
vn 0.0759 0.2452 -0.9665
vn 0.0259 0.2464 -0.9688
vn 0.0191 0.4414 -0.8971
vn 0.1757 0.1321 0.9755
vn 0.1512 0.0877 0.9846
vn 0.0033 0.2343 0.9722
vn -0.0513 0.3651 0.9296
vn -0.3815 0.6511 0.6562
vn -0.4411 0.7758 0.4512
vn -0.4281 0.8584 -0.2828
vn -0.4108 0.7893 -0.4563
vn -0.2433 0.5281 -0.8136
vn -0.2017 0.3926 -0.8973
vn -0.7221 0.5885 -0.3637
vn -0.6862 0.5543 -0.4710
vn -0.6769 0.4640 0.5715
vn -0.6232 0.4673 0.6271
vn -0.5583 0.6053 0.5674
vn -0.5066 0.5565 0.6585
vn -0.4932 0.8481 -0.1937
vn -0.5580 0.8297 -0.0143
vn -0.1661 0.6338 -0.7554
vn -0.3147 0.6365 -0.7042
vn -0.2038 0.0810 0.9757
vn -0.1817 0.1156 0.9765
vn -0.2630 0.4170 0.8700
vn -0.4647 0.8696 0.1670
vn -0.5122 0.5967 -0.6178
vn -0.8341 0.4884 -0.2564
vn -0.7549 0.4704 0.4570
vn -0.6485 0.7113 0.2710
vn -0.2814 0.7979 -0.5331
vn 0.2466 0.5441 -0.8020
vn -0.3361 0.1578 0.9285
vn -0.2781 0.1892 0.9417
vn -0.2110 0.3850 0.8985
vn -0.3321 0.7598 0.5590
vn -0.6391 0.7557 -0.1428
vn -0.8758 0.4665 -0.1244
vn -0.8496 0.4481 0.2784
vn -0.7025 0.6854 -0.1917
vn 0.0970 0.5293 -0.8428
vn 0.6031 0.2497 -0.7575
vn 0.2148 0.2065 0.9546
vn 0.1477 0.1977 0.9691
vn -0.0293 0.3680 0.9294
vn -0.1281 0.7337 0.6673
vn -0.2281 0.9100 0.3463
vn -0.4265 0.8687 0.2520
vn -0.5475 0.8296 0.1100
vn -0.4541 0.7186 -0.5266
vn -0.1069 0.2458 -0.9634
vn 0.0859 0.0531 -0.9949
vn 0.2050 0.1908 0.9600
vn 0.1553 0.0653 0.9857
vn 0.0509 0.2474 0.9676
vn -0.0566 0.7512 0.6577
vn -0.0013 0.9202 0.3913
vn 0.1287 0.9392 0.3184
vn 0.1214 0.9924 0.0191
vn -0.0390 0.7628 -0.6455
vn -0.2867 0.2949 -0.9115
vn -0.5208 0.1467 -0.8410
vn -0.3009 0.2819 0.9110
vn -0.1442 0.1553 0.9773
vn 0.1023 0.2678 0.9580
vn 0.1073 0.7024 0.7036
vn 0.0520 0.9630 0.2645
vn 0.1421 0.9666 0.2135
vn 0.1759 0.9822 0.0665
vn 0.0089 0.8016 -0.5978
vn -0.1396 0.4238 -0.8949
vn -0.2223 0.2803 -0.9338
vn 0.3911 0.4479 0.8040
vn 0.5090 0.3527 0.7852
vn 0.5584 0.2214 0.7995
vn 0.4627 0.4695 0.7520
vn 0.1943 0.9171 0.3480
vn -0.0028 0.9784 0.2067
vn 0.0179 0.9991 0.0382
vn 0.0311 0.8221 -0.5685
vn -0.0262 0.4500 -0.8926
vn -0.0603 0.3103 -0.9487
vn 0.6601 0.5293 0.5330
vn 0.7004 0.4494 0.5545
vn 0.7034 0.2047 0.6806
vn 0.5605 0.1395 0.8163
vn 0.3464 0.6687 0.6579
vn 0.2014 0.9604 0.1924
vn 0.2406 0.9678 -0.0744
vn 0.1664 0.8554 -0.4905
vn -0.0345 0.4894 -0.8714
vn -0.0291 0.2529 -0.9670
vn -0.1266 0.7972 0.5903
vn 0.1126 0.7957 0.5951
vn 0.4284 0.4866 0.7614
vn 0.3677 0.0338 0.9293
vn 0.3923 0.3570 0.8477
vn 0.5630 0.8251 0.0475
vn 0.5865 0.7970 -0.1445
vn 0.4199 0.8895 -0.1805
vn 0.0792 0.5722 -0.8163
vn -0.0171 0.1325 -0.9910
vn -0.2701 0.8966 0.3510
vn -0.0818 0.9705 0.2269
vn 0.3188 0.8203 0.4749
vn 0.2779 0.1029 0.9551
vn 0.3561 0.2164 0.9091
vn 0.6131 0.7847 -0.0914
vn 0.7095 0.6739 -0.2062
vn 0.6333 0.7246 0.2719
vn 0.2939 0.7778 -0.5556
vn -0.0699 0.1184 -0.9905
vn -0.0459 0.9713 0.2333
vn 0.0900 0.9952 0.0393
vn 0.3648 0.9084 0.2043
vn 0.2913 0.2414 0.9257
vn 0.3057 0.1621 0.9382
vn 0.5612 0.8032 -0.2000
vn 0.7409 0.6172 -0.2650
vn 0.6880 0.5734 0.4449
vn 0.4024 0.8993 -0.1714
vn -0.0818 0.2221 -0.9716
s off
f 1/1/1 2/2/1 4/3/1 3/4/1
f 3/5/2 4/6/2 8/7/2 7/8/2
f 7/9/3 8/10/3 6/11/3 5/12/3
f 5/13/4 6/14/4 2/15/4 1/16/4
f 3/17/5 7/18/5 5/19/5 1/20/5
f 8/21/6 4/22/6 2/23/6 6/24/6
s 1
f 152/25/7 42/26/8 12/27/9 43/28/10
f 13/29/11 62/30/12 52/31/13 11/32/14
f 62/30/12 72/33/15 51/34/16 52/31/13
f 72/33/15 82/35/17 50/36/18 51/34/16
f 82/35/17 92/37/19 49/38/20 50/36/18
f 92/37/19 102/39/21 48/40/22 49/38/20
f 102/39/21 112/41/23 47/42/24 48/40/22
f 112/41/23 122/43/25 46/44/26 47/42/24
f 122/43/25 132/45/27 45/46/28 46/44/26
f 132/45/27 142/47/29 44/48/30 45/46/28
f 142/47/29 152/25/7 43/28/10 44/48/30
f 9/49/31 23/50/32 53/51/33 22/52/34
f 22/52/34 53/51/33 54/53/35 21/54/36
f 21/54/36 54/53/35 55/55/37 20/56/38
f 20/56/38 55/55/37 56/57/39 19/58/40
f 19/58/40 56/57/39 57/59/41 18/60/42
f 18/60/42 57/59/41 58/61/43 17/62/44
f 17/62/44 58/61/43 59/63/45 16/64/46
f 16/64/46 59/63/45 60/65/47 15/66/48
f 15/66/48 60/65/47 61/67/49 14/68/50
f 14/68/50 61/67/49 62/30/12 13/29/11
f 23/50/32 24/69/51 63/70/52 53/51/33
f 53/51/33 63/70/52 64/71/53 54/53/35
f 54/53/35 64/71/53 65/72/54 55/55/37
f 55/55/37 65/72/54 66/73/55 56/57/39
f 56/57/39 66/73/55 67/74/56 57/59/41
f 57/59/41 67/74/56 68/75/57 58/61/43
f 58/61/43 68/75/57 69/76/58 59/63/45
f 59/63/45 69/76/58 70/77/59 60/65/47
f 60/65/47 70/77/59 71/78/60 61/67/49
f 61/67/49 71/78/60 72/33/15 62/30/12
f 24/69/51 25/79/61 73/80/62 63/70/52
f 63/70/52 73/80/62 74/81/63 64/71/53
f 64/71/53 74/81/63 75/82/64 65/72/54
f 65/72/54 75/82/64 76/83/65 66/73/55
f 66/73/55 76/83/65 77/84/66 67/74/56
f 67/74/56 77/84/66 78/85/67 68/75/57
f 68/75/57 78/85/67 79/86/68 69/76/58
f 69/76/58 79/86/68 80/87/69 70/77/59
f 70/77/59 80/87/69 81/88/70 71/78/60
f 71/78/60 81/88/70 82/35/17 72/33/15
f 25/79/61 26/89/71 83/90/72 73/80/62
f 73/80/62 83/90/72 84/91/73 74/81/63
f 74/81/63 84/91/73 85/92/74 75/82/64
f 75/82/64 85/92/74 86/93/75 76/83/65
f 76/83/65 86/93/75 87/94/76 77/84/66
f 77/84/66 87/94/76 88/95/77 78/85/67
f 78/85/67 88/95/77 89/96/78 79/86/68
f 79/86/68 89/96/78 90/97/79 80/87/69
f 80/87/69 90/97/79 91/98/80 81/88/70
f 81/88/70 91/98/80 92/37/19 82/35/17
f 26/89/71 27/99/81 93/100/82 83/90/72
f 83/90/72 93/100/82 94/101/83 84/91/73
f 84/91/73 94/101/83 95/102/84 85/92/74
f 85/92/74 95/102/84 96/103/85 86/93/75
f 86/93/75 96/103/85 97/104/86 87/94/76
f 87/94/76 97/104/86 98/105/87 88/95/77
f 88/95/77 98/105/87 99/106/88 89/96/78
f 89/96/78 99/106/88 100/107/89 90/97/79
f 90/97/79 100/107/89 101/108/90 91/98/80
f 91/98/80 101/108/90 102/39/21 92/37/19
f 27/99/81 28/109/91 103/110/92 93/100/82
f 93/100/82 103/110/92 104/111/93 94/101/83
f 94/101/83 104/111/93 105/112/94 95/102/84
f 95/102/84 105/112/94 106/113/95 96/103/85
f 96/103/85 106/113/95 107/114/96 97/104/86
f 97/104/86 107/114/96 108/115/97 98/105/87
f 98/105/87 108/115/97 109/116/98 99/106/88
f 99/106/88 109/116/98 110/117/99 100/107/89
f 100/107/89 110/117/99 111/118/100 101/108/90
f 101/108/90 111/118/100 112/41/23 102/39/21
f 28/109/91 29/119/101 113/120/102 103/110/92
f 103/110/92 113/120/102 114/121/103 104/111/93
f 104/111/93 114/121/103 115/122/104 105/112/94
f 105/112/94 115/122/104 116/123/105 106/113/95
f 106/113/95 116/123/105 117/124/106 107/114/96
f 107/114/96 117/124/106 118/125/107 108/115/97
f 108/115/97 118/125/107 119/126/108 109/116/98
f 109/116/98 119/126/108 120/127/109 110/117/99
f 110/117/99 120/127/109 121/128/110 111/118/100
f 111/118/100 121/128/110 122/43/25 112/41/23
f 29/119/101 30/129/111 123/130/112 113/120/102
f 113/120/102 123/130/112 124/131/113 114/121/103
f 114/121/103 124/131/113 125/132/114 115/122/104
f 115/122/104 125/132/114 126/133/115 116/123/105
f 116/123/105 126/133/115 127/134/116 117/124/106
f 117/124/106 127/134/116 128/135/117 118/125/107
f 118/125/107 128/135/117 129/136/118 119/126/108
f 119/126/108 129/136/118 130/137/119 120/127/109
f 120/127/109 130/137/119 131/138/120 121/128/110
f 121/128/110 131/138/120 132/45/27 122/43/25
f 30/129/111 31/139/121 133/140/122 123/130/112
f 123/130/112 133/140/122 134/141/123 124/131/113
f 124/131/113 134/141/123 135/142/124 125/132/114
f 125/132/114 135/142/124 136/143/125 126/133/115
f 126/133/115 136/143/125 137/144/126 127/134/116
f 127/134/116 137/144/126 138/145/127 128/135/117
f 128/135/117 138/145/127 139/146/128 129/136/118
f 129/136/118 139/146/128 140/147/129 130/137/119
f 130/137/119 140/147/129 141/148/130 131/138/120
f 131/138/120 141/148/130 142/47/29 132/45/27
f 31/139/121 32/149/131 143/150/132 133/140/122
f 133/140/122 143/150/132 144/151/133 134/141/123
f 134/141/123 144/151/133 145/152/134 135/142/124
f 135/142/124 145/152/134 146/153/135 136/143/125
f 136/143/125 146/153/135 147/154/136 137/144/126
f 137/144/126 147/154/136 148/155/137 138/145/127
f 138/145/127 148/155/137 149/156/138 139/146/128
f 139/146/128 149/156/138 150/157/139 140/147/129
f 140/147/129 150/157/139 151/158/140 141/148/130
f 141/148/130 151/158/140 152/25/7 142/47/29
f 32/149/131 10/159/141 33/160/142 143/150/132
f 143/150/132 33/160/142 34/161/143 144/151/133
f 144/151/133 34/161/143 35/162/144 145/152/134
f 145/152/134 35/162/144 36/163/145 146/153/135
f 146/153/135 36/163/145 37/164/146 147/154/136
f 147/154/136 37/164/146 38/165/147 148/155/137
f 148/155/137 38/165/147 39/166/148 149/156/138
f 149/156/138 39/166/148 40/167/149 150/157/139
f 150/157/139 40/167/149 41/168/150 151/158/140
f 151/158/140 41/168/150 42/26/8 152/25/7
